{"glyphs":{"0":{"ha":969,"x_min":60,"x_max":910,"o":"m 481 -17 q 257 49 351 -17 q 111 235 163 114 q 60 521 60 356 q 112 806 60 686 q 260 990 164 925 q 486 1056 356 1056 q 711 990 617 1056 q 858 803 806 924 q 910 517 910 682 q 858 233 910 353 q 709 49 806 114 q 481 -17 613 -17 m 485 186 q 663 521 663 186 q 485 853 663 853 q 307 521 307 853 q 485 186 307 186 z "},"1":{"ha":660,"x_min":46,"x_max":558,"o":"m 317 0 l 317 681 q 262 651 292 661 q 183 638 232 642 q 46 635 133 635 l 46 844 q 152 848 107 844 q 230 869 197 851 q 286 926 263 886 q 328 1039 310 967 l 558 1039 l 558 0 l 317 0 z "},"2":{"ha":869,"x_min":47,"x_max":810,"o":"m 49 0 l 49 119 q 78 288 49 214 q 177 423 108 363 q 360 538 246 483 q 457 588 408 561 q 538 651 506 614 q 569 742 569 688 q 532 826 569 793 q 435 860 494 860 q 326 810 371 860 q 279 668 282 760 l 51 668 q 90 872 47 783 q 220 1012 133 961 q 435 1063 307 1063 q 634 1024 550 1063 q 764 913 718 985 q 810 742 810 840 q 769 578 810 646 q 656 458 728 510 q 492 356 583 406 q 377 284 429 322 q 318 206 325 246 l 788 206 l 788 0 l 49 0 z "},"3":{"ha":871,"x_min":43,"x_max":808,"o":"m 424 -21 q 214 26 297 -21 q 88 156 131 74 q 43 344 46 239 l 258 344 q 309 223 265 267 q 425 179 353 179 q 535 219 496 179 q 574 317 574 260 q 533 409 574 375 q 421 443 493 443 l 339 443 l 339 631 l 421 631 q 512 661 476 631 q 547 743 547 692 q 510 828 547 796 q 413 861 474 861 q 329 840 363 861 q 281 783 296 818 q 267 711 265 749 l 51 711 q 92 891 50 813 q 216 1015 133 969 q 419 1061 299 1061 q 610 1024 528 1061 q 740 924 693 988 q 786 775 786 860 q 744 635 786 696 q 629 543 701 574 q 763 461 717 518 q 808 308 808 404 q 761 135 808 210 q 628 20 714 61 q 424 -21 542 -21 z "},"4":{"ha":882,"x_min":25,"x_max":840,"o":"m 178 197 q 66 237 107 197 q 25 342 25 276 q 51 439 25 390 q 108 551 76 488 l 357 1039 l 610 1039 l 290 403 q 294 394 286 394 l 493 394 l 493 646 l 715 646 l 715 394 l 840 394 l 840 197 l 715 197 l 715 0 l 493 0 l 493 197 l 178 197 z "},"5":{"ha":872,"x_min":54,"x_max":817,"o":"m 426 -21 q 232 23 315 -21 q 102 143 149 67 q 54 318 56 219 l 282 318 q 327 222 289 256 q 426 188 365 188 q 538 230 499 188 q 576 349 576 272 q 537 468 576 426 q 424 510 497 510 q 338 488 372 510 q 288 429 304 467 l 58 429 l 129 1039 l 782 1039 l 782 835 l 335 835 l 311 647 q 369 685 326 663 q 481 707 411 707 q 728 613 639 707 q 817 349 817 518 q 772 157 817 240 q 640 26 726 74 q 426 -21 553 -21 z "},"6":{"ha":904,"x_min":50,"x_max":849,"o":"m 467 -21 q 164 114 267 -21 q 54 492 61 249 q 96 797 50 669 q 237 994 142 925 q 475 1063 332 1063 q 657 1024 576 1063 q 786 917 738 986 q 840 753 835 847 l 618 753 q 575 824 608 794 q 485 853 542 853 q 340 780 392 853 q 289 589 289 707 q 290 554 289 571 q 351 617 310 592 q 440 653 392 642 q 535 665 489 665 q 694 624 622 665 q 807 510 765 583 q 849 336 849 436 q 805 158 849 239 q 676 28 761 76 q 467 -21 592 -21 m 471 183 q 580 226 538 183 q 622 335 622 268 q 580 442 622 400 q 471 483 538 483 q 359 442 403 483 q 315 335 315 400 q 359 226 315 268 q 471 183 403 183 z "},"7":{"ha":779,"x_min":32,"x_max":735,"o":"m 169 0 l 499 824 q 493 832 501 832 l 32 832 l 32 1042 l 536 1042 q 687 999 639 1042 q 735 879 735 957 q 726 808 735 840 q 706 743 718 776 l 424 0 l 169 0 z "},"8":{"ha":922,"x_min":64,"x_max":860,"o":"m 464 -22 q 251 15 342 -22 q 113 122 161 53 q 64 285 64 190 q 110 431 64 365 q 238 526 157 497 q 121 621 163 557 q 79 761 79 685 q 126 922 79 854 q 258 1026 172 989 q 463 1063 344 1063 q 743 982 640 1063 q 846 763 846 901 q 802 618 846 682 q 686 526 758 554 q 813 431 767 499 q 860 283 860 363 q 811 122 860 190 q 674 15 763 53 q 464 -22 586 -22 m 463 621 q 574 655 532 621 q 617 740 617 689 q 576 828 617 796 q 463 860 535 860 q 349 828 390 860 q 308 740 308 796 q 351 655 308 689 q 463 621 394 621 m 463 178 q 581 214 536 178 q 625 311 625 250 q 579 406 625 369 q 463 442 533 442 q 347 406 392 442 q 301 311 301 369 q 345 214 301 250 q 463 178 389 178 z "},"9":{"ha":904,"x_min":56,"x_max":856,"o":"m 438 1063 q 741 928 638 1063 q 850 550 844 794 q 809 244 856 372 q 667 48 763 117 q 429 -21 572 -21 q 248 17 329 -21 q 118 126 167 56 q 64 289 69 196 l 286 289 q 331 218 297 247 q 419 189 364 189 q 565 262 514 189 q 615 453 615 335 q 614 488 615 471 q 553 425 594 450 q 464 388 513 400 q 369 376 415 376 q 210 417 282 376 q 97 533 139 458 q 56 706 56 607 q 99 884 56 803 q 228 1014 143 965 q 438 1063 314 1063 m 433 858 q 324 816 367 858 q 282 707 282 774 q 324 600 282 642 q 433 558 367 558 q 546 600 503 558 q 589 707 589 642 q 546 816 589 774 q 433 858 503 858 z "}," ":{"ha":306,"x_min":0,"x_max":0,"o":""},"A":{"ha":1035,"x_min":15,"x_max":1019,"o":"m 15 0 l 315 850 q 363 965 339 918 q 424 1038 388 1013 q 519 1063 461 1063 q 617 1038 579 1063 q 680 966 654 1013 q 728 853 706 919 l 1019 0 l 772 0 l 704 221 l 331 221 l 260 0 l 15 0 m 517 794 l 397 426 l 639 426 l 525 794 q 521 800 524 800 q 517 794 518 800 z "},"Á":{"ha":1035,"x_min":15,"x_max":1019,"o":"m 15 0 l 315 850 q 363 965 339 918 q 424 1038 388 1013 q 519 1063 461 1063 q 617 1038 579 1063 q 680 966 654 1013 q 728 853 706 919 l 1019 0 l 772 0 l 704 221 l 331 221 l 260 0 l 15 0 m 517 794 l 397 426 l 639 426 l 525 794 q 521 800 524 800 q 517 794 518 800 m 432 1125 l 544 1338 l 788 1338 l 615 1125 l 432 1125 z "},"Ă":{"ha":1035,"x_min":15,"x_max":1019,"o":"m 15 0 l 315 850 q 363 965 339 918 q 424 1038 388 1013 q 519 1063 461 1063 q 617 1038 579 1063 q 680 966 654 1013 q 728 853 706 919 l 1019 0 l 772 0 l 704 221 l 331 221 l 260 0 l 15 0 m 517 794 l 397 426 l 639 426 l 525 794 q 521 800 524 800 q 517 794 518 800 m 518 1111 q 343 1172 408 1111 q 278 1338 278 1233 l 446 1338 q 467 1265 446 1293 q 518 1236 488 1236 q 572 1265 551 1236 q 593 1338 593 1293 l 758 1338 q 694 1172 758 1233 q 518 1111 629 1111 z "},"Â":{"ha":1035,"x_min":15,"x_max":1019,"o":"m 15 0 l 315 850 q 363 965 339 918 q 424 1038 388 1013 q 519 1063 461 1063 q 617 1038 579 1063 q 680 966 654 1013 q 728 853 706 919 l 1019 0 l 772 0 l 704 221 l 331 221 l 260 0 l 15 0 m 517 794 l 397 426 l 639 426 l 525 794 q 521 800 524 800 q 517 794 518 800 m 258 1125 l 319 1206 q 372 1274 349 1244 q 428 1321 396 1304 q 517 1338 461 1338 q 605 1321 572 1338 q 662 1275 638 1304 q 715 1207 686 1246 l 778 1125 l 604 1125 l 518 1219 l 431 1125 l 258 1125 z "},"À":{"ha":1035,"x_min":15,"x_max":1019,"o":"m 15 0 l 315 850 q 363 965 339 918 q 424 1038 388 1013 q 519 1063 461 1063 q 617 1038 579 1063 q 680 966 654 1013 q 728 853 706 919 l 1019 0 l 772 0 l 704 221 l 331 221 l 260 0 l 15 0 m 517 794 l 397 426 l 639 426 l 525 794 q 521 800 524 800 q 517 794 518 800 m 604 1125 l 421 1125 l 249 1338 l 492 1338 l 604 1125 z "},"Ã":{"ha":1035,"x_min":15,"x_max":1019,"o":"m 15 0 l 315 850 q 363 965 339 918 q 424 1038 388 1013 q 519 1063 461 1063 q 617 1038 579 1063 q 680 966 654 1013 q 728 853 706 919 l 1019 0 l 772 0 l 704 221 l 331 221 l 260 0 l 15 0 m 517 794 l 397 426 l 639 426 l 525 794 q 521 800 524 800 q 517 794 518 800 m 610 1118 q 537 1138 565 1118 q 489 1176 508 1157 q 449 1196 469 1196 q 431 1189 439 1196 q 424 1157 424 1182 l 424 1125 l 278 1125 l 278 1181 q 321 1306 278 1269 q 428 1342 364 1342 q 502 1323 475 1342 q 548 1285 529 1304 q 586 1267 567 1267 q 604 1274 597 1267 q 611 1303 611 1282 l 611 1331 l 758 1331 l 758 1279 q 715 1157 758 1196 q 610 1118 672 1118 z "},"B":{"ha":993,"x_min":103,"x_max":929,"o":"m 103 0 l 103 1042 l 554 1042 q 815 966 724 1042 q 907 758 907 890 q 867 621 907 679 q 757 536 826 563 q 881 452 833 514 q 929 290 929 390 q 838 78 929 156 q 576 0 746 0 l 103 0 m 343 626 l 542 626 q 632 653 596 626 q 668 732 668 681 q 632 810 668 783 q 542 836 596 836 l 343 836 l 343 626 m 343 206 l 568 206 q 658 238 622 206 q 694 326 694 271 q 658 414 694 382 q 568 446 622 446 l 343 446 l 343 206 z "},"C":{"ha":1060,"x_min":64,"x_max":996,"o":"m 554 -21 q 293 45 403 -21 q 124 233 183 111 q 64 521 64 354 q 123 809 64 688 q 291 997 182 931 q 547 1063 400 1063 q 777 1013 679 1063 q 931 874 875 963 q 989 669 986 785 l 744 669 q 683 797 733 747 q 550 847 632 847 q 377 758 440 847 q 314 519 314 669 q 377 282 314 372 q 557 192 440 192 q 665 219 624 192 q 726 292 706 247 q 753 389 747 338 l 996 389 q 934 168 990 260 q 781 28 878 76 q 554 -21 685 -21 z "},"D":{"ha":1065,"x_min":103,"x_max":1003,"o":"m 103 0 l 103 1042 l 521 1042 q 777 978 669 1042 q 944 799 885 915 q 1003 522 1003 683 q 944 245 1003 363 q 777 64 885 128 q 521 0 669 0 l 103 0 m 344 200 l 521 200 q 691 284 629 200 q 753 522 753 368 q 691 758 753 675 q 521 842 629 842 l 344 842 l 344 200 z "},"Đ":{"ha":1068,"x_min":-4,"x_max":1003,"o":"m 103 0 l 103 442 l -4 442 l -4 601 l 103 601 l 103 1042 l 521 1042 q 777 978 669 1042 q 944 799 885 915 q 1003 522 1003 683 q 944 245 1003 363 q 777 64 885 128 q 521 0 669 0 l 103 0 m 344 200 l 521 200 q 691 284 629 200 q 753 522 753 368 q 691 758 753 675 q 521 842 629 842 l 344 842 l 344 601 l 513 601 l 513 442 l 344 442 l 344 200 z "},"E":{"ha":879,"x_min":103,"x_max":811,"o":"m 103 0 l 103 1042 l 811 1042 l 811 832 l 344 832 l 344 636 l 782 636 l 782 435 l 344 435 l 344 210 l 811 210 l 811 0 l 103 0 z "},"É":{"ha":879,"x_min":103,"x_max":811,"o":"m 103 0 l 103 1042 l 811 1042 l 811 832 l 344 832 l 344 636 l 782 636 l 782 435 l 344 435 l 344 210 l 811 210 l 811 0 l 103 0 m 386 1125 l 499 1338 l 742 1338 l 569 1125 l 386 1125 z "},"Ê":{"ha":879,"x_min":103,"x_max":811,"o":"m 103 0 l 103 1042 l 811 1042 l 811 832 l 344 832 l 344 636 l 782 636 l 782 435 l 344 435 l 344 210 l 811 210 l 811 0 l 103 0 m 213 1125 l 274 1206 q 326 1274 303 1244 q 383 1321 350 1304 q 471 1338 415 1338 q 559 1321 526 1338 q 616 1275 592 1304 q 669 1207 640 1246 l 732 1125 l 558 1125 l 472 1219 l 385 1125 l 213 1125 z "},"È":{"ha":879,"x_min":103,"x_max":811,"o":"m 103 0 l 103 1042 l 811 1042 l 811 832 l 344 832 l 344 636 l 782 636 l 782 435 l 344 435 l 344 210 l 811 210 l 811 0 l 103 0 m 558 1125 l 375 1125 l 203 1338 l 446 1338 l 558 1125 z "},"F":{"ha":843,"x_min":103,"x_max":796,"o":"m 103 0 l 103 1042 l 796 1042 l 796 832 l 344 832 l 344 607 l 769 607 l 769 403 l 344 403 l 344 0 l 103 0 z "},"G":{"ha":1075,"x_min":64,"x_max":1011,"o":"m 560 -21 q 295 45 407 -21 q 124 232 183 111 q 64 519 64 353 q 124 808 64 686 q 293 996 183 929 q 550 1063 403 1063 q 778 1013 679 1063 q 933 878 878 964 q 989 681 989 792 l 739 681 q 682 801 733 754 q 550 849 631 849 q 376 760 438 849 q 314 524 314 672 q 379 281 314 369 q 560 192 444 192 q 688 237 636 192 q 758 378 740 282 l 567 378 l 567 576 l 819 576 q 967 529 922 576 q 1011 396 1011 482 q 988 260 1011 332 q 911 124 964 188 q 772 19 858 60 q 560 -21 685 -21 z "},"H":{"ha":1063,"x_min":103,"x_max":960,"o":"m 103 0 l 103 1042 l 347 1042 l 347 657 l 715 657 l 715 1042 l 960 1042 l 960 0 l 715 0 l 715 440 l 347 440 l 347 0 l 103 0 z "},"I":{"ha":451,"x_min":103,"x_max":349,"o":"m 103 0 l 103 1042 l 349 1042 l 349 0 l 103 0 z "},"Í":{"ha":451,"x_min":103,"x_max":496,"o":"m 103 0 l 103 1042 l 349 1042 l 349 0 l 103 0 m 140 1125 l 253 1338 l 496 1338 l 324 1125 l 140 1125 z "},"Ì":{"ha":451,"x_min":-43,"x_max":349,"o":"m 103 0 l 103 1042 l 349 1042 l 349 0 l 103 0 m 313 1125 l 129 1125 l -43 1338 l 200 1338 l 313 1125 z "},"Ĩ":{"ha":451,"x_min":-14,"x_max":467,"o":"m 103 0 l 103 1042 l 349 1042 l 349 0 l 103 0 m 318 1118 q 245 1138 274 1118 q 197 1176 217 1157 q 157 1196 178 1196 q 140 1189 147 1196 q 132 1157 132 1182 l 132 1125 l -14 1125 l -14 1181 q 29 1306 -14 1269 q 136 1342 72 1342 q 210 1323 183 1342 q 256 1285 238 1304 q 294 1267 275 1267 q 313 1274 306 1267 q 319 1303 319 1282 l 319 1331 l 467 1331 l 467 1279 q 424 1157 467 1196 q 318 1118 381 1118 z "},"J":{"ha":672,"x_min":43,"x_max":569,"o":"m 211 -21 q 128 -15 171 -21 q 43 0 86 -10 l 43 206 q 102 192 71 197 q 164 188 133 188 q 285 232 246 188 q 324 374 324 276 l 324 1042 l 569 1042 l 569 372 q 476 79 569 179 q 211 -21 383 -21 z "},"K":{"ha":999,"x_min":103,"x_max":983,"o":"m 103 0 l 103 1042 l 346 1042 l 346 621 l 658 1042 l 957 1042 l 651 657 l 983 0 l 688 0 l 485 447 l 346 272 l 346 0 l 103 0 z "},"L":{"ha":842,"x_min":103,"x_max":804,"o":"m 103 0 l 103 1042 l 347 1042 l 347 215 l 804 215 l 804 0 l 103 0 z "},"M":{"ha":1364,"x_min":103,"x_max":1261,"o":"m 683 -21 q 563 24 608 -21 q 494 154 517 69 l 347 738 q 343 740 346 740 q 340 736 340 739 l 340 1 l 103 1 l 103 847 q 161 1006 103 950 q 307 1063 219 1063 q 522 864 469 1063 l 678 294 q 682 290 679 290 q 686 294 685 290 l 838 864 q 919 1012 864 961 q 1058 1063 974 1063 q 1203 1006 1146 1063 q 1261 847 1261 950 l 1261 1 l 1025 1 l 1025 746 q 1022 750 1025 749 q 1018 747 1019 751 l 869 154 q 803 24 849 69 q 683 -21 758 -21 z "},"N":{"ha":1075,"x_min":103,"x_max":972,"o":"m 815 -21 q 708 14 751 -21 q 624 129 664 49 l 342 699 q 337 703 340 703 q 333 697 333 703 l 333 1 l 103 1 l 103 886 q 153 1017 103 972 q 272 1063 204 1063 q 389 1026 342 1063 q 469 921 436 990 l 733 374 q 739 370 736 369 q 742 376 742 371 l 742 1042 l 972 1042 l 972 138 q 924 18 972 57 q 815 -21 876 -21 z "},"O":{"ha":1111,"x_min":64,"x_max":1047,"o":"m 556 -21 q 295 45 406 -21 q 124 232 185 111 q 64 519 64 353 q 124 808 64 686 q 295 997 185 931 q 556 1063 406 1063 q 817 997 707 1063 q 987 808 926 931 q 1047 519 1047 686 q 987 232 1047 353 q 817 45 926 111 q 556 -21 707 -21 m 556 194 q 732 282 667 194 q 797 519 797 369 q 732 759 797 671 q 556 847 667 847 q 379 759 444 847 q 314 519 314 671 q 379 282 314 369 q 556 194 444 194 z "},"Ó":{"ha":1111,"x_min":64,"x_max":1047,"o":"m 556 -21 q 295 45 406 -21 q 124 232 185 111 q 64 519 64 353 q 124 808 64 686 q 295 997 185 931 q 556 1063 406 1063 q 817 997 707 1063 q 987 808 926 931 q 1047 519 1047 686 q 987 232 1047 353 q 817 45 926 111 q 556 -21 707 -21 m 556 194 q 732 282 667 194 q 797 519 797 369 q 732 759 797 671 q 556 847 667 847 q 379 759 444 847 q 314 519 314 671 q 379 282 314 369 q 556 194 444 194 m 469 1125 l 582 1338 l 825 1338 l 653 1125 l 469 1125 z "},"Ô":{"ha":1111,"x_min":64,"x_max":1047,"o":"m 556 -21 q 295 45 406 -21 q 124 232 185 111 q 64 519 64 353 q 124 808 64 686 q 295 997 185 931 q 556 1063 406 1063 q 817 997 707 1063 q 987 808 926 931 q 1047 519 1047 686 q 987 232 1047 353 q 817 45 926 111 q 556 -21 707 -21 m 556 194 q 732 282 667 194 q 797 519 797 369 q 732 759 797 671 q 556 847 667 847 q 379 759 444 847 q 314 519 314 671 q 379 282 314 369 q 556 194 444 194 m 296 1125 l 357 1206 q 410 1274 386 1244 q 466 1321 433 1304 q 554 1338 499 1338 q 642 1321 610 1338 q 699 1275 675 1304 q 753 1207 724 1246 l 815 1125 l 642 1125 l 556 1219 l 468 1125 l 296 1125 z "},"Ò":{"ha":1111,"x_min":64,"x_max":1047,"o":"m 556 -21 q 295 45 406 -21 q 124 232 185 111 q 64 519 64 353 q 124 808 64 686 q 295 997 185 931 q 556 1063 406 1063 q 817 997 707 1063 q 987 808 926 931 q 1047 519 1047 686 q 987 232 1047 353 q 817 45 926 111 q 556 -21 707 -21 m 556 194 q 732 282 667 194 q 797 519 797 369 q 732 759 797 671 q 556 847 667 847 q 379 759 444 847 q 314 519 314 671 q 379 282 314 369 q 556 194 444 194 m 642 1125 l 458 1125 l 286 1338 l 529 1338 l 642 1125 z "},"Ơ":{"ha":1089,"x_min":53,"x_max":1036,"o":"m 544 -21 q 284 45 394 -21 q 113 232 174 111 q 53 519 53 353 q 113 808 53 686 q 284 997 174 931 q 544 1063 394 1063 q 547 1063 546 1063 q 626 1058 594 1063 q 684 1049 658 1054 q 738 1039 710 1043 q 805 1062 786 1033 q 817 1157 824 1090 l 999 1157 q 977 1018 1007 1076 q 888 933 947 960 q 997 758 958 863 q 1036 519 1036 653 q 976 232 1036 353 q 806 45 915 111 q 544 -21 696 -21 m 544 188 q 731 277 663 188 q 800 519 800 367 q 731 764 800 674 q 544 854 663 854 q 358 764 426 854 q 289 519 289 674 q 358 277 289 367 q 544 188 426 188 z "},"Õ":{"ha":1111,"x_min":64,"x_max":1047,"o":"m 556 -21 q 295 45 406 -21 q 124 232 185 111 q 64 519 64 353 q 124 808 64 686 q 295 997 185 931 q 556 1063 406 1063 q 817 997 707 1063 q 987 808 926 931 q 1047 519 1047 686 q 987 232 1047 353 q 817 45 926 111 q 556 -21 707 -21 m 556 194 q 732 282 667 194 q 797 519 797 369 q 732 759 797 671 q 556 847 667 847 q 379 759 444 847 q 314 519 314 671 q 379 282 314 369 q 556 194 444 194 m 647 1118 q 574 1138 603 1118 q 526 1176 546 1157 q 486 1196 507 1196 q 469 1189 476 1196 q 461 1157 461 1182 l 461 1125 l 315 1125 l 315 1181 q 358 1306 315 1269 q 465 1342 401 1342 q 540 1323 513 1342 q 585 1285 567 1304 q 624 1267 604 1267 q 642 1274 635 1267 q 649 1303 649 1282 l 649 1331 l 796 1331 l 796 1279 q 753 1157 796 1196 q 647 1118 710 1118 z "},"P":{"ha":951,"x_min":103,"x_max":919,"o":"m 103 0 l 103 1042 l 503 1042 q 808 953 697 1042 q 919 703 919 865 q 808 452 919 540 q 503 364 697 364 l 344 364 l 344 0 l 103 0 m 344 568 l 503 568 q 623 601 576 568 q 669 703 669 635 q 623 805 669 772 q 503 838 576 838 l 344 838 l 344 568 z "},"Q":{"ha":1111,"x_min":64,"x_max":1047,"o":"m 556 -21 q 295 45 406 -21 q 124 232 185 111 q 64 519 64 353 q 124 808 64 686 q 295 997 185 931 q 556 1063 406 1063 q 817 997 707 1063 q 987 808 926 931 q 1047 519 1047 686 q 1010 288 1047 390 q 906 115 974 186 l 1046 -53 l 886 -186 l 726 4 q 556 -21 647 -21 m 556 194 q 732 282 667 194 q 797 519 797 369 q 732 759 797 671 q 556 847 667 847 q 379 759 444 847 q 314 519 314 671 q 379 282 314 369 q 556 194 444 194 z "},"R":{"ha":983,"x_min":103,"x_max":919,"o":"m 103 0 l 103 1042 l 517 1042 q 815 963 711 1042 q 919 739 919 885 q 874 589 919 653 q 743 490 828 525 q 872 399 839 460 q 906 246 906 339 l 906 0 l 667 0 l 667 221 q 517 381 667 381 l 344 381 l 344 0 l 103 0 m 344 585 l 517 585 q 630 619 590 585 q 669 715 669 653 q 630 803 669 772 q 517 835 590 835 l 344 835 l 344 585 z "},"S":{"ha":960,"x_min":51,"x_max":899,"o":"m 490 -21 q 269 21 368 -21 q 110 142 169 63 q 51 339 51 222 l 299 339 q 357 224 306 261 q 485 186 408 186 q 608 213 560 186 q 657 286 657 239 q 628 346 657 326 q 539 383 599 365 l 317 449 q 193 498 251 468 q 99 581 135 528 q 64 724 64 633 q 114 903 64 828 q 256 1021 164 979 q 471 1063 347 1063 q 762 975 650 1063 q 890 726 874 888 l 640 726 q 461 858 611 858 q 351 831 389 858 q 313 756 313 803 q 336 697 313 721 q 411 658 360 674 l 643 589 q 838 482 776 550 q 899 304 899 414 q 848 134 899 207 q 706 20 797 61 q 490 -21 614 -21 z "},"T":{"ha":889,"x_min":28,"x_max":861,"o":"m 322 0 l 322 825 l 28 825 l 28 1042 l 861 1042 l 861 825 l 567 825 l 567 0 l 322 0 z "},"U":{"ha":1069,"x_min":89,"x_max":981,"o":"m 536 -21 q 302 31 403 -21 q 145 178 201 83 q 89 403 89 274 l 89 1042 l 333 1042 l 333 403 q 388 246 333 304 q 533 188 442 188 q 682 246 628 188 q 736 403 736 304 l 736 1042 l 981 1042 l 981 403 q 924 178 981 274 q 768 31 868 83 q 536 -21 668 -21 z "},"Ú":{"ha":1069,"x_min":89,"x_max":981,"o":"m 536 -21 q 302 31 403 -21 q 145 178 201 83 q 89 403 89 274 l 89 1042 l 333 1042 l 333 403 q 388 246 333 304 q 533 188 442 188 q 682 246 628 188 q 736 403 736 304 l 736 1042 l 981 1042 l 981 403 q 924 178 981 274 q 768 31 868 83 q 536 -21 668 -21 m 449 1125 l 561 1338 l 804 1338 l 632 1125 l 449 1125 z "},"Ù":{"ha":1069,"x_min":89,"x_max":981,"o":"m 536 -21 q 302 31 403 -21 q 145 178 201 83 q 89 403 89 274 l 89 1042 l 333 1042 l 333 403 q 388 246 333 304 q 533 188 442 188 q 682 246 628 188 q 736 403 736 304 l 736 1042 l 981 1042 l 981 403 q 924 178 981 274 q 768 31 868 83 q 536 -21 668 -21 m 621 1125 l 438 1125 l 265 1338 l 508 1338 l 621 1125 z "},"Ư":{"ha":1069,"x_min":89,"x_max":1135,"o":"m 536 -21 q 302 31 403 -21 q 145 178 201 83 q 89 403 89 274 l 89 1042 l 333 1042 l 333 403 q 388 246 333 304 q 533 188 442 188 q 682 246 628 188 q 736 403 736 304 l 736 1042 l 981 1042 l 981 403 q 924 178 981 274 q 768 31 868 83 q 536 -21 668 -21 m 958 935 l 736 1042 l 818 1042 q 917 1074 889 1042 q 939 1192 944 1107 l 1128 1192 q 1090 1031 1135 1099 q 958 935 1046 964 z "},"Ũ":{"ha":1069,"x_min":89,"x_max":981,"o":"m 536 -21 q 302 31 403 -21 q 145 178 201 83 q 89 403 89 274 l 89 1042 l 333 1042 l 333 403 q 388 246 333 304 q 533 188 442 188 q 682 246 628 188 q 736 403 736 304 l 736 1042 l 981 1042 l 981 403 q 924 178 981 274 q 768 31 868 83 q 536 -21 668 -21 m 626 1118 q 553 1138 582 1118 q 506 1176 525 1157 q 465 1196 486 1196 q 448 1189 456 1196 q 440 1157 440 1182 l 440 1125 l 294 1125 l 294 1181 q 338 1306 294 1269 q 444 1342 381 1342 q 519 1323 492 1342 q 565 1285 546 1304 q 603 1267 583 1267 q 621 1274 614 1267 q 628 1303 628 1282 l 628 1331 l 775 1331 l 775 1279 q 732 1157 775 1196 q 626 1118 689 1118 z "},"V":{"ha":1038,"x_min":15,"x_max":1022,"o":"m 511 -21 q 386 34 432 -21 q 299 213 340 89 l 15 1042 l 269 1042 l 513 299 q 517 294 514 293 q 521 299 519 294 l 769 1042 l 1022 1042 l 725 215 q 667 81 696 133 q 603 4 639 29 q 511 -21 567 -21 z "},"W":{"ha":1431,"x_min":15,"x_max":1415,"o":"m 400 -21 q 268 31 315 -21 q 197 189 221 82 l 15 1042 l 257 1042 l 413 289 q 417 283 414 283 q 421 289 419 283 l 539 878 q 600 1013 556 963 q 721 1063 644 1063 q 843 1013 799 1063 q 904 878 888 963 l 1022 299 q 1026 293 1024 293 q 1031 299 1029 293 l 1182 1042 l 1415 1042 l 1235 189 q 1165 31 1213 82 q 1032 -21 1117 -21 q 897 33 942 -21 q 832 188 853 88 l 721 733 q 717 739 719 739 q 713 733 714 739 l 600 188 q 535 33 579 88 q 400 -21 490 -21 z "},"X":{"ha":1075,"x_min":46,"x_max":1031,"o":"m 46 0 l 396 533 l 61 1042 l 340 1042 l 554 717 l 760 1042 l 1031 1042 l 685 518 l 1025 0 l 746 0 l 525 335 l 317 0 l 46 0 z "},"Y":{"ha":935,"x_min":-8,"x_max":943,"o":"m 350 0 l 350 425 l -8 1042 l 261 1042 l 469 649 l 675 1042 l 943 1042 l 579 426 l 579 0 l 350 0 z "},"Ý":{"ha":935,"x_min":-8,"x_max":943,"o":"m 350 0 l 350 425 l -8 1042 l 261 1042 l 469 649 l 675 1042 l 943 1042 l 579 426 l 579 0 l 350 0 m 382 1122 l 494 1335 l 738 1335 l 565 1122 l 382 1122 z "},"Ỳ":{"ha":935,"x_min":-8,"x_max":943,"o":"m 350 0 l 350 425 l -8 1042 l 261 1042 l 469 649 l 675 1042 l 943 1042 l 579 426 l 579 0 l 350 0 m 554 1122 l 371 1122 l 199 1335 l 442 1335 l 554 1122 z "},"Z":{"ha":908,"x_min":42,"x_max":857,"o":"m 194 0 q 83 40 124 0 q 42 144 42 79 q 131 343 42 242 l 563 826 q 560 835 569 835 l 81 835 l 81 1042 l 681 1042 q 814 1005 771 1042 q 857 903 857 968 q 842 817 857 856 q 800 747 828 779 l 340 217 q 344 208 335 208 l 832 208 l 832 0 l 194 0 z "},"a":{"ha":910,"x_min":44,"x_max":825,"o":"m 404 -21 q 217 33 299 -21 q 90 183 136 88 q 44 403 44 279 q 89 616 44 524 q 211 760 133 708 q 390 813 289 813 q 528 783 468 813 q 626 700 589 753 l 639 792 l 825 792 l 825 0 l 639 0 l 626 104 q 532 13 590 46 q 404 -21 474 -21 m 444 176 q 568 238 522 176 q 614 403 614 299 q 568 567 614 507 q 444 628 522 628 q 319 567 365 628 q 274 403 274 507 q 319 238 274 299 q 444 176 365 176 z "},"á":{"ha":910,"x_min":44,"x_max":825,"o":"m 404 -21 q 217 33 299 -21 q 90 183 136 88 q 44 403 44 279 q 89 616 44 524 q 211 760 133 708 q 390 813 289 813 q 528 783 468 813 q 626 700 589 753 l 639 792 l 825 792 l 825 0 l 639 0 l 626 104 q 532 13 590 46 q 404 -21 474 -21 m 444 176 q 568 238 522 176 q 614 403 614 299 q 568 567 614 507 q 444 628 522 628 q 319 567 365 628 q 274 403 274 507 q 319 238 274 299 q 444 176 365 176 m 363 875 l 475 1088 l 718 1088 l 546 875 l 363 875 z "},"ă":{"ha":910,"x_min":44,"x_max":825,"o":"m 404 -21 q 217 33 299 -21 q 90 183 136 88 q 44 403 44 279 q 89 616 44 524 q 211 760 133 708 q 390 813 289 813 q 528 783 468 813 q 626 700 589 753 l 639 792 l 825 792 l 825 0 l 639 0 l 626 104 q 532 13 590 46 q 404 -21 474 -21 m 444 176 q 568 238 522 176 q 614 403 614 299 q 568 567 614 507 q 444 628 522 628 q 319 567 365 628 q 274 403 274 507 q 319 238 274 299 q 444 176 365 176 m 449 861 q 274 922 339 861 q 208 1088 208 983 l 376 1088 q 397 1015 376 1043 q 449 986 418 986 q 503 1015 482 986 q 524 1088 524 1043 l 689 1088 q 624 922 689 983 q 449 861 560 861 z "},"â":{"ha":910,"x_min":44,"x_max":825,"o":"m 404 -21 q 217 33 299 -21 q 90 183 136 88 q 44 403 44 279 q 89 616 44 524 q 211 760 133 708 q 390 813 289 813 q 528 783 468 813 q 626 700 589 753 l 639 792 l 825 792 l 825 0 l 639 0 l 626 104 q 532 13 590 46 q 404 -21 474 -21 m 444 176 q 568 238 522 176 q 614 403 614 299 q 568 567 614 507 q 444 628 522 628 q 319 567 365 628 q 274 403 274 507 q 319 238 274 299 q 444 176 365 176 m 189 875 l 250 956 q 303 1024 279 994 q 359 1071 326 1054 q 447 1088 392 1088 q 535 1071 503 1088 q 592 1025 568 1054 q 646 957 617 996 l 708 875 l 535 875 l 449 969 l 361 875 l 189 875 z "},"à":{"ha":910,"x_min":44,"x_max":825,"o":"m 404 -21 q 217 33 299 -21 q 90 183 136 88 q 44 403 44 279 q 89 616 44 524 q 211 760 133 708 q 390 813 289 813 q 528 783 468 813 q 626 700 589 753 l 639 792 l 825 792 l 825 0 l 639 0 l 626 104 q 532 13 590 46 q 404 -21 474 -21 m 444 176 q 568 238 522 176 q 614 403 614 299 q 568 567 614 507 q 444 628 522 628 q 319 567 365 628 q 274 403 274 507 q 319 238 274 299 q 444 176 365 176 m 535 875 l 351 875 l 179 1088 l 422 1088 l 535 875 z "},"ã":{"ha":910,"x_min":44,"x_max":825,"o":"m 404 -21 q 217 33 299 -21 q 90 183 136 88 q 44 403 44 279 q 89 616 44 524 q 211 760 133 708 q 390 813 289 813 q 528 783 468 813 q 626 700 589 753 l 639 792 l 825 792 l 825 0 l 639 0 l 626 104 q 532 13 590 46 q 404 -21 474 -21 m 444 176 q 568 238 522 176 q 614 403 614 299 q 568 567 614 507 q 444 628 522 628 q 319 567 365 628 q 274 403 274 507 q 319 238 274 299 q 444 176 365 176 m 540 868 q 467 888 496 868 q 419 926 439 907 q 379 946 400 946 q 362 939 369 946 q 354 907 354 932 l 354 875 l 208 875 l 208 931 q 251 1056 208 1019 q 358 1092 294 1092 q 433 1073 406 1092 q 478 1035 460 1054 q 517 1017 497 1017 q 535 1024 528 1017 q 542 1053 542 1032 l 542 1081 l 689 1081 l 689 1029 q 646 907 689 946 q 540 868 603 868 z "},"b":{"ha":931,"x_min":85,"x_max":886,"o":"m 85 0 l 85 1042 l 310 1042 l 310 714 q 405 788 349 763 q 526 813 461 813 q 653 789 589 813 q 769 715 717 765 q 854 585 822 664 q 886 393 886 506 q 843 178 886 272 q 722 32 800 85 q 539 -21 644 -21 q 399 15 464 -21 q 293 117 333 50 l 275 0 l 85 0 m 479 176 q 609 238 561 176 q 657 403 657 299 q 609 567 657 507 q 479 628 561 628 q 356 567 401 628 q 310 403 310 507 q 356 238 310 299 q 479 176 401 176 z "},"c":{"ha":808,"x_min":44,"x_max":786,"o":"m 426 -21 q 225 32 311 -21 q 92 178 139 85 q 44 393 44 272 q 92 610 44 515 q 226 758 139 704 q 436 813 314 813 q 615 774 539 813 q 733 663 690 735 q 775 490 775 590 l 560 490 q 525 583 560 547 q 433 618 490 618 q 317 558 361 618 q 274 394 274 497 q 317 233 274 293 q 433 174 360 174 q 531 209 492 174 q 571 296 571 244 l 786 296 q 763 185 786 242 q 693 83 739 129 q 580 8 647 36 q 426 -21 513 -21 z "},"d":{"ha":931,"x_min":44,"x_max":846,"o":"m 418 -21 q 224 33 308 -21 q 92 181 140 86 q 44 400 44 276 q 89 614 44 521 q 213 760 133 707 q 393 813 292 813 q 523 788 464 813 q 621 713 582 763 l 621 1042 l 846 1042 l 846 0 l 656 0 l 639 108 q 418 -21 567 -21 m 451 176 q 575 238 529 176 q 621 403 621 299 q 575 567 621 507 q 451 628 529 628 q 322 567 369 628 q 274 403 274 507 q 322 238 274 299 q 451 176 369 176 z "},"đ":{"ha":932,"x_min":44,"x_max":914,"o":"m 418 -21 q 224 33 308 -21 q 92 181 140 86 q 44 400 44 276 q 89 614 44 521 q 213 760 133 707 q 393 813 292 813 q 523 788 464 813 q 621 713 582 763 l 621 860 l 453 860 l 453 971 l 621 971 l 621 1042 l 846 1042 l 846 971 l 914 971 l 914 860 l 846 860 l 846 0 l 656 0 l 639 108 q 418 -21 567 -21 m 451 176 q 575 238 529 176 q 621 403 621 299 q 575 567 621 507 q 451 628 529 628 q 322 567 369 628 q 274 403 274 507 q 322 238 274 299 q 451 176 369 176 z "},"e":{"ha":854,"x_min":44,"x_max":822,"o":"m 442 -21 q 232 30 321 -21 q 94 174 143 81 q 44 396 44 268 q 93 617 44 524 q 230 761 142 710 q 438 813 318 813 q 648 757 561 813 q 778 596 735 701 q 815 342 822 490 l 271 342 q 329 203 282 253 q 451 153 376 153 q 551 183 513 153 q 600 256 590 213 l 810 256 q 745 108 796 169 q 617 13 694 46 q 442 -21 539 -21 m 439 640 q 326 597 371 640 q 271 479 282 553 l 593 479 q 542 603 588 567 q 439 640 496 640 z "},"é":{"ha":854,"x_min":44,"x_max":822,"o":"m 442 -21 q 232 30 321 -21 q 94 174 143 81 q 44 396 44 268 q 93 617 44 524 q 230 761 142 710 q 438 813 318 813 q 648 757 561 813 q 778 596 735 701 q 815 342 822 490 l 271 342 q 329 203 282 253 q 451 153 376 153 q 551 183 513 153 q 600 256 590 213 l 810 256 q 745 108 796 169 q 617 13 694 46 q 442 -21 539 -21 m 439 640 q 326 597 371 640 q 271 479 282 553 l 593 479 q 542 603 588 567 q 439 640 496 640 m 351 875 l 464 1088 l 707 1088 l 535 875 l 351 875 z "},"ê":{"ha":854,"x_min":44,"x_max":822,"o":"m 442 -21 q 232 30 321 -21 q 94 174 143 81 q 44 396 44 268 q 93 617 44 524 q 230 761 142 710 q 438 813 318 813 q 648 757 561 813 q 778 596 735 701 q 815 342 822 490 l 271 342 q 329 203 282 253 q 451 153 376 153 q 551 183 513 153 q 600 256 590 213 l 810 256 q 745 108 796 169 q 617 13 694 46 q 442 -21 539 -21 m 439 640 q 326 597 371 640 q 271 479 282 553 l 593 479 q 542 603 588 567 q 439 640 496 640 m 178 875 l 239 956 q 292 1024 268 994 q 348 1071 315 1054 q 436 1088 381 1088 q 524 1071 492 1088 q 581 1025 557 1054 q 635 957 606 996 l 697 875 l 524 875 l 438 969 l 350 875 l 178 875 z "},"è":{"ha":854,"x_min":44,"x_max":822,"o":"m 442 -21 q 232 30 321 -21 q 94 174 143 81 q 44 396 44 268 q 93 617 44 524 q 230 761 142 710 q 438 813 318 813 q 648 757 561 813 q 778 596 735 701 q 815 342 822 490 l 271 342 q 329 203 282 253 q 451 153 376 153 q 551 183 513 153 q 600 256 590 213 l 810 256 q 745 108 796 169 q 617 13 694 46 q 442 -21 539 -21 m 439 640 q 326 597 371 640 q 271 479 282 553 l 593 479 q 542 603 588 567 q 439 640 496 640 m 524 875 l 340 875 l 168 1088 l 411 1088 l 524 875 z "},"f":{"ha":606,"x_min":46,"x_max":596,"o":"m 176 0 l 176 611 l 46 611 l 46 792 l 176 792 l 176 854 q 235 1022 176 960 q 392 1083 293 1083 l 596 1083 l 596 889 l 449 889 q 406 874 422 889 q 390 831 390 858 l 390 792 l 563 792 l 563 611 l 390 611 l 390 0 l 176 0 z "},"g":{"ha":889,"x_min":46,"x_max":804,"o":"m 368 65 q 205 111 278 65 q 89 241 132 157 q 46 439 46 325 q 90 634 46 550 q 211 765 135 718 q 382 813 288 813 q 505 785 451 813 q 596 708 558 757 l 606 792 l 804 792 l 804 72 q 756 -106 804 -28 q 620 -227 707 -183 q 415 -271 533 -271 q 247 -235 325 -271 q 122 -133 169 -199 q 71 18 74 -68 l 267 18 q 319 -65 283 -39 q 415 -90 356 -90 q 535 -48 489 -90 q 581 72 581 -6 l 581 169 q 499 94 550 124 q 368 65 447 65 m 424 242 q 539 292 497 242 q 581 426 581 343 q 539 564 581 508 q 424 619 497 619 q 313 565 351 619 q 275 426 275 511 q 313 292 275 343 q 424 242 350 242 z "},"h":{"ha":893,"x_min":85,"x_max":813,"o":"m 85 0 l 85 1042 l 310 1042 l 310 700 q 401 783 347 754 q 522 813 456 813 q 676 775 611 813 q 777 671 742 738 q 813 517 813 604 l 813 0 l 588 0 l 588 471 q 551 579 588 539 q 450 619 514 619 q 347 573 385 619 q 310 450 310 526 l 310 0 l 85 0 z "},"i":{"ha":383,"x_min":64,"x_max":318,"o":"m 192 878 q 101 910 138 878 q 64 993 64 942 q 101 1075 64 1043 q 192 1107 138 1107 q 281 1075 244 1107 q 318 993 318 1043 q 281 910 318 942 q 192 878 244 878 m 79 0 l 79 792 l 304 792 l 304 0 l 79 0 z "},"í":{"ha":383,"x_min":85,"x_max":461,"o":"m 85 0 l 85 792 l 310 792 l 310 0 l 85 0 m 106 875 l 218 1088 l 461 1088 l 289 875 l 106 875 z "},"ì":{"ha":383,"x_min":-78,"x_max":310,"o":"m 85 0 l 85 792 l 310 792 l 310 0 l 85 0 m 278 875 l 94 875 l -78 1088 l 165 1088 l 278 875 z "},"ĩ":{"ha":383,"x_min":-49,"x_max":432,"o":"m 85 0 l 85 792 l 310 792 l 310 0 l 85 0 m 283 868 q 210 888 239 868 q 163 926 182 907 q 122 946 143 946 q 105 939 113 946 q 97 907 97 932 l 97 875 l -49 875 l -49 931 q -6 1056 -49 1019 q 101 1092 38 1092 q 176 1073 149 1092 q 222 1035 203 1054 q 260 1017 240 1017 q 278 1024 271 1017 q 285 1053 285 1032 l 285 1081 l 432 1081 l 432 1029 q 389 907 432 946 q 283 868 346 868 z "},"j":{"ha":485,"x_min":64,"x_max":419,"o":"m 293 878 q 202 910 239 878 q 165 993 165 942 q 202 1075 165 1043 q 293 1107 239 1107 q 383 1075 346 1107 q 419 993 419 1043 q 383 910 419 942 q 293 878 346 878 m 64 -250 l 64 -56 l 126 -56 q 168 -40 156 -56 q 181 0 181 -24 l 181 792 l 406 792 l 406 0 q 339 -190 406 -129 q 126 -250 272 -250 l 64 -250 z "},"k":{"ha":840,"x_min":85,"x_max":832,"o":"m 85 0 l 85 1042 l 310 1042 l 310 501 l 540 792 l 814 792 l 564 494 l 832 0 l 576 0 l 418 319 l 310 192 l 310 0 l 85 0 z "},"l":{"ha":496,"x_min":85,"x_max":411,"o":"m 300 0 q 144 59 203 0 q 85 215 85 118 l 85 1042 l 310 1042 l 310 254 q 326 211 310 228 q 368 194 343 194 l 411 194 l 411 0 l 300 0 z "},"m":{"ha":1372,"x_min":76,"x_max":1296,"o":"m 76 0 l 76 472 q 119 653 76 575 q 236 775 161 731 q 408 819 311 819 q 569 783 496 819 q 689 683 643 747 q 809 783 736 747 q 968 819 882 819 q 1139 775 1065 819 q 1254 653 1213 731 q 1296 472 1296 575 l 1296 0 l 1069 0 l 1069 472 q 1033 576 1069 536 q 936 617 997 617 q 838 576 876 617 q 800 472 800 536 l 800 0 l 575 0 l 575 472 q 537 576 575 536 q 438 617 499 617 q 340 576 378 617 q 301 472 301 536 l 301 0 l 76 0 z "},"n":{"ha":869,"x_min":76,"x_max":793,"o":"m 76 0 l 76 465 q 120 650 76 572 q 244 770 164 728 q 435 813 325 813 q 625 770 544 813 q 749 650 706 728 q 793 465 793 572 l 793 0 l 568 0 l 568 463 q 531 578 568 538 q 435 618 494 618 q 339 578 376 618 q 301 463 301 538 l 301 0 l 76 0 z "},"o":{"ha":900,"x_min":44,"x_max":856,"o":"m 450 -21 q 240 32 332 -21 q 97 178 149 85 q 44 393 44 272 q 97 611 44 517 q 240 759 149 706 q 450 813 332 813 q 660 759 569 813 q 803 611 751 706 q 856 393 856 517 q 803 178 856 272 q 660 32 751 85 q 450 -21 569 -21 m 450 174 q 577 235 528 174 q 626 393 626 296 q 577 556 626 493 q 450 618 528 618 q 323 556 372 618 q 274 393 274 493 q 323 235 274 296 q 450 174 372 174 z "},"ó":{"ha":900,"x_min":44,"x_max":856,"o":"m 450 -21 q 240 32 332 -21 q 97 178 149 85 q 44 393 44 272 q 97 611 44 517 q 240 759 149 706 q 450 813 332 813 q 660 759 569 813 q 803 611 751 706 q 856 393 856 517 q 803 178 856 272 q 660 32 751 85 q 450 -21 569 -21 m 450 174 q 577 235 528 174 q 626 393 626 296 q 577 556 626 493 q 450 618 528 618 q 323 556 372 618 q 274 393 274 493 q 323 235 274 296 q 450 174 372 174 m 364 875 l 476 1088 l 719 1088 l 547 875 l 364 875 z "},"ô":{"ha":900,"x_min":44,"x_max":856,"o":"m 450 -21 q 240 32 332 -21 q 97 178 149 85 q 44 393 44 272 q 97 611 44 517 q 240 759 149 706 q 450 813 332 813 q 660 759 569 813 q 803 611 751 706 q 856 393 856 517 q 803 178 856 272 q 660 32 751 85 q 450 -21 569 -21 m 450 174 q 577 235 528 174 q 626 393 626 296 q 577 556 626 493 q 450 618 528 618 q 323 556 372 618 q 274 393 274 493 q 323 235 274 296 q 450 174 372 174 m 190 875 l 251 956 q 304 1024 281 994 q 360 1071 328 1054 q 449 1088 393 1088 q 537 1071 504 1088 q 594 1025 569 1054 q 647 957 618 996 l 710 875 l 536 875 l 450 969 l 363 875 l 190 875 z "},"ò":{"ha":900,"x_min":44,"x_max":856,"o":"m 450 -21 q 240 32 332 -21 q 97 178 149 85 q 44 393 44 272 q 97 611 44 517 q 240 759 149 706 q 450 813 332 813 q 660 759 569 813 q 803 611 751 706 q 856 393 856 517 q 803 178 856 272 q 660 32 751 85 q 450 -21 569 -21 m 450 174 q 577 235 528 174 q 626 393 626 296 q 577 556 626 493 q 450 618 528 618 q 323 556 372 618 q 274 393 274 493 q 323 235 274 296 q 450 174 372 174 m 536 875 l 353 875 l 181 1088 l 424 1088 l 536 875 z "},"ơ":{"ha":904,"x_min":44,"x_max":907,"o":"m 450 -21 q 240 32 332 -21 q 97 178 149 85 q 44 393 44 272 q 97 611 44 517 q 240 759 149 706 q 450 813 332 813 q 528 807 499 813 q 583 795 557 801 q 643 783 608 789 q 722 907 738 769 l 897 907 q 870 756 907 818 q 761 674 833 694 q 831 548 806 619 q 856 393 856 476 q 803 178 856 272 q 660 32 751 85 q 450 -21 569 -21 m 450 174 q 577 235 528 174 q 626 393 626 296 q 577 556 626 493 q 450 618 528 618 q 323 556 372 618 q 274 393 274 493 q 323 235 274 296 q 450 174 372 174 z "},"õ":{"ha":900,"x_min":44,"x_max":856,"o":"m 450 -21 q 240 32 332 -21 q 97 178 149 85 q 44 393 44 272 q 97 611 44 517 q 240 759 149 706 q 450 813 332 813 q 660 759 569 813 q 803 611 751 706 q 856 393 856 517 q 803 178 856 272 q 660 32 751 85 q 450 -21 569 -21 m 450 174 q 577 235 528 174 q 626 393 626 296 q 577 556 626 493 q 450 618 528 618 q 323 556 372 618 q 274 393 274 493 q 323 235 274 296 q 450 174 372 174 m 542 868 q 469 888 497 868 q 421 926 440 907 q 381 946 401 946 q 363 939 371 946 q 356 907 356 932 l 356 875 l 210 875 l 210 931 q 253 1056 210 1019 q 360 1092 296 1092 q 434 1073 407 1092 q 480 1035 461 1054 q 518 1017 499 1017 q 536 1024 529 1017 q 543 1053 543 1032 l 543 1081 l 690 1081 l 690 1029 q 647 907 690 946 q 542 868 604 868 z "},"p":{"ha":931,"x_min":85,"x_max":886,"o":"m 85 -250 l 85 792 l 275 792 l 293 675 q 399 777 333 742 q 539 813 464 813 q 722 760 644 813 q 843 614 800 707 q 886 399 886 521 q 854 207 886 286 q 769 77 822 128 q 653 3 717 26 q 526 -21 589 -21 q 405 4 461 -21 q 310 78 349 29 l 310 -250 l 85 -250 m 479 164 q 609 224 561 164 q 657 389 657 285 q 609 554 657 493 q 479 615 561 615 q 356 554 401 615 q 310 389 310 493 q 356 224 310 285 q 479 164 401 164 z "},"q":{"ha":931,"x_min":44,"x_max":846,"o":"m 393 -21 q 213 32 292 -21 q 89 178 133 85 q 44 392 44 271 q 92 610 44 515 q 224 759 140 706 q 418 813 308 813 q 639 683 567 813 l 656 792 l 846 792 l 846 -250 l 621 -250 l 621 79 q 523 4 582 29 q 393 -21 464 -21 m 451 164 q 575 224 529 164 q 621 389 621 285 q 575 554 621 493 q 451 615 529 615 q 322 554 369 615 q 274 389 274 493 q 322 224 274 285 q 451 164 369 164 z "},"r":{"ha":603,"x_min":85,"x_max":576,"o":"m 85 0 l 85 458 q 177 721 85 629 q 442 813 269 813 q 499 810 460 813 q 576 800 538 808 l 576 607 q 526 615 550 611 q 474 618 503 618 q 393 606 431 618 q 333 558 356 593 q 310 457 310 524 l 310 0 l 85 0 z "},"s":{"ha":729,"x_min":22,"x_max":689,"o":"m 365 -21 q 114 53 206 -21 q 22 257 22 128 l 221 257 q 269 169 232 197 q 363 142 307 142 q 443 161 411 142 q 475 217 475 181 q 451 258 475 244 q 360 289 426 272 q 277 309 313 300 q 201 332 242 318 q 115 372 154 349 q 51 437 75 396 q 26 544 26 478 q 56 671 26 619 q 133 753 85 722 q 240 799 182 785 q 353 813 297 813 q 518 780 446 813 q 632 690 590 747 q 674 556 674 632 l 463 556 q 426 625 463 597 q 339 653 389 653 q 269 636 304 653 q 235 582 235 619 q 257 540 235 557 q 343 504 279 522 q 399 490 367 499 q 464 474 432 482 q 517 460 496 467 q 648 379 607 433 q 689 243 689 325 q 603 49 689 118 q 365 -21 518 -21 z "},"t":{"ha":603,"x_min":46,"x_max":586,"o":"m 392 0 q 235 59 294 0 q 176 215 176 118 l 176 611 l 46 611 l 46 792 l 176 792 l 176 1000 l 401 1000 l 401 792 l 563 792 l 563 611 l 401 611 l 401 254 q 418 211 401 228 q 460 194 435 194 l 586 194 l 586 0 l 392 0 z "},"u":{"ha":869,"x_min":76,"x_max":793,"o":"m 435 -21 q 249 24 331 -21 q 122 147 168 68 q 76 326 76 225 l 76 792 l 301 792 l 301 318 q 339 214 301 254 q 435 174 376 174 q 531 214 493 174 q 568 318 568 254 l 568 792 l 793 792 l 793 326 q 747 147 793 225 q 621 24 701 68 q 435 -21 540 -21 z "},"ú":{"ha":869,"x_min":76,"x_max":793,"o":"m 435 -21 q 249 24 331 -21 q 122 147 168 68 q 76 326 76 225 l 76 792 l 301 792 l 301 318 q 339 214 301 254 q 435 174 376 174 q 531 214 493 174 q 568 318 568 254 l 568 792 l 793 792 l 793 326 q 747 147 793 225 q 621 24 701 68 q 435 -21 540 -21 m 353 875 l 465 1088 l 708 1088 l 536 875 l 353 875 z "},"ù":{"ha":869,"x_min":76,"x_max":793,"o":"m 435 -21 q 249 24 331 -21 q 122 147 168 68 q 76 326 76 225 l 76 792 l 301 792 l 301 318 q 339 214 301 254 q 435 174 376 174 q 531 214 493 174 q 568 318 568 254 l 568 792 l 793 792 l 793 326 q 747 147 793 225 q 621 24 701 68 q 435 -21 540 -21 m 525 875 l 342 875 l 169 1088 l 413 1088 l 525 875 z "},"ư":{"ha":869,"x_min":76,"x_max":943,"o":"m 435 -21 q 249 24 331 -21 q 122 147 168 68 q 76 326 76 225 l 76 792 l 301 792 l 301 318 q 339 214 301 254 q 435 174 376 174 q 531 214 493 174 q 568 318 568 254 l 568 792 l 644 792 q 738 824 711 792 q 758 942 764 857 l 936 942 q 906 788 943 853 q 793 692 868 722 l 793 326 q 747 147 793 225 q 621 24 701 68 q 435 -21 540 -21 z "},"ũ":{"ha":869,"x_min":76,"x_max":793,"o":"m 435 -21 q 249 24 331 -21 q 122 147 168 68 q 76 326 76 225 l 76 792 l 301 792 l 301 318 q 339 214 301 254 q 435 174 376 174 q 531 214 493 174 q 568 318 568 254 l 568 792 l 793 792 l 793 326 q 747 147 793 225 q 621 24 701 68 q 435 -21 540 -21 m 531 868 q 458 888 486 868 q 410 926 429 907 q 369 946 390 946 q 352 939 360 946 q 344 907 344 932 l 344 875 l 199 875 l 199 931 q 242 1056 199 1019 q 349 1092 285 1092 q 423 1073 396 1092 q 469 1035 450 1054 q 507 1017 488 1017 q 525 1024 518 1017 q 532 1053 532 1032 l 532 1081 l 679 1081 l 679 1029 q 636 907 679 946 q 531 868 593 868 z "},"v":{"ha":804,"x_min":4,"x_max":800,"o":"m 407 -21 q 304 24 344 -21 q 224 182 264 68 l 4 792 l 236 792 l 407 267 l 574 792 l 800 792 l 588 185 q 508 24 547 69 q 407 -21 468 -21 z "},"w":{"ha":1200,"x_min":6,"x_max":1194,"o":"m 356 -21 q 261 15 296 -21 q 199 142 226 50 l 6 792 l 236 792 l 364 276 l 465 671 q 516 781 485 749 q 601 813 547 813 q 685 781 654 813 q 736 671 717 749 l 840 272 l 972 792 l 1194 792 l 1004 142 q 944 15 978 50 q 849 -21 910 -21 q 751 15 785 -21 q 690 140 717 50 l 600 457 l 510 140 q 450 15 483 50 q 356 -21 417 -21 z "},"x":{"ha":836,"x_min":13,"x_max":822,"o":"m 39 0 l 296 390 l 13 792 l 269 792 l 432 556 l 581 792 l 822 792 l 551 383 l 815 0 l 571 0 l 415 221 l 276 0 l 39 0 z "},"y":{"ha":828,"x_min":4,"x_max":824,"o":"m 176 -250 l 297 57 l 4 792 l 240 792 l 415 353 l 589 792 l 824 792 l 411 -250 l 176 -250 z "},"ý":{"ha":828,"x_min":4,"x_max":824,"o":"m 176 -250 l 297 57 l 4 792 l 240 792 l 415 353 l 589 792 l 824 792 l 411 -250 l 176 -250 m 325 875 l 438 1088 l 681 1088 l 508 875 l 325 875 z "},"ỳ":{"ha":828,"x_min":4,"x_max":824,"o":"m 176 -250 l 297 57 l 4 792 l 240 792 l 415 353 l 589 792 l 824 792 l 411 -250 l 176 -250 m 497 875 l 314 875 l 142 1088 l 385 1088 l 497 875 z "},"z":{"ha":713,"x_min":18,"x_max":686,"o":"m 161 0 q 57 33 90 0 q 24 115 24 67 q 43 199 24 154 q 101 282 63 243 l 411 606 l 18 606 l 18 792 l 539 792 q 651 758 617 792 q 686 679 686 725 q 626 542 686 608 l 297 186 l 678 186 l 678 0 l 161 0 z "},".":{"ha":379,"x_min":49,"x_max":331,"o":"m 190 -21 q 89 17 129 -21 q 49 115 49 56 q 89 212 49 174 q 190 250 129 250 q 291 212 251 250 q 331 115 331 174 q 291 17 331 56 q 190 -21 251 -21 z "},",":{"ha":383,"x_min":43,"x_max":326,"o":"m 56 -200 q 117 -107 90 -153 q 161 -17 143 -61 q 43 114 43 4 q 82 213 43 175 q 183 250 121 250 q 288 208 249 250 q 326 94 326 167 q 292 -36 326 43 q 200 -200 258 -115 l 56 -200 z "},":":{"ha":424,"x_min":71,"x_max":353,"o":"m 213 542 q 111 580 151 542 q 71 678 71 618 q 111 774 71 736 q 213 813 151 813 q 313 774 274 813 q 353 678 353 736 q 313 580 353 618 q 213 542 274 542 m 213 -21 q 111 17 151 -21 q 71 115 71 56 q 111 212 71 174 q 213 250 151 250 q 313 212 274 250 q 353 115 353 174 q 313 17 353 56 q 213 -21 274 -21 z "},";":{"ha":408,"x_min":54,"x_max":346,"o":"m 206 542 q 104 580 144 542 q 64 678 64 618 q 104 774 64 736 q 206 813 144 813 q 306 774 267 813 q 346 678 346 736 q 306 580 346 618 q 206 542 267 542 m 67 -200 q 128 -107 101 -153 q 172 -17 154 -61 q 54 114 54 4 q 93 213 54 175 q 194 250 132 250 q 299 208 260 250 q 338 94 338 167 q 303 -36 338 43 q 211 -200 269 -115 l 67 -200 z "},"…":{"ha":1135,"x_min":76,"x_max":1058,"o":"m 218 -21 q 117 17 157 -21 q 76 115 76 56 q 117 212 76 174 q 218 250 157 250 q 319 212 279 250 q 358 115 358 174 q 319 17 358 56 q 218 -21 279 -21 m 568 -21 q 467 17 507 -21 q 426 115 426 56 q 467 212 426 174 q 568 250 507 250 q 669 212 629 250 q 708 115 708 174 q 669 17 708 56 q 568 -21 629 -21 m 918 -21 q 817 17 857 -21 q 776 115 776 56 q 817 212 776 174 q 918 250 857 250 q 1019 212 979 250 q 1058 115 1058 174 q 1019 17 1058 56 q 918 -21 979 -21 z "},"!":{"ha":467,"x_min":106,"x_max":360,"o":"m 147 347 l 119 1042 l 344 1042 l 317 347 l 147 347 m 233 -10 q 142 25 178 -10 q 106 114 106 60 q 142 201 106 167 q 233 236 178 236 q 324 201 289 236 q 360 114 360 167 q 324 25 360 60 q 233 -10 289 -10 z "},"¡":{"ha":467,"x_min":107,"x_max":361,"o":"m 233 801 q 325 767 289 801 q 361 678 361 732 q 325 591 361 626 q 233 556 289 556 q 142 591 178 556 q 107 678 107 626 q 142 767 107 732 q 233 801 178 801 m 319 444 l 347 -250 l 122 -250 l 150 444 l 319 444 z "},"?":{"ha":760,"x_min":61,"x_max":708,"o":"m 258 347 q 297 518 258 453 q 383 629 336 583 q 445 688 415 661 q 494 744 475 715 q 514 808 514 772 q 481 878 514 854 q 394 903 449 903 q 294 867 329 903 q 258 764 258 831 l 61 764 q 151 982 61 901 q 393 1063 240 1063 q 558 1031 488 1063 q 669 943 629 1000 q 708 808 708 886 q 687 707 708 749 q 632 633 665 665 q 564 571 599 601 q 482 481 518 531 q 446 347 446 431 l 258 347 m 353 -10 q 261 25 297 -10 q 225 114 225 60 q 261 201 225 167 q 353 236 297 236 q 444 201 408 236 q 479 114 479 167 q 444 25 479 60 q 353 -10 408 -10 z "},"¿":{"ha":760,"x_min":51,"x_max":699,"o":"m 407 801 q 499 767 463 801 q 535 678 535 732 q 499 591 535 626 q 407 556 463 556 q 316 591 351 556 q 281 678 281 626 q 316 767 281 732 q 407 801 351 801 m 501 444 q 463 274 501 339 q 376 163 425 208 q 315 104 344 132 q 265 48 285 76 q 246 -17 246 19 q 278 -87 246 -62 q 365 -111 311 -111 q 466 -75 431 -111 q 501 28 501 -39 l 699 28 q 609 -190 699 -110 q 367 -271 519 -271 q 201 -240 272 -271 q 91 -151 131 -208 q 51 -17 51 -94 q 73 85 51 44 q 128 158 94 126 q 196 221 161 190 q 278 311 242 261 q 314 444 314 361 l 501 444 z "},"·":{"ha":379,"x_min":71,"x_max":308,"o":"m 190 311 q 105 344 139 311 q 71 425 71 376 q 105 506 71 474 q 190 539 139 539 q 275 506 242 539 q 308 425 308 474 q 275 344 308 376 q 190 311 242 311 z "},"•":{"ha":819,"x_min":126,"x_max":694,"o":"m 411 172 q 266 210 331 172 q 164 312 201 247 q 126 457 126 376 q 164 601 126 538 q 266 702 201 665 q 411 739 331 739 q 557 702 493 739 q 658 601 621 665 q 694 457 694 538 q 658 312 694 376 q 557 210 621 247 q 411 172 493 172 z "},"*":{"ha":850,"x_min":103,"x_max":747,"o":"m 317 408 l 169 518 l 300 681 l 103 732 l 160 910 l 349 835 l 333 1042 l 518 1042 l 504 833 l 690 910 l 747 733 l 554 681 l 681 521 l 533 410 l 426 589 l 317 408 z "},"#":{"ha":1122,"x_min":61,"x_max":1061,"o":"m 106 0 l 185 246 l 61 246 l 61 419 l 242 419 l 306 618 l 153 618 l 153 792 l 361 792 l 442 1039 l 638 1039 l 557 792 l 722 792 l 803 1039 l 999 1039 l 918 792 l 1061 792 l 1061 618 l 863 618 l 797 419 l 969 419 l 969 246 l 742 246 l 661 0 l 467 0 l 546 246 l 381 246 l 300 0 l 106 0 m 436 419 l 603 419 l 667 618 l 501 618 l 436 419 z "},"/":{"ha":561,"x_min":8,"x_max":554,"o":"m 8 0 l 344 1039 l 554 1039 l 217 0 l 8 0 z "},"\\":{"ha":561,"x_min":7,"x_max":553,"o":"m 553 0 l 344 0 l 7 1039 l 217 1039 l 553 0 z "},"-":{"ha":633,"x_min":103,"x_max":531,"o":"m 103 304 l 103 510 l 531 510 l 531 304 l 103 304 z "},"–":{"ha":1075,"x_min":103,"x_max":972,"o":"m 103 311 l 103 517 l 972 517 l 972 311 l 103 311 z "},"—":{"ha":1350,"x_min":103,"x_max":1247,"o":"m 103 311 l 103 517 l 1247 517 l 1247 311 l 103 311 z "},"_":{"ha":1075,"x_min":103,"x_max":972,"o":"m 103 -219 l 103 -42 l 972 -42 l 972 -219 l 103 -219 z "},"(":{"ha":521,"x_min":64,"x_max":563,"o":"m 332 -244 q 134 70 204 -108 q 64 440 64 249 q 134 811 64 632 q 332 1125 204 990 l 563 1125 q 342 799 411 961 q 272 440 272 636 q 342 83 272 246 q 563 -244 411 -81 l 332 -244 z "},")":{"ha":521,"x_min":-42,"x_max":457,"o":"m 189 -244 l -42 -244 q 180 83 111 -81 q 249 440 249 246 q 180 799 249 636 q -42 1125 111 961 l 189 1125 q 387 811 317 990 q 457 440 457 632 q 387 70 457 249 q 189 -244 317 -108 z "},"{":{"ha":714,"x_min":103,"x_max":611,"o":"m 500 -244 q 325 -178 390 -244 q 260 1 260 -112 l 260 204 q 219 298 260 263 q 103 339 178 333 l 103 526 q 219 569 178 533 q 260 660 260 604 l 260 864 q 325 1044 260 978 q 500 1110 390 1110 l 611 1110 l 611 931 l 553 931 q 463 831 463 931 l 463 639 q 426 513 463 567 q 325 432 390 458 q 426 354 390 408 q 463 226 463 300 l 463 35 q 553 -67 463 -67 l 611 -67 l 611 -244 l 500 -244 z "},"}":{"ha":714,"x_min":103,"x_max":611,"o":"m 214 -244 l 103 -244 l 103 -67 l 161 -67 q 251 35 251 -67 l 251 226 q 288 354 251 300 q 389 432 324 408 q 288 513 324 458 q 251 639 251 567 l 251 831 q 161 931 251 931 l 103 931 l 103 1110 l 214 1110 q 390 1044 325 1110 q 454 864 454 978 l 454 660 q 495 569 454 604 q 611 526 536 533 l 611 339 q 495 298 536 333 q 454 204 454 263 l 454 1 q 390 -178 454 -112 q 214 -244 325 -244 z "},"[":{"ha":572,"x_min":103,"x_max":469,"o":"m 103 -244 l 103 1117 l 469 1117 l 469 939 l 304 939 l 304 -67 l 469 -67 l 469 -244 l 103 -244 z "},"]":{"ha":572,"x_min":103,"x_max":469,"o":"m 469 -244 l 103 -244 l 103 -67 l 268 -67 l 268 939 l 103 939 l 103 1117 l 469 1117 l 469 -244 z "},"‚":{"ha":397,"x_min":43,"x_max":326,"o":"m 56 -200 q 117 -107 90 -153 q 161 -17 143 -61 q 43 114 43 4 q 82 213 43 175 q 183 250 121 250 q 288 208 249 250 q 326 94 326 167 q 292 -36 326 43 q 200 -200 258 -115 l 56 -200 z "},"„":{"ha":788,"x_min":103,"x_max":685,"o":"m 115 -200 q 176 -107 150 -153 q 221 -17 203 -61 q 103 114 103 4 q 142 213 103 175 q 243 250 181 250 q 347 208 308 250 q 386 94 386 167 q 352 -36 386 43 q 260 -200 318 -115 l 115 -200 m 414 -200 q 475 -107 449 -153 q 519 -17 501 -61 q 401 114 401 4 q 440 213 401 175 q 542 250 479 250 q 646 208 607 250 q 685 94 685 167 q 651 -36 685 43 q 558 -200 617 -115 l 414 -200 z "},"“":{"ha":763,"x_min":103,"x_max":660,"o":"m 353 1042 q 298 956 322 999 q 256 872 274 914 q 364 751 364 853 q 328 661 364 696 q 235 626 293 626 q 139 665 175 626 q 103 769 103 704 q 135 890 103 817 q 219 1042 167 964 l 353 1042 m 649 1042 q 594 956 618 999 q 551 872 569 914 q 660 751 660 853 q 624 661 660 696 q 531 626 589 626 q 435 665 471 626 q 399 769 399 704 q 431 890 399 817 q 515 1042 463 964 l 649 1042 z "},"”":{"ha":763,"x_min":103,"x_max":660,"o":"m 410 640 q 465 726 440 683 q 507 810 489 768 q 399 931 399 829 q 434 1021 399 986 q 528 1056 469 1056 q 624 1017 588 1056 q 660 913 660 978 q 628 792 660 865 q 543 640 596 718 l 410 640 m 114 640 q 169 726 144 683 q 211 810 193 768 q 103 931 103 829 q 138 1021 103 986 q 232 1056 174 1056 q 328 1017 292 1056 q 364 913 364 978 q 332 792 364 865 q 247 640 300 718 l 114 640 z "},"‘":{"ha":467,"x_min":103,"x_max":364,"o":"m 353 1015 q 298 930 322 972 q 256 846 274 888 q 364 725 364 826 q 328 635 364 669 q 235 600 293 600 q 139 639 175 600 q 103 743 103 678 q 135 864 103 790 q 219 1015 167 938 l 353 1015 z "},"’":{"ha":467,"x_min":103,"x_max":364,"o":"m 114 640 q 169 726 144 683 q 211 810 193 768 q 103 931 103 829 q 138 1021 103 986 q 232 1056 174 1056 q 328 1017 292 1056 q 364 913 364 978 q 332 792 364 865 q 247 640 300 718 l 114 640 z "},"‹":{"ha":633,"x_min":103,"x_max":531,"o":"m 531 64 l 328 64 l 103 414 l 328 768 l 531 768 l 321 415 l 531 64 z "},"›":{"ha":633,"x_min":103,"x_max":531,"o":"m 103 64 l 313 415 l 103 768 l 306 768 l 531 414 l 306 64 l 103 64 z "},"\"":{"ha":642,"x_min":78,"x_max":564,"o":"m 372 638 l 353 1042 l 564 1042 l 543 638 l 372 638 m 97 638 l 78 1042 l 289 1042 l 268 638 l 97 638 z "},"'":{"ha":367,"x_min":78,"x_max":289,"o":"m 97 638 l 78 1042 l 289 1042 l 268 638 l 97 638 z "},"@":{"ha":1367,"x_min":83,"x_max":1282,"o":"m 628 86 q 489 126 550 86 q 393 239 428 167 q 358 404 358 311 q 392 563 358 493 q 483 672 425 632 q 617 711 542 711 q 717 690 674 711 q 788 632 761 668 l 797 696 l 956 696 l 956 363 q 974 278 956 310 q 1026 247 992 247 q 1102 300 1074 247 q 1131 447 1131 353 q 1074 659 1131 568 q 916 801 1017 750 q 682 851 815 851 q 449 795 550 851 q 290 638 347 739 q 233 406 233 538 q 353 75 233 196 q 697 -46 472 -46 l 1007 -46 l 1007 -194 l 697 -194 q 372 -119 510 -194 q 158 92 233 -43 q 83 407 83 228 q 128 641 83 533 q 256 829 174 749 q 447 955 338 910 q 683 1000 556 1000 q 919 958 811 1000 q 1110 841 1028 917 q 1237 665 1192 765 q 1282 446 1282 564 q 1247 269 1282 346 q 1149 149 1211 192 q 1010 106 1088 106 q 889 137 943 106 q 811 222 835 168 q 742 124 790 161 q 628 86 693 86 m 664 253 q 747 294 717 253 q 776 404 776 335 q 747 515 776 475 q 664 554 717 554 q 583 514 613 554 q 554 404 554 474 q 583 294 554 336 q 664 253 613 253 z "},"&":{"ha":1119,"x_min":54,"x_max":1068,"o":"m 388 -21 q 228 17 304 -21 q 103 126 151 56 q 54 296 54 197 q 109 463 54 386 q 257 583 164 540 q 206 688 222 638 q 190 786 190 739 q 229 928 190 867 q 338 1026 268 990 q 497 1063 407 1063 q 650 1030 586 1063 q 751 942 714 997 q 793 821 788 888 l 597 821 q 497 901 569 901 q 421 867 449 901 q 393 788 393 833 q 410 713 393 749 q 465 636 426 676 l 726 361 q 760 457 749 404 q 775 592 771 510 l 956 592 q 928 399 956 489 q 849 232 900 308 l 1068 0 l 797 0 l 713 92 q 388 -21 574 -21 m 426 147 q 600 210 528 147 l 354 469 q 293 397 311 436 q 275 313 275 358 q 317 192 275 236 q 426 147 360 147 z "},"¶":{"ha":1018,"x_min":42,"x_max":833,"o":"m 436 -250 l 436 364 l 389 364 q 208 407 286 364 q 85 526 129 450 q 42 703 42 603 q 85 880 42 804 q 208 999 129 956 q 389 1042 286 1042 l 622 1042 l 622 -250 l 436 -250 m 719 -250 l 719 1042 l 833 1042 l 833 -250 l 719 -250 z "},"©":{"ha":1118,"x_min":64,"x_max":1054,"o":"m 561 11 q 302 76 414 11 q 127 255 190 140 q 64 519 64 369 q 127 785 64 671 q 302 963 190 899 q 561 1028 414 1028 q 818 963 707 1028 q 992 785 929 899 q 1054 519 1054 671 q 992 255 1054 369 q 818 76 929 140 q 561 11 707 11 m 561 94 q 775 149 683 94 q 919 299 867 203 q 971 519 971 394 q 919 741 971 646 q 775 890 867 836 q 561 944 683 944 q 345 890 439 944 q 199 741 251 836 q 147 519 147 646 q 199 299 147 394 q 345 149 251 203 q 561 94 439 94 m 568 182 q 405 225 475 182 q 297 344 335 268 q 258 517 258 419 q 297 693 258 617 q 406 813 335 769 q 576 857 476 857 q 775 787 700 857 q 850 596 850 717 l 676 596 q 648 671 676 642 q 574 700 619 700 q 479 651 514 700 q 444 518 444 601 q 479 388 444 436 q 574 339 514 339 q 653 367 621 339 q 685 439 685 396 l 860 439 q 826 320 860 379 q 726 222 792 261 q 568 182 661 182 z "},"®":{"ha":732,"x_min":99,"x_max":688,"o":"m 394 413 q 240 453 307 413 q 136 566 174 493 q 99 733 99 639 q 136 901 99 829 q 240 1015 174 974 q 394 1056 307 1056 q 548 1015 482 1056 q 651 901 614 974 q 688 733 688 829 q 651 566 688 639 q 548 453 614 493 q 394 413 482 413 m 394 464 q 521 498 467 464 q 606 593 575 532 q 636 733 636 654 q 606 875 636 814 q 521 970 575 936 q 394 1004 467 1004 q 267 970 322 1004 q 181 875 213 936 q 150 733 150 814 q 181 593 150 654 q 267 498 213 532 q 394 464 322 464 m 264 556 l 264 921 l 408 921 q 513 893 476 921 q 550 814 550 865 q 488 728 550 753 q 533 695 521 717 q 544 642 544 674 l 544 556 l 461 556 l 461 633 q 408 689 461 689 l 349 689 l 349 556 l 264 556 m 349 760 l 408 760 q 463 806 463 760 q 408 847 463 847 l 349 847 l 349 760 z "},"°":{"ha":697,"x_min":71,"x_max":626,"o":"m 349 493 q 207 530 269 493 q 108 629 144 567 q 71 772 71 692 q 108 916 71 853 q 207 1016 144 979 q 349 1053 269 1053 q 490 1016 428 1053 q 590 916 553 979 q 626 772 626 853 q 590 629 626 692 q 490 530 553 567 q 349 493 428 493 m 349 644 q 425 680 396 644 q 454 772 454 715 q 425 865 454 829 q 349 900 396 900 q 272 865 301 900 q 243 772 243 829 q 272 680 243 715 q 349 644 301 644 z "},"|":{"ha":369,"x_min":103,"x_max":267,"o":"m 103 -247 l 103 1125 l 267 1125 l 267 -247 l 103 -247 z "},"¦":{"ha":369,"x_min":103,"x_max":267,"o":"m 103 567 l 103 1125 l 267 1125 l 267 567 l 103 567 m 103 -247 l 103 300 l 267 300 l 267 -247 l 103 -247 z "},"¢":{"ha":808,"x_min":44,"x_max":786,"o":"m 326 -182 l 326 -10 q 176 69 240 13 q 78 208 113 125 q 44 393 44 290 q 119 656 44 547 q 326 800 193 765 l 326 949 l 507 949 l 507 807 q 703 704 631 788 q 775 490 775 621 l 560 490 q 525 583 560 547 q 433 618 490 618 q 317 558 361 618 q 274 394 274 497 q 317 233 274 293 q 433 174 360 174 q 531 209 492 174 q 571 296 571 244 l 786 296 q 753 167 786 232 q 659 53 721 103 q 507 -14 597 4 l 507 -182 l 326 -182 z "},"$":{"ha":960,"x_min":51,"x_max":899,"o":"m 394 -196 l 394 -14 q 218 45 296 0 q 96 164 140 90 q 51 339 51 238 l 299 339 q 357 224 306 261 q 485 186 408 186 q 608 213 560 186 q 657 286 657 239 q 628 346 657 326 q 539 383 599 365 l 317 449 q 193 498 251 468 q 99 581 135 528 q 64 724 64 633 q 153 951 64 863 q 394 1058 242 1039 l 394 1226 l 575 1226 l 575 1054 q 793 947 710 1031 q 890 726 876 863 l 640 726 q 461 858 611 858 q 351 831 389 858 q 313 756 313 803 q 336 697 313 721 q 411 658 360 674 l 643 589 q 838 482 776 550 q 899 304 899 414 q 811 90 899 176 q 575 -15 724 4 l 575 -196 l 394 -196 z "},"₫":{"ha":932,"x_min":44,"x_max":914,"o":"m 418 -21 q 224 33 308 -21 q 92 181 140 86 q 44 400 44 276 q 89 614 44 521 q 213 760 133 707 q 393 813 292 813 q 523 788 464 813 q 621 713 582 763 l 621 860 l 453 860 l 453 971 l 621 971 l 621 1042 l 846 1042 l 846 971 l 914 971 l 914 860 l 846 860 l 846 0 l 656 0 l 639 108 q 418 -21 567 -21 m 451 176 q 575 238 529 176 q 621 403 621 299 q 575 567 621 507 q 451 628 529 628 q 322 567 369 628 q 274 403 274 507 q 322 238 274 299 q 451 176 369 176 m 143 -233 l 143 -78 l 869 -78 l 869 -233 l 143 -233 z "},"£":{"ha":922,"x_min":67,"x_max":843,"o":"m 88 0 l 88 196 q 187 278 147 225 q 226 404 226 332 l 67 404 l 67 583 l 168 583 q 142 652 153 615 q 131 738 131 689 q 174 905 131 832 q 297 1020 218 978 q 478 1063 375 1063 q 668 1015 586 1063 q 797 881 750 967 q 843 683 843 796 l 613 683 q 576 823 607 778 q 485 868 546 868 q 390 830 425 868 q 354 724 354 792 q 365 649 354 683 q 390 583 376 615 l 654 583 l 654 404 l 429 404 q 392 301 424 356 q 285 196 361 247 l 828 196 l 828 0 l 88 0 z "},"¥":{"ha":935,"x_min":-8,"x_max":943,"o":"m 132 168 l 132 297 l 350 297 l 350 397 l 132 397 l 132 526 l 292 526 l -8 1042 l 261 1042 l 469 649 l 675 1042 l 943 1042 l 639 526 l 824 526 l 824 397 l 579 397 l 579 297 l 824 297 l 824 168 l 579 168 l 579 0 l 350 0 l 350 168 l 132 168 z "},"+":{"ha":1011,"x_min":103,"x_max":908,"o":"m 103 324 l 103 504 l 415 504 l 415 828 l 596 828 l 596 504 l 908 504 l 908 324 l 596 324 l 596 0 l 415 0 l 415 324 l 103 324 z "},"−":{"ha":1011,"x_min":103,"x_max":908,"o":"m 103 324 l 103 504 l 908 504 l 908 324 l 103 324 z "},"×":{"ha":1011,"x_min":149,"x_max":863,"o":"m 276 57 l 149 185 l 378 414 l 149 643 l 276 771 l 506 542 l 735 771 l 863 643 l 633 414 l 863 185 l 735 57 l 506 286 l 276 57 z "},"÷":{"ha":1011,"x_min":103,"x_max":908,"o":"m 507 607 q 414 642 451 607 q 376 732 376 676 q 414 821 376 786 q 507 856 451 856 q 600 821 564 856 q 636 732 636 786 q 600 642 636 676 q 507 607 564 607 m 103 324 l 103 504 l 908 504 l 908 324 l 103 324 m 507 -26 q 414 8 451 -26 q 376 99 376 43 q 414 188 376 153 q 507 222 451 222 q 600 188 564 222 q 636 99 636 153 q 600 8 636 43 q 507 -26 564 -26 z "},"=":{"ha":1011,"x_min":103,"x_max":908,"o":"m 103 471 l 103 651 l 908 651 l 908 471 l 103 471 m 103 172 l 103 353 l 908 353 l 908 172 l 103 172 z "},"≠":{"ha":1011,"x_min":103,"x_max":908,"o":"m 103 172 l 103 353 l 382 353 l 436 471 l 103 471 l 103 651 l 519 651 l 583 792 l 792 792 l 728 651 l 908 651 l 908 471 l 644 471 l 590 353 l 908 353 l 908 172 l 508 172 l 429 0 l 219 0 l 299 172 l 103 172 z "},">":{"ha":1011,"x_min":196,"x_max":817,"o":"m 817 365 l 196 -6 l 196 217 l 644 464 l 196 706 l 196 928 l 817 554 l 817 365 z "},"<":{"ha":1011,"x_min":194,"x_max":815,"o":"m 194 365 l 194 554 l 815 928 l 815 706 l 367 464 l 815 217 l 815 -6 l 194 365 z "},"≥":{"ha":1011,"x_min":175,"x_max":838,"o":"m 838 460 l 175 178 l 175 388 l 663 575 l 175 760 l 175 969 l 838 686 l 838 460 m 838 -50 l 175 -50 l 175 131 l 838 131 l 838 -50 z "},"≤":{"ha":1011,"x_min":174,"x_max":836,"o":"m 174 460 l 174 686 l 836 969 l 836 760 l 349 575 l 836 388 l 836 178 l 174 460 m 174 -50 l 174 131 l 836 131 l 836 -50 l 174 -50 z "},"±":{"ha":1011,"x_min":103,"x_max":908,"o":"m 415 278 l 415 546 l 103 546 l 103 726 l 415 726 l 415 994 l 596 994 l 596 726 l 908 726 l 908 546 l 596 546 l 596 278 l 415 278 m 103 0 l 103 181 l 908 181 l 908 0 l 103 0 z "},"≈":{"ha":1011,"x_min":125,"x_max":888,"o":"m 654 53 q 553 74 594 53 q 480 124 511 96 q 420 173 449 151 q 356 194 392 194 q 324 181 338 194 q 310 117 310 168 l 310 64 l 125 64 l 125 156 q 158 286 125 238 q 245 356 192 335 q 356 378 299 378 q 465 357 422 378 q 536 310 507 336 q 592 263 565 283 q 653 242 618 242 q 689 256 676 242 q 701 314 701 271 l 701 360 l 888 360 l 888 268 q 854 152 888 200 q 767 78 821 104 q 654 53 714 53 m 654 428 q 553 449 594 428 q 480 499 511 471 q 420 548 449 526 q 356 569 392 569 q 324 556 338 569 q 310 492 310 543 l 310 439 l 125 439 l 125 531 q 158 661 125 613 q 245 731 192 710 q 356 753 299 753 q 465 732 422 753 q 536 685 507 711 q 592 638 565 658 q 653 617 618 617 q 689 631 676 617 q 701 689 701 646 l 701 735 l 888 735 l 888 643 q 854 527 888 575 q 767 453 821 479 q 654 428 714 428 z "},"~":{"ha":1011,"x_min":125,"x_max":888,"o":"m 654 233 q 553 255 594 233 q 480 304 511 276 q 420 353 449 332 q 356 375 392 375 q 324 362 338 375 q 310 297 310 349 l 310 244 l 125 244 l 125 336 q 158 467 125 418 q 245 537 192 515 q 356 558 299 558 q 465 538 422 558 q 536 490 507 517 q 592 443 565 464 q 653 422 618 422 q 689 437 676 422 q 701 494 701 451 l 701 540 l 888 540 l 888 449 q 854 333 888 381 q 767 259 821 285 q 654 233 714 233 z "},"^":{"ha":763,"x_min":33,"x_max":731,"o":"m 33 522 l 244 1043 l 519 1043 l 731 522 l 525 522 l 381 860 l 236 522 l 33 522 z "},"%":{"ha":1356,"x_min":44,"x_max":1311,"o":"m 319 492 q 177 527 239 492 q 80 626 115 563 q 44 772 44 690 q 80 921 44 857 q 177 1022 115 985 q 319 1058 239 1058 q 463 1022 401 1058 q 560 921 525 985 q 596 772 596 857 q 560 626 596 690 q 463 527 525 563 q 319 492 401 492 m 263 0 l 893 1039 l 1075 1039 l 443 0 l 263 0 m 319 638 q 397 674 368 638 q 426 772 426 710 q 397 875 426 838 q 319 913 368 913 q 242 875 271 913 q 214 772 214 838 q 242 674 214 710 q 319 638 271 638 m 1035 -19 q 892 16 954 -19 q 795 115 831 51 q 760 261 760 179 q 795 410 760 346 q 892 510 831 474 q 1035 547 954 547 q 1178 510 1117 547 q 1276 410 1240 474 q 1311 261 1311 346 q 1276 115 1311 179 q 1178 16 1240 51 q 1035 -19 1117 -19 m 1035 126 q 1113 163 1083 126 q 1142 261 1142 199 q 1113 364 1142 326 q 1035 401 1083 401 q 958 364 986 401 q 929 261 929 326 q 958 163 929 199 q 1035 126 986 126 z "},"‰":{"ha":2032,"x_min":44,"x_max":1988,"o":"m 1710 -17 q 1568 20 1631 -17 q 1469 119 1506 57 q 1432 263 1432 182 q 1469 406 1432 343 q 1568 506 1506 469 q 1710 543 1631 543 q 1851 506 1789 543 q 1951 406 1914 469 q 1988 263 1988 343 q 1951 119 1988 182 q 1851 20 1914 57 q 1710 -17 1789 -17 m 1710 135 q 1786 170 1757 135 q 1815 263 1815 206 q 1786 355 1815 319 q 1710 390 1757 390 q 1633 355 1663 390 q 1604 263 1604 319 q 1633 170 1604 206 q 1710 135 1663 135 m 319 492 q 177 527 239 492 q 80 626 115 563 q 44 772 44 690 q 80 921 44 857 q 177 1022 115 985 q 319 1058 239 1058 q 463 1022 401 1058 q 560 921 525 985 q 596 772 596 857 q 560 626 596 690 q 463 527 525 563 q 319 492 401 492 m 263 0 l 893 1039 l 1075 1039 l 443 0 l 263 0 m 319 638 q 397 674 368 638 q 426 772 426 710 q 397 875 426 838 q 319 913 368 913 q 242 875 271 913 q 214 772 214 838 q 242 674 214 710 q 319 638 271 638 m 1035 -19 q 892 16 954 -19 q 795 115 831 51 q 760 261 760 179 q 795 410 760 346 q 892 510 831 474 q 1035 547 954 547 q 1178 510 1117 547 q 1276 410 1240 474 q 1311 261 1311 346 q 1276 115 1311 179 q 1178 16 1240 51 q 1035 -19 1117 -19 m 1035 126 q 1113 163 1083 126 q 1142 261 1142 199 q 1113 364 1142 326 q 1035 401 1083 401 q 958 364 986 401 q 929 261 929 326 q 958 163 929 199 q 1035 126 986 126 z "},"`":{"ha":522,"x_min":54,"x_max":410,"o":"m 410 1125 l 226 1125 l 54 1338 l 297 1338 l 410 1125 z "},"´":{"ha":476,"x_min":65,"x_max":421,"o":"m 65 1125 l 178 1338 l 421 1338 l 249 1125 l 65 1125 z "},"ˆ":{"ha":608,"x_min":51,"x_max":571,"o":"m 51 1125 l 113 1206 q 165 1274 142 1244 q 222 1321 189 1304 q 310 1338 254 1338 q 398 1321 365 1338 q 455 1275 431 1304 q 508 1207 479 1246 l 571 1125 l 397 1125 l 311 1219 l 224 1125 l 51 1125 z "},"˘":{"ha":592,"x_min":56,"x_max":536,"o":"m 296 1111 q 121 1172 186 1111 q 56 1338 56 1233 l 224 1338 q 244 1265 224 1293 q 296 1236 265 1236 q 350 1265 329 1236 q 371 1338 371 1293 l 536 1338 q 472 1172 536 1233 q 296 1111 407 1111 z "},"˚":{"ha":644,"x_min":165,"x_max":479,"o":"m 322 1114 q 212 1156 258 1114 q 165 1264 165 1199 q 212 1373 165 1331 q 322 1415 258 1415 q 433 1373 388 1415 q 479 1264 479 1331 q 433 1156 479 1199 q 322 1114 388 1114 m 322 1215 q 356 1230 342 1215 q 369 1264 369 1244 q 356 1298 369 1285 q 322 1311 342 1311 q 289 1298 303 1311 q 275 1264 275 1285 q 289 1230 275 1244 q 322 1215 303 1215 z "},"˜":{"ha":703,"x_min":111,"x_max":592,"o":"m 443 1118 q 370 1138 399 1118 q 322 1176 342 1157 q 282 1196 303 1196 q 265 1189 272 1196 q 257 1157 257 1182 l 257 1125 l 111 1125 l 111 1181 q 154 1306 111 1269 q 261 1342 197 1342 q 335 1323 308 1342 q 381 1285 363 1304 q 419 1267 400 1267 q 438 1274 431 1267 q 444 1303 444 1282 l 444 1331 l 592 1331 l 592 1279 q 549 1157 592 1196 q 443 1118 506 1118 z "},"Ắ":{"ha":1035,"x_min":15,"x_max":1019,"o":"m 15 0 l 315 850 q 363 965 339 918 q 424 1038 388 1013 q 519 1063 461 1063 q 617 1038 579 1063 q 680 966 654 1013 q 728 853 706 919 l 1019 0 l 772 0 l 704 221 l 331 221 l 260 0 l 15 0 m 517 794 l 397 426 l 639 426 l 525 794 q 521 800 524 800 q 517 794 518 800 m 439 1367 l 551 1567 l 794 1567 l 622 1367 l 439 1367 m 518 1111 q 343 1169 408 1111 q 278 1315 278 1228 l 446 1315 q 465 1258 446 1279 q 518 1236 485 1236 q 573 1258 553 1236 q 593 1315 593 1279 l 758 1315 q 694 1169 758 1228 q 518 1111 629 1111 z "},"Ặ":{"ha":1035,"x_min":15,"x_max":1019,"o":"m 15 0 l 315 850 q 363 965 339 918 q 424 1038 388 1013 q 519 1063 461 1063 q 617 1038 579 1063 q 680 966 654 1013 q 728 853 706 919 l 1019 0 l 772 0 l 704 221 l 331 221 l 260 0 l 15 0 m 517 794 l 397 426 l 639 426 l 525 794 q 521 800 524 800 q 517 794 518 800 m 518 1111 q 343 1172 408 1111 q 278 1338 278 1233 l 446 1338 q 467 1265 446 1293 q 518 1236 488 1236 q 572 1265 551 1236 q 593 1338 593 1293 l 758 1338 q 694 1172 758 1233 q 518 1111 629 1111 m 518 -300 q 431 -267 465 -300 q 397 -183 397 -235 q 431 -101 397 -133 q 518 -69 465 -69 q 604 -101 571 -69 q 638 -183 638 -133 q 604 -267 638 -235 q 518 -300 571 -300 z "},"Ằ":{"ha":1035,"x_min":15,"x_max":1019,"o":"m 15 0 l 315 850 q 363 965 339 918 q 424 1038 388 1013 q 519 1063 461 1063 q 617 1038 579 1063 q 680 966 654 1013 q 728 853 706 919 l 1019 0 l 772 0 l 704 221 l 331 221 l 260 0 l 15 0 m 517 794 l 397 426 l 639 426 l 525 794 q 521 800 524 800 q 517 794 518 800 m 599 1367 l 415 1367 l 243 1567 l 486 1567 l 599 1367 m 518 1111 q 343 1169 408 1111 q 278 1315 278 1228 l 446 1315 q 465 1258 446 1279 q 518 1236 485 1236 q 573 1258 553 1236 q 593 1315 593 1279 l 758 1315 q 694 1169 758 1228 q 518 1111 629 1111 z "},"Ẳ":{"ha":1035,"x_min":15,"x_max":1019,"o":"m 15 0 l 315 850 q 363 965 339 918 q 424 1038 388 1013 q 519 1063 461 1063 q 617 1038 579 1063 q 680 966 654 1013 q 728 853 706 919 l 1019 0 l 772 0 l 704 221 l 331 221 l 260 0 l 15 0 m 517 794 l 397 426 l 639 426 l 525 794 q 521 800 524 800 q 517 794 518 800 m 446 1367 q 460 1404 446 1388 q 493 1431 474 1421 q 537 1456 518 1444 q 556 1481 556 1468 q 521 1507 556 1507 q 490 1494 503 1507 q 475 1464 478 1482 l 340 1464 q 392 1576 340 1533 q 521 1618 444 1618 q 644 1584 592 1618 q 696 1490 696 1550 q 680 1439 696 1461 q 622 1390 664 1417 q 599 1367 603 1379 l 446 1367 m 518 1111 q 343 1169 408 1111 q 278 1315 278 1228 l 446 1315 q 465 1258 446 1279 q 518 1236 485 1236 q 573 1258 553 1236 q 593 1315 593 1279 l 758 1315 q 694 1169 758 1228 q 518 1111 629 1111 z "},"Ẵ":{"ha":1035,"x_min":15,"x_max":1019,"o":"m 15 0 l 315 850 q 363 965 339 918 q 424 1038 388 1013 q 519 1063 461 1063 q 617 1038 579 1063 q 680 966 654 1013 q 728 853 706 919 l 1019 0 l 772 0 l 704 221 l 331 221 l 260 0 l 15 0 m 517 794 l 397 426 l 639 426 l 525 794 q 521 800 524 800 q 517 794 518 800 m 610 1375 q 537 1393 565 1375 q 489 1429 508 1411 q 449 1447 469 1447 q 431 1441 439 1447 q 424 1411 424 1435 l 424 1381 l 278 1381 l 278 1433 q 321 1551 278 1517 q 428 1585 364 1585 q 502 1567 475 1585 q 548 1532 529 1550 q 586 1514 567 1514 q 604 1522 597 1514 q 611 1549 611 1529 l 611 1575 l 758 1575 l 758 1526 q 715 1411 758 1447 q 610 1375 672 1375 m 518 1111 q 343 1169 408 1111 q 278 1315 278 1228 l 446 1315 q 465 1258 446 1279 q 518 1236 485 1236 q 573 1258 553 1236 q 593 1315 593 1279 l 758 1315 q 694 1169 758 1228 q 518 1111 629 1111 z "},"Ấ":{"ha":1035,"x_min":15,"x_max":1044,"o":"m 15 0 l 315 850 q 363 965 339 918 q 424 1038 388 1013 q 519 1063 461 1063 q 617 1038 579 1063 q 680 966 654 1013 q 728 853 706 919 l 1019 0 l 772 0 l 704 221 l 331 221 l 260 0 l 15 0 m 517 794 l 397 426 l 639 426 l 525 794 q 521 800 524 800 q 517 794 518 800 m 744 1232 l 840 1432 l 1044 1432 l 899 1232 l 744 1232 m 258 1125 l 319 1197 q 372 1259 349 1232 q 428 1301 396 1286 q 517 1317 461 1317 q 605 1301 572 1317 q 662 1260 638 1286 q 715 1199 686 1233 l 778 1125 l 604 1125 l 518 1210 l 431 1125 l 258 1125 z "},"Ậ":{"ha":1035,"x_min":15,"x_max":1019,"o":"m 15 0 l 315 850 q 363 965 339 918 q 424 1038 388 1013 q 519 1063 461 1063 q 617 1038 579 1063 q 680 966 654 1013 q 728 853 706 919 l 1019 0 l 772 0 l 704 221 l 331 221 l 260 0 l 15 0 m 517 794 l 397 426 l 639 426 l 525 794 q 521 800 524 800 q 517 794 518 800 m 258 1125 l 319 1206 q 372 1274 349 1244 q 428 1321 396 1304 q 517 1338 461 1338 q 605 1321 572 1338 q 662 1275 638 1304 q 715 1207 686 1246 l 778 1125 l 604 1125 l 518 1219 l 431 1125 l 258 1125 m 518 -300 q 431 -267 465 -300 q 397 -183 397 -235 q 431 -101 397 -133 q 518 -69 465 -69 q 604 -101 571 -69 q 638 -183 638 -133 q 604 -267 638 -235 q 518 -300 571 -300 z "},"Ầ":{"ha":1035,"x_min":15,"x_max":1019,"o":"m 15 0 l 315 850 q 363 965 339 918 q 424 1038 388 1013 q 519 1063 461 1063 q 617 1038 579 1063 q 680 966 654 1013 q 728 853 706 919 l 1019 0 l 772 0 l 704 221 l 331 221 l 260 0 l 15 0 m 517 794 l 397 426 l 639 426 l 525 794 q 521 800 524 800 q 517 794 518 800 m 925 1232 l 771 1232 l 625 1432 l 829 1432 l 925 1232 m 258 1125 l 319 1197 q 372 1259 349 1232 q 428 1301 396 1286 q 517 1317 461 1317 q 605 1301 572 1317 q 662 1260 638 1286 q 715 1199 686 1233 l 778 1125 l 604 1125 l 518 1210 l 431 1125 l 258 1125 z "},"Ẩ":{"ha":1035,"x_min":15,"x_max":1019,"o":"m 15 0 l 315 850 q 363 965 339 918 q 424 1038 388 1013 q 519 1063 461 1063 q 617 1038 579 1063 q 680 966 654 1013 q 728 853 706 919 l 1019 0 l 772 0 l 704 221 l 331 221 l 260 0 l 15 0 m 517 794 l 397 426 l 639 426 l 525 794 q 521 800 524 800 q 517 794 518 800 m 679 1282 q 694 1319 679 1306 q 728 1344 710 1333 q 756 1365 743 1356 q 769 1388 769 1375 q 758 1410 769 1401 q 724 1419 746 1419 q 665 1372 672 1419 l 528 1372 q 584 1488 528 1443 q 724 1532 640 1532 q 857 1497 801 1532 q 913 1400 913 1461 q 903 1362 913 1378 q 882 1335 894 1346 q 849 1309 868 1321 q 826 1282 831 1297 l 679 1282 m 258 1125 l 319 1197 q 372 1259 349 1232 q 428 1301 396 1286 q 517 1317 461 1317 q 605 1301 572 1317 q 662 1260 638 1286 q 715 1199 686 1233 l 778 1125 l 604 1125 l 518 1210 l 431 1125 l 258 1125 z "},"Ẫ":{"ha":1035,"x_min":15,"x_max":1019,"o":"m 15 0 l 315 850 q 363 965 339 918 q 424 1038 388 1013 q 519 1063 461 1063 q 617 1038 579 1063 q 680 966 654 1013 q 728 853 706 919 l 1019 0 l 772 0 l 704 221 l 331 221 l 260 0 l 15 0 m 517 794 l 397 426 l 639 426 l 525 794 q 521 800 524 800 q 517 794 518 800 m 610 1360 q 537 1378 565 1360 q 489 1414 508 1396 q 449 1432 469 1432 q 431 1426 439 1432 q 424 1396 424 1419 l 424 1365 l 278 1365 l 278 1418 q 321 1535 278 1501 q 428 1569 364 1569 q 502 1552 475 1569 q 548 1517 529 1535 q 586 1499 567 1499 q 604 1506 597 1499 q 611 1533 611 1514 l 611 1560 l 758 1560 l 758 1511 q 715 1396 758 1432 q 610 1360 672 1360 m 258 1125 l 319 1197 q 372 1259 349 1232 q 428 1301 396 1286 q 517 1317 461 1317 q 605 1301 572 1317 q 662 1260 638 1286 q 715 1199 686 1233 l 778 1125 l 604 1125 l 518 1210 l 431 1125 l 258 1125 z "},"Ä":{"ha":1035,"x_min":15,"x_max":1019,"o":"m 15 0 l 315 850 q 363 965 339 918 q 424 1038 388 1013 q 519 1063 461 1063 q 617 1038 579 1063 q 680 966 654 1013 q 728 853 706 919 l 1019 0 l 772 0 l 704 221 l 331 221 l 260 0 l 15 0 m 517 794 l 397 426 l 639 426 l 525 794 q 521 800 524 800 q 517 794 518 800 m 369 1125 q 278 1157 315 1125 q 242 1240 242 1189 q 278 1322 242 1290 q 369 1354 315 1354 q 459 1322 422 1354 q 496 1240 496 1290 q 459 1157 496 1189 q 369 1125 422 1125 m 672 1125 q 581 1157 618 1125 q 544 1240 544 1189 q 581 1322 544 1290 q 672 1354 618 1354 q 762 1322 725 1354 q 799 1240 799 1290 q 762 1157 799 1189 q 672 1125 725 1125 z "},"Ạ":{"ha":1035,"x_min":15,"x_max":1019,"o":"m 15 0 l 315 850 q 363 965 339 918 q 424 1038 388 1013 q 519 1063 461 1063 q 617 1038 579 1063 q 680 966 654 1013 q 728 853 706 919 l 1019 0 l 772 0 l 704 221 l 331 221 l 260 0 l 15 0 m 517 794 l 397 426 l 639 426 l 525 794 q 521 800 524 800 q 517 794 518 800 m 518 -300 q 431 -267 465 -300 q 397 -183 397 -235 q 431 -101 397 -133 q 518 -69 465 -69 q 604 -101 571 -69 q 638 -183 638 -133 q 604 -267 638 -235 q 518 -300 571 -300 z "},"Ả":{"ha":1035,"x_min":15,"x_max":1019,"o":"m 15 0 l 315 850 q 363 965 339 918 q 424 1038 388 1013 q 519 1063 461 1063 q 617 1038 579 1063 q 680 966 654 1013 q 728 853 706 919 l 1019 0 l 772 0 l 704 221 l 331 221 l 260 0 l 15 0 m 517 794 l 397 426 l 639 426 l 525 794 q 521 800 524 800 q 517 794 518 800 m 443 1125 q 457 1165 443 1147 q 490 1193 471 1182 q 534 1220 515 1208 q 553 1246 553 1232 q 544 1265 553 1257 q 518 1274 535 1274 q 488 1260 500 1274 q 472 1228 475 1247 l 338 1228 q 390 1347 338 1301 q 518 1392 442 1392 q 641 1356 589 1392 q 693 1256 693 1321 q 677 1201 693 1225 q 619 1150 661 1178 q 604 1139 610 1144 q 596 1125 599 1133 l 443 1125 z "},"Ā":{"ha":1035,"x_min":15,"x_max":1019,"o":"m 15 0 l 315 850 q 363 965 339 918 q 424 1038 388 1013 q 519 1063 461 1063 q 617 1038 579 1063 q 680 966 654 1013 q 728 853 706 919 l 1019 0 l 772 0 l 704 221 l 331 221 l 260 0 l 15 0 m 517 794 l 397 426 l 639 426 l 525 794 q 521 800 524 800 q 517 794 518 800 m 301 1153 l 301 1338 l 735 1338 l 735 1153 l 301 1153 z "},"Ą":{"ha":1035,"x_min":15,"x_max":1019,"o":"m 15 0 l 315 850 q 363 965 339 918 q 424 1038 388 1013 q 519 1063 461 1063 q 617 1038 579 1063 q 680 966 654 1013 q 728 853 706 919 l 1019 0 l 772 0 l 704 221 l 331 221 l 260 0 l 15 0 m 517 794 l 397 426 l 639 426 l 525 794 q 521 800 524 800 q 517 794 518 800 m 926 -365 q 796 -339 853 -365 q 707 -267 739 -312 q 675 -164 675 -221 q 714 -53 675 -110 q 833 44 753 4 l 1019 0 q 940 -54 968 -28 q 913 -111 913 -81 q 1010 -179 913 -179 l 1010 -361 q 969 -364 992 -362 q 926 -365 946 -365 z "},"Å":{"ha":1035,"x_min":15,"x_max":1019,"o":"m 15 0 l 315 850 q 363 965 339 918 q 424 1038 388 1013 q 519 1063 461 1063 q 617 1038 579 1063 q 680 966 654 1013 q 728 853 706 919 l 1019 0 l 772 0 l 704 221 l 331 221 l 260 0 l 15 0 m 517 794 l 397 426 l 639 426 l 525 794 q 521 800 524 800 q 517 794 518 800 m 518 1114 q 408 1156 454 1114 q 361 1264 361 1199 q 408 1373 361 1331 q 518 1415 454 1415 q 629 1373 583 1415 q 675 1264 675 1331 q 629 1156 675 1199 q 518 1114 583 1114 m 518 1215 q 551 1230 538 1215 q 565 1264 565 1244 q 551 1298 565 1285 q 518 1311 538 1311 q 485 1298 499 1311 q 471 1264 471 1285 q 485 1230 471 1244 q 518 1215 499 1215 z "},"Æ":{"ha":1436,"x_min":15,"x_max":1368,"o":"m 15 0 l 394 794 q 474 930 432 875 q 574 1013 515 985 q 719 1042 632 1042 l 1368 1042 l 1368 832 l 901 832 l 901 636 l 1339 636 l 1339 435 l 901 435 l 901 210 l 1368 210 l 1368 0 l 653 0 l 653 165 l 364 165 l 289 0 l 15 0 m 460 383 l 653 383 l 653 811 l 460 383 z "},"Ć":{"ha":1060,"x_min":64,"x_max":996,"o":"m 554 -21 q 293 45 403 -21 q 124 233 183 111 q 64 521 64 354 q 123 809 64 688 q 291 997 182 931 q 547 1063 400 1063 q 777 1013 679 1063 q 931 874 875 963 q 989 669 986 785 l 744 669 q 683 797 733 747 q 550 847 632 847 q 377 758 440 847 q 314 519 314 669 q 377 282 314 372 q 557 192 440 192 q 665 219 624 192 q 726 292 706 247 q 753 389 747 338 l 996 389 q 934 168 990 260 q 781 28 878 76 q 554 -21 685 -21 m 468 1125 l 581 1338 l 824 1338 l 651 1125 l 468 1125 z "},"Č":{"ha":1060,"x_min":64,"x_max":996,"o":"m 554 -21 q 293 45 403 -21 q 124 233 183 111 q 64 521 64 354 q 123 809 64 688 q 291 997 182 931 q 547 1063 400 1063 q 777 1013 679 1063 q 931 874 875 963 q 989 669 986 785 l 744 669 q 683 797 733 747 q 550 847 632 847 q 377 758 440 847 q 314 519 314 669 q 377 282 314 372 q 557 192 440 192 q 665 219 624 192 q 726 292 706 247 q 753 389 747 338 l 996 389 q 934 168 990 260 q 781 28 878 76 q 554 -21 685 -21 m 553 1125 q 465 1142 497 1125 q 408 1188 432 1158 q 356 1257 385 1218 l 294 1338 l 467 1338 l 554 1243 l 640 1338 l 814 1338 l 751 1256 q 698 1188 722 1218 q 641 1142 674 1158 q 553 1125 608 1125 z "},"Ç":{"ha":1060,"x_min":64,"x_max":996,"o":"m 554 -21 q 293 45 403 -21 q 124 233 183 111 q 64 521 64 354 q 123 809 64 688 q 291 997 182 931 q 547 1063 400 1063 q 777 1013 679 1063 q 931 874 875 963 q 989 669 986 785 l 744 669 q 683 797 733 747 q 550 847 632 847 q 377 758 440 847 q 314 519 314 669 q 377 282 314 372 q 557 192 440 192 q 665 219 624 192 q 726 292 706 247 q 753 389 747 338 l 996 389 q 934 168 990 260 q 781 28 878 76 q 554 -21 685 -21 m 400 -404 l 400 -257 l 496 -257 q 522 -249 511 -257 q 532 -226 532 -240 q 496 -199 532 -199 l 489 -199 q 434 -179 457 -199 q 411 -129 411 -160 q 426 -72 411 -106 l 463 0 l 625 0 l 585 -86 q 671 -131 635 -96 q 707 -233 707 -167 q 654 -361 707 -318 q 515 -404 601 -404 l 400 -404 z "},"Ċ":{"ha":1060,"x_min":64,"x_max":996,"o":"m 554 -21 q 293 45 403 -21 q 124 233 183 111 q 64 521 64 354 q 123 809 64 688 q 291 997 182 931 q 547 1063 400 1063 q 777 1013 679 1063 q 931 874 875 963 q 989 669 986 785 l 744 669 q 683 797 733 747 q 550 847 632 847 q 377 758 440 847 q 314 519 314 669 q 377 282 314 372 q 557 192 440 192 q 665 219 624 192 q 726 292 706 247 q 753 389 747 338 l 996 389 q 934 168 990 260 q 781 28 878 76 q 554 -21 685 -21 m 554 1125 q 463 1157 500 1125 q 426 1240 426 1189 q 463 1322 426 1290 q 554 1354 500 1354 q 644 1322 607 1354 q 681 1240 681 1290 q 644 1157 681 1189 q 554 1125 607 1125 z "},"Ď":{"ha":1065,"x_min":103,"x_max":1003,"o":"m 103 0 l 103 1042 l 521 1042 q 777 978 669 1042 q 944 799 885 915 q 1003 522 1003 683 q 944 245 1003 363 q 777 64 885 128 q 521 0 669 0 l 103 0 m 344 200 l 521 200 q 691 284 629 200 q 753 522 753 368 q 691 758 753 675 q 521 842 629 842 l 344 842 l 344 200 m 490 1125 q 402 1142 435 1125 q 346 1188 369 1158 q 293 1257 322 1218 l 232 1338 l 404 1338 l 492 1243 l 578 1338 l 751 1338 l 689 1256 q 635 1188 660 1218 q 578 1142 611 1158 q 490 1125 546 1125 z "},"Ð":{"ha":1068,"x_min":-4,"x_max":1003,"o":"m 103 0 l 103 442 l -4 442 l -4 601 l 103 601 l 103 1042 l 521 1042 q 777 978 669 1042 q 944 799 885 915 q 1003 522 1003 683 q 944 245 1003 363 q 777 64 885 128 q 521 0 669 0 l 103 0 m 344 200 l 521 200 q 691 284 629 200 q 753 522 753 368 q 691 758 753 675 q 521 842 629 842 l 344 842 l 344 601 l 513 601 l 513 442 l 344 442 l 344 200 z "},"Ě":{"ha":879,"x_min":103,"x_max":811,"o":"m 103 0 l 103 1042 l 811 1042 l 811 832 l 344 832 l 344 636 l 782 636 l 782 435 l 344 435 l 344 210 l 811 210 l 811 0 l 103 0 m 471 1125 q 383 1142 415 1125 q 326 1188 350 1158 q 274 1257 303 1218 l 213 1338 l 385 1338 l 472 1243 l 558 1338 l 732 1338 l 669 1256 q 616 1188 640 1218 q 559 1142 592 1158 q 471 1125 526 1125 z "},"Ế":{"ha":879,"x_min":103,"x_max":999,"o":"m 103 0 l 103 1042 l 811 1042 l 811 832 l 344 832 l 344 636 l 782 636 l 782 435 l 344 435 l 344 210 l 811 210 l 811 0 l 103 0 m 699 1232 l 794 1432 l 999 1432 l 853 1232 l 699 1232 m 213 1125 l 274 1197 q 326 1259 303 1232 q 383 1301 350 1286 q 471 1317 415 1317 q 559 1301 526 1317 q 616 1260 592 1286 q 669 1199 640 1233 l 732 1125 l 558 1125 l 472 1210 l 385 1125 l 213 1125 z "},"Ệ":{"ha":879,"x_min":103,"x_max":811,"o":"m 103 0 l 103 1042 l 811 1042 l 811 832 l 344 832 l 344 636 l 782 636 l 782 435 l 344 435 l 344 210 l 811 210 l 811 0 l 103 0 m 213 1125 l 274 1206 q 326 1274 303 1244 q 383 1321 350 1304 q 471 1338 415 1338 q 559 1321 526 1338 q 616 1275 592 1304 q 669 1207 640 1246 l 732 1125 l 558 1125 l 472 1219 l 385 1125 l 213 1125 m 472 -300 q 385 -267 419 -300 q 351 -183 351 -235 q 385 -101 351 -133 q 472 -69 419 -69 q 558 -101 525 -69 q 592 -183 592 -133 q 558 -267 592 -235 q 472 -300 525 -300 z "},"Ề":{"ha":879,"x_min":103,"x_max":879,"o":"m 103 0 l 103 1042 l 811 1042 l 811 832 l 344 832 l 344 636 l 782 636 l 782 435 l 344 435 l 344 210 l 811 210 l 811 0 l 103 0 m 879 1232 l 725 1232 l 579 1432 l 783 1432 l 879 1232 m 213 1125 l 274 1197 q 326 1259 303 1232 q 383 1301 350 1286 q 471 1317 415 1317 q 559 1301 526 1317 q 616 1260 592 1286 q 669 1199 640 1233 l 732 1125 l 558 1125 l 472 1210 l 385 1125 l 213 1125 z "},"Ể":{"ha":879,"x_min":103,"x_max":867,"o":"m 103 0 l 103 1042 l 811 1042 l 811 832 l 344 832 l 344 636 l 782 636 l 782 435 l 344 435 l 344 210 l 811 210 l 811 0 l 103 0 m 633 1282 q 649 1319 633 1306 q 682 1344 664 1333 q 710 1365 697 1356 q 724 1388 724 1375 q 712 1410 724 1401 q 678 1419 700 1419 q 619 1372 626 1419 l 482 1372 q 538 1488 482 1443 q 678 1532 594 1532 q 811 1497 756 1532 q 867 1400 867 1461 q 858 1362 867 1378 q 836 1335 849 1346 q 803 1309 822 1321 q 781 1282 785 1297 l 633 1282 m 213 1125 l 274 1197 q 326 1259 303 1232 q 383 1301 350 1286 q 471 1317 415 1317 q 559 1301 526 1317 q 616 1260 592 1286 q 669 1199 640 1233 l 732 1125 l 558 1125 l 472 1210 l 385 1125 l 213 1125 z "},"Ễ":{"ha":879,"x_min":103,"x_max":811,"o":"m 103 0 l 103 1042 l 811 1042 l 811 832 l 344 832 l 344 636 l 782 636 l 782 435 l 344 435 l 344 210 l 811 210 l 811 0 l 103 0 m 564 1360 q 491 1378 519 1360 q 443 1414 463 1396 q 403 1432 424 1432 q 385 1426 393 1432 q 378 1396 378 1419 l 378 1365 l 232 1365 l 232 1418 q 275 1535 232 1501 q 382 1569 318 1569 q 456 1552 429 1569 q 502 1517 483 1535 q 540 1499 521 1499 q 558 1506 551 1499 q 565 1533 565 1514 l 565 1560 l 713 1560 l 713 1511 q 669 1396 713 1432 q 564 1360 626 1360 m 213 1125 l 274 1197 q 326 1259 303 1232 q 383 1301 350 1286 q 471 1317 415 1317 q 559 1301 526 1317 q 616 1260 592 1286 q 669 1199 640 1233 l 732 1125 l 558 1125 l 472 1210 l 385 1125 l 213 1125 z "},"Ë":{"ha":879,"x_min":103,"x_max":811,"o":"m 103 0 l 103 1042 l 811 1042 l 811 832 l 344 832 l 344 636 l 782 636 l 782 435 l 344 435 l 344 210 l 811 210 l 811 0 l 103 0 m 324 1125 q 233 1157 269 1125 q 196 1240 196 1189 q 233 1322 196 1290 q 324 1354 269 1354 q 413 1322 376 1354 q 450 1240 450 1290 q 413 1157 450 1189 q 324 1125 376 1125 m 626 1125 q 535 1157 572 1125 q 499 1240 499 1189 q 535 1322 499 1290 q 626 1354 572 1354 q 716 1322 679 1354 q 753 1240 753 1290 q 716 1157 753 1189 q 626 1125 679 1125 z "},"Ė":{"ha":879,"x_min":103,"x_max":811,"o":"m 103 0 l 103 1042 l 811 1042 l 811 832 l 344 832 l 344 636 l 782 636 l 782 435 l 344 435 l 344 210 l 811 210 l 811 0 l 103 0 m 472 1125 q 381 1157 418 1125 q 344 1240 344 1189 q 381 1322 344 1290 q 472 1354 418 1354 q 562 1322 525 1354 q 599 1240 599 1290 q 562 1157 599 1189 q 472 1125 525 1125 z "},"Ẹ":{"ha":879,"x_min":103,"x_max":811,"o":"m 103 0 l 103 1042 l 811 1042 l 811 832 l 344 832 l 344 636 l 782 636 l 782 435 l 344 435 l 344 210 l 811 210 l 811 0 l 103 0 m 472 -300 q 385 -267 419 -300 q 351 -183 351 -235 q 385 -101 351 -133 q 472 -69 419 -69 q 558 -101 525 -69 q 592 -183 592 -133 q 558 -267 592 -235 q 472 -300 525 -300 z "},"Ẻ":{"ha":879,"x_min":103,"x_max":811,"o":"m 103 0 l 103 1042 l 811 1042 l 811 832 l 344 832 l 344 636 l 782 636 l 782 435 l 344 435 l 344 210 l 811 210 l 811 0 l 103 0 m 397 1125 q 411 1165 397 1147 q 444 1193 425 1182 q 488 1220 469 1208 q 507 1246 507 1232 q 498 1265 507 1257 q 472 1274 489 1274 q 442 1260 454 1274 q 426 1228 429 1247 l 292 1228 q 344 1347 292 1301 q 472 1392 396 1392 q 595 1356 543 1392 q 647 1256 647 1321 q 631 1201 647 1225 q 574 1150 615 1178 q 558 1139 564 1144 q 550 1125 553 1133 l 397 1125 z "},"Ē":{"ha":879,"x_min":103,"x_max":811,"o":"m 103 0 l 103 1042 l 811 1042 l 811 832 l 344 832 l 344 636 l 782 636 l 782 435 l 344 435 l 344 210 l 811 210 l 811 0 l 103 0 m 256 1153 l 256 1338 l 689 1338 l 689 1153 l 256 1153 z "},"Ę":{"ha":879,"x_min":103,"x_max":811,"o":"m 103 0 l 103 1042 l 811 1042 l 811 832 l 344 832 l 344 636 l 782 636 l 782 435 l 344 435 l 344 210 l 811 210 l 811 0 l 103 0 m 718 -365 q 588 -339 644 -365 q 499 -267 531 -312 q 467 -164 467 -221 q 506 -53 467 -110 q 625 44 544 4 l 811 0 q 732 -54 760 -28 q 704 -111 704 -81 q 801 -179 704 -179 l 801 -361 q 760 -364 783 -362 q 718 -365 738 -365 z "},"Ẽ":{"ha":879,"x_min":103,"x_max":811,"o":"m 103 0 l 103 1042 l 811 1042 l 811 832 l 344 832 l 344 636 l 782 636 l 782 435 l 344 435 l 344 210 l 811 210 l 811 0 l 103 0 m 564 1118 q 491 1138 519 1118 q 443 1176 463 1157 q 403 1196 424 1196 q 385 1189 393 1196 q 378 1157 378 1182 l 378 1125 l 232 1125 l 232 1181 q 275 1306 232 1269 q 382 1342 318 1342 q 456 1323 429 1342 q 502 1285 483 1304 q 540 1267 521 1267 q 558 1274 551 1267 q 565 1303 565 1282 l 565 1331 l 713 1331 l 713 1279 q 669 1157 713 1196 q 564 1118 626 1118 z "},"Ğ":{"ha":1075,"x_min":64,"x_max":1011,"o":"m 560 -21 q 295 45 407 -21 q 124 232 183 111 q 64 519 64 353 q 124 808 64 686 q 293 996 183 929 q 550 1063 403 1063 q 778 1013 679 1063 q 933 878 878 964 q 989 681 989 792 l 739 681 q 682 801 733 754 q 550 849 631 849 q 376 760 438 849 q 314 524 314 672 q 379 281 314 369 q 560 192 444 192 q 688 237 636 192 q 758 378 740 282 l 567 378 l 567 576 l 819 576 q 967 529 922 576 q 1011 396 1011 482 q 988 260 1011 332 q 911 124 964 188 q 772 19 858 60 q 560 -21 685 -21 m 551 1111 q 376 1172 442 1111 q 311 1338 311 1233 l 479 1338 q 500 1265 479 1293 q 551 1236 521 1236 q 606 1265 585 1236 q 626 1338 626 1293 l 792 1338 q 727 1172 792 1233 q 551 1111 663 1111 z "},"Ģ":{"ha":1075,"x_min":64,"x_max":1011,"o":"m 560 -21 q 295 45 407 -21 q 124 232 183 111 q 64 519 64 353 q 124 808 64 686 q 293 996 183 929 q 550 1063 403 1063 q 778 1013 679 1063 q 933 878 878 964 q 989 681 989 792 l 739 681 q 682 801 733 754 q 550 849 631 849 q 376 760 438 849 q 314 524 314 672 q 379 281 314 369 q 560 192 444 192 q 688 237 636 192 q 758 378 740 282 l 567 378 l 567 576 l 819 576 q 967 529 922 576 q 1011 396 1011 482 q 988 260 1011 332 q 911 124 964 188 q 772 19 858 60 q 560 -21 685 -21 m 422 -519 q 483 -426 457 -472 q 528 -336 510 -381 q 410 -206 410 -315 q 449 -107 410 -144 q 550 -69 488 -69 q 654 -111 615 -69 q 693 -225 693 -153 q 659 -356 693 -276 q 567 -519 625 -435 l 422 -519 z "},"Ġ":{"ha":1075,"x_min":64,"x_max":1011,"o":"m 560 -21 q 295 45 407 -21 q 124 232 183 111 q 64 519 64 353 q 124 808 64 686 q 293 996 183 929 q 550 1063 403 1063 q 778 1013 679 1063 q 933 878 878 964 q 989 681 989 792 l 739 681 q 682 801 733 754 q 550 849 631 849 q 376 760 438 849 q 314 524 314 672 q 379 281 314 369 q 560 192 444 192 q 688 237 636 192 q 758 378 740 282 l 567 378 l 567 576 l 819 576 q 967 529 922 576 q 1011 396 1011 482 q 988 260 1011 332 q 911 124 964 188 q 772 19 858 60 q 560 -21 685 -21 m 551 1125 q 460 1157 497 1125 q 424 1240 424 1189 q 460 1322 424 1290 q 551 1354 497 1354 q 641 1322 604 1354 q 678 1240 678 1290 q 641 1157 678 1189 q 551 1125 604 1125 z "},"Ħ":{"ha":1063,"x_min":-17,"x_max":1079,"o":"m 103 0 l 103 746 l -17 746 l -17 938 l 103 938 l 103 1042 l 347 1042 l 347 938 l 715 938 l 715 1042 l 960 1042 l 960 938 l 1079 938 l 1079 746 l 960 746 l 960 0 l 715 0 l 715 440 l 347 440 l 347 0 l 103 0 m 347 657 l 715 657 l 715 746 l 347 746 l 347 657 z "},"Î":{"ha":451,"x_min":-33,"x_max":486,"o":"m 103 0 l 103 1042 l 349 1042 l 349 0 l 103 0 m -33 1125 l 28 1206 q 81 1274 57 1244 q 137 1321 104 1304 q 225 1338 169 1338 q 313 1321 281 1338 q 370 1275 346 1304 q 424 1207 394 1246 l 486 1125 l 313 1125 l 226 1219 l 139 1125 l -33 1125 z "},"Ï":{"ha":451,"x_min":-50,"x_max":507,"o":"m 103 0 l 103 1042 l 349 1042 l 349 0 l 103 0 m 78 1125 q -13 1157 24 1125 q -50 1240 -50 1189 q -13 1322 -50 1290 q 78 1354 24 1354 q 167 1322 131 1354 q 204 1240 204 1290 q 167 1157 204 1189 q 78 1125 131 1125 m 381 1125 q 290 1157 326 1125 q 253 1240 253 1189 q 290 1322 253 1290 q 381 1354 326 1354 q 470 1322 433 1354 q 507 1240 507 1290 q 470 1157 507 1189 q 381 1125 433 1125 z "},"İ":{"ha":451,"x_min":99,"x_max":353,"o":"m 103 0 l 103 1042 l 349 1042 l 349 0 l 103 0 m 226 1125 q 135 1157 172 1125 q 99 1240 99 1189 q 135 1322 99 1290 q 226 1354 172 1354 q 316 1322 279 1354 q 353 1240 353 1290 q 316 1157 353 1189 q 226 1125 279 1125 z "},"Ị":{"ha":451,"x_min":103,"x_max":349,"o":"m 103 0 l 103 1042 l 349 1042 l 349 0 l 103 0 m 226 -300 q 140 -267 174 -300 q 106 -183 106 -235 q 140 -101 106 -133 q 226 -69 174 -69 q 313 -101 279 -69 q 346 -183 346 -133 q 313 -267 346 -235 q 226 -300 279 -300 z "},"Ỉ":{"ha":451,"x_min":46,"x_max":401,"o":"m 103 0 l 103 1042 l 349 1042 l 349 0 l 103 0 m 151 1125 q 165 1165 151 1147 q 199 1193 179 1182 q 242 1220 224 1208 q 261 1246 261 1232 q 252 1265 261 1257 q 226 1274 243 1274 q 196 1260 208 1274 q 181 1228 183 1247 l 46 1228 q 98 1347 46 1301 q 226 1392 150 1392 q 349 1356 297 1392 q 401 1256 401 1321 q 385 1201 401 1225 q 328 1150 369 1178 q 313 1139 318 1144 q 304 1125 307 1133 l 151 1125 z "},"Ī":{"ha":451,"x_min":10,"x_max":443,"o":"m 103 0 l 103 1042 l 349 1042 l 349 0 l 103 0 m 10 1153 l 10 1338 l 443 1338 l 443 1153 l 10 1153 z "},"Į":{"ha":451,"x_min":4,"x_max":349,"o":"m 103 0 l 103 1042 l 349 1042 l 349 0 l 103 0 m 256 -365 q 125 -339 182 -365 q 36 -267 68 -312 q 4 -164 4 -221 q 43 -53 4 -110 q 163 44 82 4 l 349 0 q 269 -54 297 -28 q 242 -111 242 -81 q 339 -179 242 -179 l 339 -361 q 298 -364 321 -362 q 256 -365 275 -365 z "},"Ķ":{"ha":999,"x_min":103,"x_max":983,"o":"m 103 0 l 103 1042 l 346 1042 l 346 621 l 658 1042 l 957 1042 l 651 657 l 983 0 l 688 0 l 485 447 l 346 272 l 346 0 l 103 0 m 371 -519 q 432 -426 406 -472 q 476 -336 458 -381 q 358 -206 358 -315 q 397 -107 358 -144 q 499 -69 436 -69 q 603 -111 564 -69 q 642 -225 642 -153 q 608 -356 642 -276 q 515 -519 574 -435 l 371 -519 z "},"Ĺ":{"ha":842,"x_min":103,"x_max":804,"o":"m 103 0 l 103 1042 l 347 1042 l 347 215 l 804 215 l 804 0 l 103 0 m 335 1125 l 447 1338 l 690 1338 l 518 1125 l 335 1125 z "},"Ľ":{"ha":842,"x_min":103,"x_max":804,"o":"m 551 1067 l 749 1042 l 694 719 l 510 744 l 551 1067 m 103 0 l 103 1042 l 347 1042 l 347 215 l 804 215 l 804 0 l 103 0 z "},"Ļ":{"ha":842,"x_min":103,"x_max":804,"o":"m 103 0 l 103 1042 l 347 1042 l 347 215 l 804 215 l 804 0 l 103 0 m 292 -519 q 353 -426 326 -472 q 397 -336 379 -381 q 279 -206 279 -315 q 318 -107 279 -144 q 419 -69 357 -69 q 524 -111 485 -69 q 563 -225 563 -153 q 528 -356 563 -276 q 436 -519 494 -435 l 292 -519 z "},"Ł":{"ha":833,"x_min":-18,"x_max":804,"o":"m 103 0 l 103 432 l 32 413 l -18 603 l 103 635 l 103 1042 l 347 1042 l 347 701 l 468 733 l 518 543 l 347 497 l 347 215 l 804 215 l 804 0 l 103 0 z "},"Ń":{"ha":1075,"x_min":103,"x_max":972,"o":"m 815 -21 q 708 14 751 -21 q 624 129 664 49 l 342 699 q 337 703 340 703 q 333 697 333 703 l 333 1 l 103 1 l 103 886 q 153 1017 103 972 q 272 1063 204 1063 q 389 1026 342 1063 q 469 921 436 990 l 733 374 q 739 370 736 369 q 742 376 742 371 l 742 1042 l 972 1042 l 972 138 q 924 18 972 57 q 815 -21 876 -21 m 451 1125 l 564 1338 l 807 1338 l 635 1125 l 451 1125 z "},"Ň":{"ha":1075,"x_min":103,"x_max":972,"o":"m 815 -21 q 708 14 751 -21 q 624 129 664 49 l 342 699 q 337 703 340 703 q 333 697 333 703 l 333 1 l 103 1 l 103 886 q 153 1017 103 972 q 272 1063 204 1063 q 389 1026 342 1063 q 469 921 436 990 l 733 374 q 739 370 736 369 q 742 376 742 371 l 742 1042 l 972 1042 l 972 138 q 924 18 972 57 q 815 -21 876 -21 m 536 1125 q 448 1142 481 1125 q 392 1188 415 1158 q 339 1257 368 1218 l 278 1338 l 450 1338 l 538 1243 l 624 1338 l 797 1338 l 735 1256 q 681 1188 706 1218 q 624 1142 657 1158 q 536 1125 592 1125 z "},"Ņ":{"ha":1075,"x_min":103,"x_max":972,"o":"m 815 -21 q 708 14 751 -21 q 624 129 664 49 l 342 699 q 337 703 340 703 q 333 697 333 703 l 333 1 l 103 1 l 103 886 q 153 1017 103 972 q 272 1063 204 1063 q 389 1026 342 1063 q 469 921 436 990 l 733 374 q 739 370 736 369 q 742 376 742 371 l 742 1042 l 972 1042 l 972 138 q 924 18 972 57 q 815 -21 876 -21 m 408 -519 q 469 -426 443 -472 q 514 -336 496 -381 q 396 -206 396 -315 q 435 -107 396 -144 q 536 -69 474 -69 q 640 -111 601 -69 q 679 -225 679 -153 q 645 -356 679 -276 q 553 -519 611 -435 l 408 -519 z "},"Ñ":{"ha":1075,"x_min":103,"x_max":972,"o":"m 815 -21 q 708 14 751 -21 q 624 129 664 49 l 342 699 q 337 703 340 703 q 333 697 333 703 l 333 1 l 103 1 l 103 886 q 153 1017 103 972 q 272 1063 204 1063 q 389 1026 342 1063 q 469 921 436 990 l 733 374 q 739 370 736 369 q 742 376 742 371 l 742 1042 l 972 1042 l 972 138 q 924 18 972 57 q 815 -21 876 -21 m 629 1118 q 556 1138 585 1118 q 508 1176 528 1157 q 468 1196 489 1196 q 451 1189 458 1196 q 443 1157 443 1182 l 443 1125 l 297 1125 l 297 1181 q 340 1306 297 1269 q 447 1342 383 1342 q 522 1323 494 1342 q 567 1285 549 1304 q 606 1267 586 1267 q 624 1274 617 1267 q 631 1303 631 1282 l 631 1331 l 778 1331 l 778 1279 q 735 1157 778 1196 q 629 1118 692 1118 z "},"Ố":{"ha":1111,"x_min":64,"x_max":1082,"o":"m 556 -21 q 295 45 406 -21 q 124 232 185 111 q 64 519 64 353 q 124 808 64 686 q 295 997 185 931 q 556 1063 406 1063 q 817 997 707 1063 q 987 808 926 931 q 1047 519 1047 686 q 987 232 1047 353 q 817 45 926 111 q 556 -21 707 -21 m 556 194 q 732 282 667 194 q 797 519 797 369 q 732 759 797 671 q 556 847 667 847 q 379 759 444 847 q 314 519 314 671 q 379 282 314 369 q 556 194 444 194 m 782 1232 l 878 1432 l 1082 1432 l 936 1232 l 782 1232 m 296 1125 l 357 1197 q 410 1259 386 1232 q 466 1301 433 1286 q 554 1317 499 1317 q 642 1301 610 1317 q 699 1260 675 1286 q 753 1199 724 1233 l 815 1125 l 642 1125 l 556 1210 l 468 1125 l 296 1125 z "},"Ộ":{"ha":1111,"x_min":64,"x_max":1047,"o":"m 556 -21 q 295 45 406 -21 q 124 232 185 111 q 64 519 64 353 q 124 808 64 686 q 295 997 185 931 q 556 1063 406 1063 q 817 997 707 1063 q 987 808 926 931 q 1047 519 1047 686 q 987 232 1047 353 q 817 45 926 111 q 556 -21 707 -21 m 556 194 q 732 282 667 194 q 797 519 797 369 q 732 759 797 671 q 556 847 667 847 q 379 759 444 847 q 314 519 314 671 q 379 282 314 369 q 556 194 444 194 m 296 1125 l 357 1206 q 410 1274 386 1244 q 466 1321 433 1304 q 554 1338 499 1338 q 642 1321 610 1338 q 699 1275 675 1304 q 753 1207 724 1246 l 815 1125 l 642 1125 l 556 1219 l 468 1125 l 296 1125 m 556 -300 q 469 -267 503 -300 q 435 -183 435 -235 q 469 -101 435 -133 q 556 -69 503 -69 q 642 -101 608 -69 q 675 -183 675 -133 q 642 -267 675 -235 q 556 -300 608 -300 z "},"Ồ":{"ha":1111,"x_min":64,"x_max":1047,"o":"m 556 -21 q 295 45 406 -21 q 124 232 185 111 q 64 519 64 353 q 124 808 64 686 q 295 997 185 931 q 556 1063 406 1063 q 817 997 707 1063 q 987 808 926 931 q 1047 519 1047 686 q 987 232 1047 353 q 817 45 926 111 q 556 -21 707 -21 m 556 194 q 732 282 667 194 q 797 519 797 369 q 732 759 797 671 q 556 847 667 847 q 379 759 444 847 q 314 519 314 671 q 379 282 314 369 q 556 194 444 194 m 963 1232 l 808 1232 l 663 1432 l 867 1432 l 963 1232 m 296 1125 l 357 1197 q 410 1259 386 1232 q 466 1301 433 1286 q 554 1317 499 1317 q 642 1301 610 1317 q 699 1260 675 1286 q 753 1199 724 1233 l 815 1125 l 642 1125 l 556 1210 l 468 1125 l 296 1125 z "},"Ổ":{"ha":1111,"x_min":64,"x_max":1047,"o":"m 556 -21 q 295 45 406 -21 q 124 232 185 111 q 64 519 64 353 q 124 808 64 686 q 295 997 185 931 q 556 1063 406 1063 q 817 997 707 1063 q 987 808 926 931 q 1047 519 1047 686 q 987 232 1047 353 q 817 45 926 111 q 556 -21 707 -21 m 556 194 q 732 282 667 194 q 797 519 797 369 q 732 759 797 671 q 556 847 667 847 q 379 759 444 847 q 314 519 314 671 q 379 282 314 369 q 556 194 444 194 m 717 1282 q 732 1319 717 1306 q 765 1344 747 1333 q 794 1365 781 1356 q 807 1388 807 1375 q 795 1410 807 1401 q 761 1419 783 1419 q 703 1372 710 1419 l 565 1372 q 622 1488 565 1443 q 761 1532 678 1532 q 894 1497 839 1532 q 950 1400 950 1461 q 941 1362 950 1378 q 919 1335 932 1346 q 887 1309 906 1321 q 864 1282 868 1297 l 717 1282 m 296 1125 l 357 1197 q 410 1259 386 1232 q 466 1301 433 1286 q 554 1317 499 1317 q 642 1301 610 1317 q 699 1260 675 1286 q 753 1199 724 1233 l 815 1125 l 642 1125 l 556 1210 l 468 1125 l 296 1125 z "},"Ỗ":{"ha":1111,"x_min":64,"x_max":1047,"o":"m 556 -21 q 295 45 406 -21 q 124 232 185 111 q 64 519 64 353 q 124 808 64 686 q 295 997 185 931 q 556 1063 406 1063 q 817 997 707 1063 q 987 808 926 931 q 1047 519 1047 686 q 987 232 1047 353 q 817 45 926 111 q 556 -21 707 -21 m 556 194 q 732 282 667 194 q 797 519 797 369 q 732 759 797 671 q 556 847 667 847 q 379 759 444 847 q 314 519 314 671 q 379 282 314 369 q 556 194 444 194 m 647 1360 q 574 1378 603 1360 q 526 1414 546 1396 q 486 1432 507 1432 q 469 1426 476 1432 q 461 1396 461 1419 l 461 1365 l 315 1365 l 315 1418 q 358 1535 315 1501 q 465 1569 401 1569 q 540 1552 513 1569 q 585 1517 567 1535 q 624 1499 604 1499 q 642 1506 635 1499 q 649 1533 649 1514 l 649 1560 l 796 1560 l 796 1511 q 753 1396 796 1432 q 647 1360 710 1360 m 296 1125 l 357 1197 q 410 1259 386 1232 q 466 1301 433 1286 q 554 1317 499 1317 q 642 1301 610 1317 q 699 1260 675 1286 q 753 1199 724 1233 l 815 1125 l 642 1125 l 556 1210 l 468 1125 l 296 1125 z "},"Ö":{"ha":1111,"x_min":64,"x_max":1047,"o":"m 556 -21 q 295 45 406 -21 q 124 232 185 111 q 64 519 64 353 q 124 808 64 686 q 295 997 185 931 q 556 1063 406 1063 q 817 997 707 1063 q 987 808 926 931 q 1047 519 1047 686 q 987 232 1047 353 q 817 45 926 111 q 556 -21 707 -21 m 556 194 q 732 282 667 194 q 797 519 797 369 q 732 759 797 671 q 556 847 667 847 q 379 759 444 847 q 314 519 314 671 q 379 282 314 369 q 556 194 444 194 m 407 1125 q 316 1157 353 1125 q 279 1240 279 1189 q 316 1322 279 1290 q 407 1354 353 1354 q 497 1322 460 1354 q 533 1240 533 1290 q 497 1157 533 1189 q 407 1125 460 1125 m 710 1125 q 619 1157 656 1125 q 582 1240 582 1189 q 619 1322 582 1290 q 710 1354 656 1354 q 799 1322 763 1354 q 836 1240 836 1290 q 799 1157 836 1189 q 710 1125 763 1125 z "},"Ọ":{"ha":1111,"x_min":64,"x_max":1047,"o":"m 556 -21 q 295 45 406 -21 q 124 232 185 111 q 64 519 64 353 q 124 808 64 686 q 295 997 185 931 q 556 1063 406 1063 q 817 997 707 1063 q 987 808 926 931 q 1047 519 1047 686 q 987 232 1047 353 q 817 45 926 111 q 556 -21 707 -21 m 556 194 q 732 282 667 194 q 797 519 797 369 q 732 759 797 671 q 556 847 667 847 q 379 759 444 847 q 314 519 314 671 q 379 282 314 369 q 556 194 444 194 m 556 -300 q 469 -267 503 -300 q 435 -183 435 -235 q 469 -101 435 -133 q 556 -69 503 -69 q 642 -101 608 -69 q 675 -183 675 -133 q 642 -267 675 -235 q 556 -300 608 -300 z "},"Ỏ":{"ha":1111,"x_min":64,"x_max":1047,"o":"m 556 -21 q 295 45 406 -21 q 124 232 185 111 q 64 519 64 353 q 124 808 64 686 q 295 997 185 931 q 556 1063 406 1063 q 817 997 707 1063 q 987 808 926 931 q 1047 519 1047 686 q 987 232 1047 353 q 817 45 926 111 q 556 -21 707 -21 m 556 194 q 732 282 667 194 q 797 519 797 369 q 732 759 797 671 q 556 847 667 847 q 379 759 444 847 q 314 519 314 671 q 379 282 314 369 q 556 194 444 194 m 481 1125 q 494 1165 481 1147 q 528 1193 508 1182 q 572 1220 553 1208 q 590 1246 590 1232 q 581 1265 590 1257 q 556 1274 572 1274 q 525 1260 538 1274 q 510 1228 513 1247 l 375 1228 q 427 1347 375 1301 q 556 1392 479 1392 q 678 1356 626 1392 q 731 1256 731 1321 q 715 1201 731 1225 q 657 1150 699 1178 q 642 1139 647 1144 q 633 1125 636 1133 l 481 1125 z "},"Ớ":{"ha":1089,"x_min":53,"x_max":1036,"o":"m 544 -21 q 284 45 394 -21 q 113 232 174 111 q 53 519 53 353 q 113 808 53 686 q 284 997 174 931 q 544 1063 394 1063 q 547 1063 546 1063 q 626 1058 594 1063 q 684 1049 658 1054 q 738 1039 710 1043 q 805 1062 786 1033 q 817 1157 824 1090 l 999 1157 q 977 1018 1007 1076 q 888 933 947 960 q 997 758 958 863 q 1036 519 1036 653 q 976 232 1036 353 q 806 45 915 111 q 544 -21 696 -21 m 544 188 q 731 277 663 188 q 800 519 800 367 q 731 764 800 674 q 544 854 663 854 q 358 764 426 854 q 289 519 289 674 q 358 277 289 367 q 544 188 426 188 m 458 1125 l 571 1338 l 814 1338 l 642 1125 l 458 1125 z "},"Ợ":{"ha":1089,"x_min":53,"x_max":1036,"o":"m 544 -21 q 284 45 394 -21 q 113 232 174 111 q 53 519 53 353 q 113 808 53 686 q 284 997 174 931 q 544 1063 394 1063 q 547 1063 546 1063 q 626 1058 594 1063 q 684 1049 658 1054 q 738 1039 710 1043 q 805 1062 786 1033 q 817 1157 824 1090 l 999 1157 q 977 1018 1007 1076 q 888 933 947 960 q 997 758 958 863 q 1036 519 1036 653 q 976 232 1036 353 q 806 45 915 111 q 544 -21 696 -21 m 544 188 q 731 277 663 188 q 800 519 800 367 q 731 764 800 674 q 544 854 663 854 q 358 764 426 854 q 289 519 289 674 q 358 277 289 367 q 544 188 426 188 m 544 -300 q 458 -267 492 -300 q 424 -183 424 -235 q 458 -101 424 -133 q 544 -69 492 -69 q 631 -101 597 -69 q 664 -183 664 -133 q 631 -267 664 -235 q 544 -300 597 -300 z "},"Ờ":{"ha":1089,"x_min":53,"x_max":1036,"o":"m 544 -21 q 284 45 394 -21 q 113 232 174 111 q 53 519 53 353 q 113 808 53 686 q 284 997 174 931 q 544 1063 394 1063 q 547 1063 546 1063 q 626 1058 594 1063 q 684 1049 658 1054 q 738 1039 710 1043 q 805 1062 786 1033 q 817 1157 824 1090 l 999 1157 q 977 1018 1007 1076 q 888 933 947 960 q 997 758 958 863 q 1036 519 1036 653 q 976 232 1036 353 q 806 45 915 111 q 544 -21 696 -21 m 544 188 q 731 277 663 188 q 800 519 800 367 q 731 764 800 674 q 544 854 663 854 q 358 764 426 854 q 289 519 289 674 q 358 277 289 367 q 544 188 426 188 m 631 1125 l 447 1125 l 275 1338 l 518 1338 l 631 1125 z "},"Ở":{"ha":1089,"x_min":53,"x_max":1036,"o":"m 544 -21 q 284 45 394 -21 q 113 232 174 111 q 53 519 53 353 q 113 808 53 686 q 284 997 174 931 q 544 1063 394 1063 q 547 1063 546 1063 q 626 1058 594 1063 q 684 1049 658 1054 q 738 1039 710 1043 q 805 1062 786 1033 q 817 1157 824 1090 l 999 1157 q 977 1018 1007 1076 q 888 933 947 960 q 997 758 958 863 q 1036 519 1036 653 q 976 232 1036 353 q 806 45 915 111 q 544 -21 696 -21 m 544 188 q 731 277 663 188 q 800 519 800 367 q 731 764 800 674 q 544 854 663 854 q 358 764 426 854 q 289 519 289 674 q 358 277 289 367 q 544 188 426 188 m 469 1125 q 483 1165 469 1147 q 517 1193 497 1182 q 560 1220 542 1208 q 579 1246 579 1232 q 570 1265 579 1257 q 544 1274 561 1274 q 514 1260 526 1274 q 499 1228 501 1247 l 364 1228 q 416 1347 364 1301 q 544 1392 468 1392 q 667 1356 615 1392 q 719 1256 719 1321 q 703 1201 719 1225 q 646 1150 688 1178 q 631 1139 636 1144 q 622 1125 625 1133 l 469 1125 z "},"Ỡ":{"ha":1089,"x_min":53,"x_max":1036,"o":"m 544 -21 q 284 45 394 -21 q 113 232 174 111 q 53 519 53 353 q 113 808 53 686 q 284 997 174 931 q 544 1063 394 1063 q 547 1063 546 1063 q 626 1058 594 1063 q 684 1049 658 1054 q 738 1039 710 1043 q 805 1062 786 1033 q 817 1157 824 1090 l 999 1157 q 977 1018 1007 1076 q 888 933 947 960 q 997 758 958 863 q 1036 519 1036 653 q 976 232 1036 353 q 806 45 915 111 q 544 -21 696 -21 m 544 188 q 731 277 663 188 q 800 519 800 367 q 731 764 800 674 q 544 854 663 854 q 358 764 426 854 q 289 519 289 674 q 358 277 289 367 q 544 188 426 188 m 636 1118 q 563 1138 592 1118 q 515 1176 535 1157 q 475 1196 496 1196 q 458 1189 465 1196 q 450 1157 450 1182 l 450 1125 l 304 1125 l 304 1181 q 347 1306 304 1269 q 454 1342 390 1342 q 528 1323 501 1342 q 574 1285 556 1304 q 613 1267 593 1267 q 631 1274 624 1267 q 638 1303 638 1282 l 638 1331 l 785 1331 l 785 1279 q 742 1157 785 1196 q 636 1118 699 1118 z "},"Ő":{"ha":1111,"x_min":64,"x_max":1047,"o":"m 556 -21 q 295 45 406 -21 q 124 232 185 111 q 64 519 64 353 q 124 808 64 686 q 295 997 185 931 q 556 1063 406 1063 q 817 997 707 1063 q 987 808 926 931 q 1047 519 1047 686 q 987 232 1047 353 q 817 45 926 111 q 556 -21 707 -21 m 556 194 q 732 282 667 194 q 797 519 797 369 q 732 759 797 671 q 556 847 667 847 q 379 759 444 847 q 314 519 314 671 q 379 282 314 369 q 556 194 444 194 m 307 1125 l 419 1338 l 663 1338 l 490 1125 l 307 1125 m 613 1125 l 725 1338 l 968 1338 l 796 1125 l 613 1125 z "},"Ø":{"ha":1111,"x_min":64,"x_max":1047,"o":"m 258 -43 l 92 81 l 160 171 q 89 326 114 239 q 64 519 64 414 q 124 808 64 686 q 295 997 185 931 q 556 1063 406 1063 q 794 1008 690 1063 l 851 1083 l 1021 963 l 951 869 q 1022 714 997 803 q 1047 519 1047 625 q 987 232 1047 353 q 817 45 926 111 q 556 -21 707 -21 q 317 33 421 -21 l 258 -43 m 314 519 q 328 393 314 450 l 656 825 q 556 847 611 847 q 379 759 444 847 q 314 519 314 671 m 556 194 q 732 282 667 194 q 797 519 797 369 q 782 649 797 590 l 456 217 q 556 194 500 194 z "},"Œ":{"ha":1574,"x_min":64,"x_max":1506,"o":"m 556 -21 q 295 45 406 -21 q 124 232 185 111 q 64 519 64 353 q 124 808 64 686 q 295 997 185 931 q 556 1063 406 1063 q 685 1046 624 1063 q 797 989 746 1029 l 797 1042 l 1506 1042 l 1506 832 l 1039 832 l 1039 636 l 1476 636 l 1476 435 l 1043 435 l 1039 404 l 1039 210 l 1506 210 l 1506 0 l 797 0 l 797 53 q 685 -4 746 13 q 556 -21 625 -21 m 556 194 q 732 282 667 194 q 797 519 797 369 q 732 759 797 671 q 556 847 667 847 q 379 759 444 847 q 314 519 314 671 q 379 282 314 369 q 556 194 444 194 z "},"Þ":{"ha":858,"x_min":85,"x_max":814,"o":"m 85 0 l 85 1042 l 344 1042 l 344 858 l 486 858 q 663 813 589 858 q 775 692 736 767 q 814 528 814 617 q 770 363 814 439 q 651 242 726 288 q 479 197 576 197 l 344 197 l 344 0 l 85 0 m 344 435 l 471 435 q 543 463 517 435 q 569 529 569 490 q 543 594 569 569 q 471 619 517 619 l 344 619 l 344 435 z "},"Ŕ":{"ha":983,"x_min":103,"x_max":919,"o":"m 103 0 l 103 1042 l 517 1042 q 815 963 711 1042 q 919 739 919 885 q 874 589 919 653 q 743 490 828 525 q 872 399 839 460 q 906 246 906 339 l 906 0 l 667 0 l 667 221 q 517 381 667 381 l 344 381 l 344 0 l 103 0 m 344 585 l 517 585 q 630 619 590 585 q 669 715 669 653 q 630 803 669 772 q 517 835 590 835 l 344 835 l 344 585 m 392 1125 l 504 1338 l 747 1338 l 575 1125 l 392 1125 z "},"Ř":{"ha":983,"x_min":103,"x_max":919,"o":"m 103 0 l 103 1042 l 517 1042 q 815 963 711 1042 q 919 739 919 885 q 874 589 919 653 q 743 490 828 525 q 872 399 839 460 q 906 246 906 339 l 906 0 l 667 0 l 667 221 q 517 381 667 381 l 344 381 l 344 0 l 103 0 m 344 585 l 517 585 q 630 619 590 585 q 669 715 669 653 q 630 803 669 772 q 517 835 590 835 l 344 835 l 344 585 m 476 1125 q 388 1142 421 1125 q 332 1188 356 1158 q 279 1257 308 1218 l 218 1338 l 390 1338 l 478 1243 l 564 1338 l 738 1338 l 675 1256 q 622 1188 646 1218 q 565 1142 597 1158 q 476 1125 532 1125 z "},"Ś":{"ha":960,"x_min":51,"x_max":899,"o":"m 490 -21 q 269 21 368 -21 q 110 142 169 63 q 51 339 51 222 l 299 339 q 357 224 306 261 q 485 186 408 186 q 608 213 560 186 q 657 286 657 239 q 628 346 657 326 q 539 383 599 365 l 317 449 q 193 498 251 468 q 99 581 135 528 q 64 724 64 633 q 114 903 64 828 q 256 1021 164 979 q 471 1063 347 1063 q 762 975 650 1063 q 890 726 874 888 l 640 726 q 461 858 611 858 q 351 831 389 858 q 313 756 313 803 q 336 697 313 721 q 411 658 360 674 l 643 589 q 838 482 776 550 q 899 304 899 414 q 848 134 899 207 q 706 20 797 61 q 490 -21 614 -21 m 394 1125 l 507 1338 l 750 1338 l 578 1125 l 394 1125 z "},"Š":{"ha":960,"x_min":51,"x_max":899,"o":"m 490 -21 q 269 21 368 -21 q 110 142 169 63 q 51 339 51 222 l 299 339 q 357 224 306 261 q 485 186 408 186 q 608 213 560 186 q 657 286 657 239 q 628 346 657 326 q 539 383 599 365 l 317 449 q 193 498 251 468 q 99 581 135 528 q 64 724 64 633 q 114 903 64 828 q 256 1021 164 979 q 471 1063 347 1063 q 762 975 650 1063 q 890 726 874 888 l 640 726 q 461 858 611 858 q 351 831 389 858 q 313 756 313 803 q 336 697 313 721 q 411 658 360 674 l 643 589 q 838 482 776 550 q 899 304 899 414 q 848 134 899 207 q 706 20 797 61 q 490 -21 614 -21 m 479 1125 q 391 1142 424 1125 q 335 1188 358 1158 q 282 1257 311 1218 l 221 1338 l 393 1338 l 481 1243 l 567 1338 l 740 1338 l 678 1256 q 624 1188 649 1218 q 567 1142 600 1158 q 479 1125 535 1125 z "},"Ş":{"ha":960,"x_min":51,"x_max":899,"o":"m 490 -21 q 269 21 368 -21 q 110 142 169 63 q 51 339 51 222 l 299 339 q 357 224 306 261 q 485 186 408 186 q 608 213 560 186 q 657 286 657 239 q 628 346 657 326 q 539 383 599 365 l 317 449 q 193 498 251 468 q 99 581 135 528 q 64 724 64 633 q 114 903 64 828 q 256 1021 164 979 q 471 1063 347 1063 q 762 975 650 1063 q 890 726 874 888 l 640 726 q 461 858 611 858 q 351 831 389 858 q 313 756 313 803 q 336 697 313 721 q 411 658 360 674 l 643 589 q 838 482 776 550 q 899 304 899 414 q 848 134 899 207 q 706 20 797 61 q 490 -21 614 -21 m 326 -404 l 326 -257 l 422 -257 q 448 -249 438 -257 q 458 -226 458 -240 q 422 -199 458 -199 l 415 -199 q 360 -179 383 -199 q 338 -129 338 -160 q 353 -72 338 -106 l 389 0 l 551 0 l 511 -86 q 597 -131 561 -96 q 633 -233 633 -167 q 581 -361 633 -318 q 442 -404 528 -404 l 326 -404 z "},"Ș":{"ha":960,"x_min":51,"x_max":899,"o":"m 490 -21 q 269 21 368 -21 q 110 142 169 63 q 51 339 51 222 l 299 339 q 357 224 306 261 q 485 186 408 186 q 608 213 560 186 q 657 286 657 239 q 628 346 657 326 q 539 383 599 365 l 317 449 q 193 498 251 468 q 99 581 135 528 q 64 724 64 633 q 114 903 64 828 q 256 1021 164 979 q 471 1063 347 1063 q 762 975 650 1063 q 890 726 874 888 l 640 726 q 461 858 611 858 q 351 831 389 858 q 313 756 313 803 q 336 697 313 721 q 411 658 360 674 l 643 589 q 838 482 776 550 q 899 304 899 414 q 848 134 899 207 q 706 20 797 61 q 490 -21 614 -21 m 351 -519 q 413 -426 386 -472 q 457 -336 439 -381 q 339 -206 339 -315 q 378 -107 339 -144 q 479 -69 417 -69 q 583 -111 544 -69 q 622 -225 622 -153 q 588 -356 622 -276 q 496 -519 554 -435 l 351 -519 z "},"ẞ":{"ha":988,"x_min":103,"x_max":924,"o":"m 103 0 l 103 893 q 135 1008 103 975 q 247 1042 167 1042 l 535 1042 q 726 1006 643 1042 q 855 909 808 971 q 901 765 901 847 q 860 631 901 690 q 746 543 818 572 q 878 463 833 518 q 924 317 924 408 q 876 151 924 222 q 743 40 829 79 q 539 0 657 0 l 467 0 l 519 193 l 540 193 q 650 231 611 193 q 689 325 689 269 q 649 415 689 382 q 536 447 608 447 l 454 447 l 454 631 l 536 631 q 627 658 592 631 q 663 735 663 686 q 626 817 663 785 q 528 849 589 849 l 343 849 l 343 0 l 103 0 z "},"Ť":{"ha":889,"x_min":28,"x_max":861,"o":"m 322 0 l 322 825 l 28 825 l 28 1042 l 861 1042 l 861 825 l 567 825 l 567 0 l 322 0 m 443 1125 q 355 1142 388 1125 q 299 1188 322 1158 q 246 1257 275 1218 l 185 1338 l 357 1338 l 444 1243 l 531 1338 l 704 1338 l 642 1256 q 588 1188 613 1218 q 531 1142 564 1158 q 443 1125 499 1125 z "},"Ț":{"ha":889,"x_min":28,"x_max":861,"o":"m 322 0 l 322 825 l 28 825 l 28 1042 l 861 1042 l 861 825 l 567 825 l 567 0 l 322 0 m 315 -519 q 376 -426 350 -472 q 421 -336 403 -381 q 303 -206 303 -315 q 342 -107 303 -144 q 443 -69 381 -69 q 547 -111 508 -69 q 586 -225 586 -153 q 552 -356 586 -276 q 460 -519 518 -435 l 315 -519 z "},"Û":{"ha":1069,"x_min":89,"x_max":981,"o":"m 536 -21 q 302 31 403 -21 q 145 178 201 83 q 89 403 89 274 l 89 1042 l 333 1042 l 333 403 q 388 246 333 304 q 533 188 442 188 q 682 246 628 188 q 736 403 736 304 l 736 1042 l 981 1042 l 981 403 q 924 178 981 274 q 768 31 868 83 q 536 -21 668 -21 m 275 1125 l 336 1206 q 389 1274 365 1244 q 445 1321 413 1304 q 533 1338 478 1338 q 622 1321 589 1338 q 678 1275 654 1304 q 732 1207 703 1246 l 794 1125 l 621 1125 l 535 1219 l 447 1125 l 275 1125 z "},"Ü":{"ha":1069,"x_min":89,"x_max":981,"o":"m 536 -21 q 302 31 403 -21 q 145 178 201 83 q 89 403 89 274 l 89 1042 l 333 1042 l 333 403 q 388 246 333 304 q 533 188 442 188 q 682 246 628 188 q 736 403 736 304 l 736 1042 l 981 1042 l 981 403 q 924 178 981 274 q 768 31 868 83 q 536 -21 668 -21 m 386 1125 q 295 1157 332 1125 q 258 1240 258 1189 q 295 1322 258 1290 q 386 1354 332 1354 q 476 1322 439 1354 q 513 1240 513 1290 q 476 1157 513 1189 q 386 1125 439 1125 m 689 1125 q 598 1157 635 1125 q 561 1240 561 1189 q 598 1322 561 1290 q 689 1354 635 1354 q 778 1322 742 1354 q 815 1240 815 1290 q 778 1157 815 1189 q 689 1125 742 1125 z "},"Ụ":{"ha":1069,"x_min":89,"x_max":981,"o":"m 536 -21 q 302 31 403 -21 q 145 178 201 83 q 89 403 89 274 l 89 1042 l 333 1042 l 333 403 q 388 246 333 304 q 533 188 442 188 q 682 246 628 188 q 736 403 736 304 l 736 1042 l 981 1042 l 981 403 q 924 178 981 274 q 768 31 868 83 q 536 -21 668 -21 m 535 -300 q 448 -267 482 -300 q 414 -183 414 -235 q 448 -101 414 -133 q 535 -69 482 -69 q 621 -101 588 -69 q 654 -183 654 -133 q 621 -267 654 -235 q 535 -300 588 -300 z "},"Ủ":{"ha":1069,"x_min":89,"x_max":981,"o":"m 536 -21 q 302 31 403 -21 q 145 178 201 83 q 89 403 89 274 l 89 1042 l 333 1042 l 333 403 q 388 246 333 304 q 533 188 442 188 q 682 246 628 188 q 736 403 736 304 l 736 1042 l 981 1042 l 981 403 q 924 178 981 274 q 768 31 868 83 q 536 -21 668 -21 m 460 1125 q 474 1165 460 1147 q 507 1193 488 1182 q 551 1220 532 1208 q 569 1246 569 1232 q 560 1265 569 1257 q 535 1274 551 1274 q 504 1260 517 1274 q 489 1228 492 1247 l 354 1228 q 406 1347 354 1301 q 535 1392 458 1392 q 658 1356 606 1392 q 710 1256 710 1321 q 694 1201 710 1225 q 636 1150 678 1178 q 621 1139 626 1144 q 613 1125 615 1133 l 460 1125 z "},"Ứ":{"ha":1069,"x_min":89,"x_max":1135,"o":"m 536 -21 q 302 31 403 -21 q 145 178 201 83 q 89 403 89 274 l 89 1042 l 333 1042 l 333 403 q 388 246 333 304 q 533 188 442 188 q 682 246 628 188 q 736 403 736 304 l 736 1042 l 981 1042 l 981 403 q 924 178 981 274 q 768 31 868 83 q 536 -21 668 -21 m 958 935 l 736 1042 l 818 1042 q 917 1074 889 1042 q 939 1192 944 1107 l 1128 1192 q 1090 1031 1135 1099 q 958 935 1046 964 m 449 1125 l 561 1338 l 804 1338 l 632 1125 l 449 1125 z "},"Ự":{"ha":1069,"x_min":89,"x_max":1135,"o":"m 536 -21 q 302 31 403 -21 q 145 178 201 83 q 89 403 89 274 l 89 1042 l 333 1042 l 333 403 q 388 246 333 304 q 533 188 442 188 q 682 246 628 188 q 736 403 736 304 l 736 1042 l 981 1042 l 981 403 q 924 178 981 274 q 768 31 868 83 q 536 -21 668 -21 m 958 935 l 736 1042 l 818 1042 q 917 1074 889 1042 q 939 1192 944 1107 l 1128 1192 q 1090 1031 1135 1099 q 958 935 1046 964 m 535 -300 q 448 -267 482 -300 q 414 -183 414 -235 q 448 -101 414 -133 q 535 -69 482 -69 q 621 -101 588 -69 q 654 -183 654 -133 q 621 -267 654 -235 q 535 -300 588 -300 z "},"Ừ":{"ha":1069,"x_min":89,"x_max":1135,"o":"m 536 -21 q 302 31 403 -21 q 145 178 201 83 q 89 403 89 274 l 89 1042 l 333 1042 l 333 403 q 388 246 333 304 q 533 188 442 188 q 682 246 628 188 q 736 403 736 304 l 736 1042 l 981 1042 l 981 403 q 924 178 981 274 q 768 31 868 83 q 536 -21 668 -21 m 958 935 l 736 1042 l 818 1042 q 917 1074 889 1042 q 939 1192 944 1107 l 1128 1192 q 1090 1031 1135 1099 q 958 935 1046 964 m 621 1125 l 438 1125 l 265 1338 l 508 1338 l 621 1125 z "},"Ử":{"ha":1069,"x_min":89,"x_max":1135,"o":"m 536 -21 q 302 31 403 -21 q 145 178 201 83 q 89 403 89 274 l 89 1042 l 333 1042 l 333 403 q 388 246 333 304 q 533 188 442 188 q 682 246 628 188 q 736 403 736 304 l 736 1042 l 981 1042 l 981 403 q 924 178 981 274 q 768 31 868 83 q 536 -21 668 -21 m 958 935 l 736 1042 l 818 1042 q 917 1074 889 1042 q 939 1192 944 1107 l 1128 1192 q 1090 1031 1135 1099 q 958 935 1046 964 m 460 1125 q 474 1165 460 1147 q 507 1193 488 1182 q 551 1220 532 1208 q 569 1246 569 1232 q 560 1265 569 1257 q 535 1274 551 1274 q 504 1260 517 1274 q 489 1228 492 1247 l 354 1228 q 406 1347 354 1301 q 535 1392 458 1392 q 658 1356 606 1392 q 710 1256 710 1321 q 694 1201 710 1225 q 636 1150 678 1178 q 621 1139 626 1144 q 613 1125 615 1133 l 460 1125 z "},"Ữ":{"ha":1069,"x_min":89,"x_max":1135,"o":"m 536 -21 q 302 31 403 -21 q 145 178 201 83 q 89 403 89 274 l 89 1042 l 333 1042 l 333 403 q 388 246 333 304 q 533 188 442 188 q 682 246 628 188 q 736 403 736 304 l 736 1042 l 981 1042 l 981 403 q 924 178 981 274 q 768 31 868 83 q 536 -21 668 -21 m 958 935 l 736 1042 l 818 1042 q 917 1074 889 1042 q 939 1192 944 1107 l 1128 1192 q 1090 1031 1135 1099 q 958 935 1046 964 m 626 1118 q 553 1138 582 1118 q 506 1176 525 1157 q 465 1196 486 1196 q 448 1189 456 1196 q 440 1157 440 1182 l 440 1125 l 294 1125 l 294 1181 q 338 1306 294 1269 q 444 1342 381 1342 q 519 1323 492 1342 q 565 1285 546 1304 q 603 1267 583 1267 q 621 1274 614 1267 q 628 1303 628 1282 l 628 1331 l 775 1331 l 775 1279 q 732 1157 775 1196 q 626 1118 689 1118 z "},"Ű":{"ha":1069,"x_min":89,"x_max":981,"o":"m 536 -21 q 302 31 403 -21 q 145 178 201 83 q 89 403 89 274 l 89 1042 l 333 1042 l 333 403 q 388 246 333 304 q 533 188 442 188 q 682 246 628 188 q 736 403 736 304 l 736 1042 l 981 1042 l 981 403 q 924 178 981 274 q 768 31 868 83 q 536 -21 668 -21 m 286 1125 l 399 1338 l 642 1338 l 469 1125 l 286 1125 m 592 1125 l 704 1338 l 947 1338 l 775 1125 l 592 1125 z "},"Ū":{"ha":1069,"x_min":89,"x_max":981,"o":"m 536 -21 q 302 31 403 -21 q 145 178 201 83 q 89 403 89 274 l 89 1042 l 333 1042 l 333 403 q 388 246 333 304 q 533 188 442 188 q 682 246 628 188 q 736 403 736 304 l 736 1042 l 981 1042 l 981 403 q 924 178 981 274 q 768 31 868 83 q 536 -21 668 -21 m 318 1153 l 318 1338 l 751 1338 l 751 1153 l 318 1153 z "},"Ų":{"ha":1069,"x_min":89,"x_max":981,"o":"m 536 -21 q 302 31 403 -21 q 145 178 201 83 q 89 403 89 274 l 89 1042 l 333 1042 l 333 403 q 388 246 333 304 q 533 188 442 188 q 682 246 628 188 q 736 403 736 304 l 736 1042 l 981 1042 l 981 403 q 924 178 981 274 q 768 31 868 83 q 536 -21 668 -21 m 694 -324 q 564 -297 621 -324 q 475 -225 507 -271 q 443 -122 443 -179 q 482 -11 443 -68 q 601 86 521 46 l 788 42 q 708 -12 736 14 q 681 -69 681 -39 q 778 -137 681 -137 l 778 -319 q 737 -322 760 -321 q 694 -324 714 -324 z "},"Ů":{"ha":1069,"x_min":89,"x_max":981,"o":"m 536 -21 q 302 31 403 -21 q 145 178 201 83 q 89 403 89 274 l 89 1042 l 333 1042 l 333 403 q 388 246 333 304 q 533 188 442 188 q 682 246 628 188 q 736 403 736 304 l 736 1042 l 981 1042 l 981 403 q 924 178 981 274 q 768 31 868 83 q 536 -21 668 -21 m 535 1114 q 424 1156 471 1114 q 378 1264 378 1199 q 424 1373 378 1331 q 535 1415 471 1415 q 646 1373 600 1415 q 692 1264 692 1331 q 646 1156 692 1199 q 535 1114 600 1114 m 535 1215 q 568 1230 554 1215 q 582 1264 582 1244 q 568 1298 582 1285 q 535 1311 554 1311 q 501 1298 515 1311 q 488 1264 488 1285 q 501 1230 488 1244 q 535 1215 515 1215 z "},"Ẃ":{"ha":1431,"x_min":15,"x_max":1415,"o":"m 400 -21 q 268 31 315 -21 q 197 189 221 82 l 15 1042 l 257 1042 l 413 289 q 417 283 414 283 q 421 289 419 283 l 539 878 q 600 1013 556 963 q 721 1063 644 1063 q 843 1013 799 1063 q 904 878 888 963 l 1022 299 q 1026 293 1024 293 q 1031 299 1029 293 l 1182 1042 l 1415 1042 l 1235 189 q 1165 31 1213 82 q 1032 -21 1117 -21 q 897 33 942 -21 q 832 188 853 88 l 721 733 q 717 739 719 739 q 713 733 714 739 l 600 188 q 535 33 579 88 q 400 -21 490 -21 m 629 1125 l 742 1338 l 985 1338 l 813 1125 l 629 1125 z "},"Ŵ":{"ha":1431,"x_min":15,"x_max":1415,"o":"m 400 -21 q 268 31 315 -21 q 197 189 221 82 l 15 1042 l 257 1042 l 413 289 q 417 283 414 283 q 421 289 419 283 l 539 878 q 600 1013 556 963 q 721 1063 644 1063 q 843 1013 799 1063 q 904 878 888 963 l 1022 299 q 1026 293 1024 293 q 1031 299 1029 293 l 1182 1042 l 1415 1042 l 1235 189 q 1165 31 1213 82 q 1032 -21 1117 -21 q 897 33 942 -21 q 832 188 853 88 l 721 733 q 717 739 719 739 q 713 733 714 739 l 600 188 q 535 33 579 88 q 400 -21 490 -21 m 456 1125 l 517 1206 q 569 1274 546 1244 q 626 1321 593 1304 q 714 1338 658 1338 q 802 1321 769 1338 q 859 1275 835 1304 q 913 1207 883 1246 l 975 1125 l 801 1125 l 715 1219 l 628 1125 l 456 1125 z "},"Ẅ":{"ha":1431,"x_min":15,"x_max":1415,"o":"m 400 -21 q 268 31 315 -21 q 197 189 221 82 l 15 1042 l 257 1042 l 413 289 q 417 283 414 283 q 421 289 419 283 l 539 878 q 600 1013 556 963 q 721 1063 644 1063 q 843 1013 799 1063 q 904 878 888 963 l 1022 299 q 1026 293 1024 293 q 1031 299 1029 293 l 1182 1042 l 1415 1042 l 1235 189 q 1165 31 1213 82 q 1032 -21 1117 -21 q 897 33 942 -21 q 832 188 853 88 l 721 733 q 717 739 719 739 q 713 733 714 739 l 600 188 q 535 33 579 88 q 400 -21 490 -21 m 567 1125 q 476 1157 513 1125 q 439 1240 439 1189 q 476 1322 439 1290 q 567 1354 513 1354 q 656 1322 619 1354 q 693 1240 693 1290 q 656 1157 693 1189 q 567 1125 619 1125 m 869 1125 q 778 1157 815 1125 q 742 1240 742 1189 q 778 1322 742 1290 q 869 1354 815 1354 q 959 1322 922 1354 q 996 1240 996 1290 q 959 1157 996 1189 q 869 1125 922 1125 z "},"Ẁ":{"ha":1431,"x_min":15,"x_max":1415,"o":"m 400 -21 q 268 31 315 -21 q 197 189 221 82 l 15 1042 l 257 1042 l 413 289 q 417 283 414 283 q 421 289 419 283 l 539 878 q 600 1013 556 963 q 721 1063 644 1063 q 843 1013 799 1063 q 904 878 888 963 l 1022 299 q 1026 293 1024 293 q 1031 299 1029 293 l 1182 1042 l 1415 1042 l 1235 189 q 1165 31 1213 82 q 1032 -21 1117 -21 q 897 33 942 -21 q 832 188 853 88 l 721 733 q 717 739 719 739 q 713 733 714 739 l 600 188 q 535 33 579 88 q 400 -21 490 -21 m 801 1125 l 618 1125 l 446 1338 l 689 1338 l 801 1125 z "},"Ŷ":{"ha":935,"x_min":-8,"x_max":943,"o":"m 350 0 l 350 425 l -8 1042 l 261 1042 l 469 649 l 675 1042 l 943 1042 l 579 426 l 579 0 l 350 0 m 208 1122 l 269 1203 q 322 1272 299 1242 q 378 1318 346 1301 q 467 1335 411 1335 q 555 1318 522 1335 q 612 1272 588 1301 q 665 1204 636 1243 l 728 1122 l 554 1122 l 468 1217 l 381 1122 l 208 1122 z "},"Ÿ":{"ha":935,"x_min":-8,"x_max":943,"o":"m 350 0 l 350 425 l -8 1042 l 261 1042 l 469 649 l 675 1042 l 943 1042 l 579 426 l 579 0 l 350 0 m 319 1122 q 228 1154 265 1122 q 192 1238 192 1186 q 228 1319 192 1288 q 319 1351 265 1351 q 409 1319 372 1351 q 446 1238 446 1288 q 409 1154 446 1186 q 319 1122 372 1122 m 622 1122 q 531 1154 568 1122 q 494 1238 494 1186 q 531 1319 494 1288 q 622 1351 568 1351 q 712 1319 675 1351 q 749 1238 749 1288 q 712 1154 749 1186 q 622 1122 675 1122 z "},"Ỵ":{"ha":935,"x_min":-8,"x_max":943,"o":"m 350 0 l 350 425 l -8 1042 l 261 1042 l 469 649 l 675 1042 l 943 1042 l 579 426 l 579 0 l 350 0 m 468 -300 q 381 -267 415 -300 q 347 -183 347 -235 q 381 -101 347 -133 q 468 -69 415 -69 q 554 -101 521 -69 q 588 -183 588 -133 q 554 -267 588 -235 q 468 -300 521 -300 z "},"Ỷ":{"ha":935,"x_min":-8,"x_max":943,"o":"m 350 0 l 350 425 l -8 1042 l 261 1042 l 469 649 l 675 1042 l 943 1042 l 579 426 l 579 0 l 350 0 m 393 1122 q 407 1162 393 1144 q 440 1190 421 1179 q 484 1217 465 1206 q 503 1243 503 1229 q 494 1263 503 1254 q 468 1271 485 1271 q 438 1258 450 1271 q 422 1225 425 1244 l 288 1225 q 340 1344 288 1299 q 468 1389 392 1389 q 591 1353 539 1389 q 643 1253 643 1318 q 627 1199 643 1222 q 569 1147 611 1175 q 554 1136 560 1142 q 546 1122 549 1131 l 393 1122 z "},"Ỹ":{"ha":935,"x_min":-8,"x_max":943,"o":"m 350 0 l 350 425 l -8 1042 l 261 1042 l 469 649 l 675 1042 l 943 1042 l 579 426 l 579 0 l 350 0 m 560 1115 q 487 1135 515 1115 q 439 1174 458 1154 q 399 1193 419 1193 q 381 1186 389 1193 q 374 1154 374 1179 l 374 1122 l 228 1122 l 228 1178 q 271 1303 228 1267 q 378 1339 314 1339 q 452 1320 425 1339 q 498 1283 479 1301 q 536 1264 517 1264 q 554 1272 547 1264 q 561 1300 561 1279 l 561 1328 l 708 1328 l 708 1276 q 665 1154 708 1193 q 560 1115 622 1115 z "},"Ź":{"ha":908,"x_min":42,"x_max":857,"o":"m 194 0 q 83 40 124 0 q 42 144 42 79 q 131 343 42 242 l 563 826 q 560 835 569 835 l 81 835 l 81 1042 l 681 1042 q 814 1005 771 1042 q 857 903 857 968 q 842 817 857 856 q 800 747 828 779 l 340 217 q 344 208 335 208 l 832 208 l 832 0 l 194 0 m 368 1125 l 481 1338 l 724 1338 l 551 1125 l 368 1125 z "},"Ž":{"ha":908,"x_min":42,"x_max":857,"o":"m 194 0 q 83 40 124 0 q 42 144 42 79 q 131 343 42 242 l 563 826 q 560 835 569 835 l 81 835 l 81 1042 l 681 1042 q 814 1005 771 1042 q 857 903 857 968 q 842 817 857 856 q 800 747 828 779 l 340 217 q 344 208 335 208 l 832 208 l 832 0 l 194 0 m 453 1125 q 365 1142 397 1125 q 308 1188 332 1158 q 256 1257 285 1218 l 194 1338 l 367 1338 l 454 1243 l 540 1338 l 714 1338 l 651 1256 q 598 1188 622 1218 q 541 1142 574 1158 q 453 1125 508 1125 z "},"Ż":{"ha":908,"x_min":42,"x_max":857,"o":"m 194 0 q 83 40 124 0 q 42 144 42 79 q 131 343 42 242 l 563 826 q 560 835 569 835 l 81 835 l 81 1042 l 681 1042 q 814 1005 771 1042 q 857 903 857 968 q 842 817 857 856 q 800 747 828 779 l 340 217 q 344 208 335 208 l 832 208 l 832 0 l 194 0 m 454 1125 q 363 1157 400 1125 q 326 1240 326 1189 q 363 1322 326 1290 q 454 1354 400 1354 q 544 1322 507 1354 q 581 1240 581 1290 q 544 1157 581 1189 q 454 1125 507 1125 z "},"ắ":{"ha":910,"x_min":44,"x_max":825,"o":"m 404 -21 q 217 33 299 -21 q 90 183 136 88 q 44 403 44 279 q 89 616 44 524 q 211 760 133 708 q 390 813 289 813 q 528 783 468 813 q 626 700 589 753 l 639 792 l 825 792 l 825 0 l 639 0 l 626 104 q 532 13 590 46 q 404 -21 474 -21 m 444 176 q 568 238 522 176 q 614 403 614 299 q 568 567 614 507 q 444 628 522 628 q 319 567 365 628 q 274 403 274 507 q 319 238 274 299 q 444 176 365 176 m 369 1117 l 482 1317 l 725 1317 l 553 1117 l 369 1117 m 449 861 q 274 919 339 861 q 208 1065 208 978 l 376 1065 q 396 1008 376 1029 q 449 986 415 986 q 503 1008 483 986 q 524 1065 524 1029 l 689 1065 q 624 919 689 978 q 449 861 560 861 z "},"ặ":{"ha":910,"x_min":44,"x_max":825,"o":"m 404 -21 q 217 33 299 -21 q 90 183 136 88 q 44 403 44 279 q 89 616 44 524 q 211 760 133 708 q 390 813 289 813 q 528 783 468 813 q 626 700 589 753 l 639 792 l 825 792 l 825 0 l 639 0 l 626 104 q 532 13 590 46 q 404 -21 474 -21 m 444 176 q 568 238 522 176 q 614 403 614 299 q 568 567 614 507 q 444 628 522 628 q 319 567 365 628 q 274 403 274 507 q 319 238 274 299 q 444 176 365 176 m 449 861 q 274 922 339 861 q 208 1088 208 983 l 376 1088 q 397 1015 376 1043 q 449 986 418 986 q 503 1015 482 986 q 524 1088 524 1043 l 689 1088 q 624 922 689 983 q 449 861 560 861 m 449 -300 q 362 -267 396 -300 q 328 -183 328 -235 q 362 -101 328 -133 q 449 -69 396 -69 q 535 -101 501 -69 q 568 -183 568 -133 q 535 -267 568 -235 q 449 -300 501 -300 z "},"ằ":{"ha":910,"x_min":44,"x_max":825,"o":"m 404 -21 q 217 33 299 -21 q 90 183 136 88 q 44 403 44 279 q 89 616 44 524 q 211 760 133 708 q 390 813 289 813 q 528 783 468 813 q 626 700 589 753 l 639 792 l 825 792 l 825 0 l 639 0 l 626 104 q 532 13 590 46 q 404 -21 474 -21 m 444 176 q 568 238 522 176 q 614 403 614 299 q 568 567 614 507 q 444 628 522 628 q 319 567 365 628 q 274 403 274 507 q 319 238 274 299 q 444 176 365 176 m 529 1117 l 346 1117 l 174 1317 l 417 1317 l 529 1117 m 449 861 q 274 919 339 861 q 208 1065 208 978 l 376 1065 q 396 1008 376 1029 q 449 986 415 986 q 503 1008 483 986 q 524 1065 524 1029 l 689 1065 q 624 919 689 978 q 449 861 560 861 z "},"ẳ":{"ha":910,"x_min":44,"x_max":825,"o":"m 404 -21 q 217 33 299 -21 q 90 183 136 88 q 44 403 44 279 q 89 616 44 524 q 211 760 133 708 q 390 813 289 813 q 528 783 468 813 q 626 700 589 753 l 639 792 l 825 792 l 825 0 l 639 0 l 626 104 q 532 13 590 46 q 404 -21 474 -21 m 444 176 q 568 238 522 176 q 614 403 614 299 q 568 567 614 507 q 444 628 522 628 q 319 567 365 628 q 274 403 274 507 q 319 238 274 299 q 444 176 365 176 m 376 1117 q 390 1154 376 1138 q 424 1181 404 1171 q 467 1206 449 1194 q 486 1231 486 1218 q 451 1257 486 1257 q 421 1244 433 1257 q 406 1214 408 1232 l 271 1214 q 323 1326 271 1283 q 451 1368 375 1368 q 574 1334 522 1368 q 626 1240 626 1300 q 610 1189 626 1211 q 553 1140 594 1167 q 529 1117 533 1129 l 376 1117 m 449 861 q 274 919 339 861 q 208 1065 208 978 l 376 1065 q 396 1008 376 1029 q 449 986 415 986 q 503 1008 483 986 q 524 1065 524 1029 l 689 1065 q 624 919 689 978 q 449 861 560 861 z "},"ẵ":{"ha":910,"x_min":44,"x_max":825,"o":"m 404 -21 q 217 33 299 -21 q 90 183 136 88 q 44 403 44 279 q 89 616 44 524 q 211 760 133 708 q 390 813 289 813 q 528 783 468 813 q 626 700 589 753 l 639 792 l 825 792 l 825 0 l 639 0 l 626 104 q 532 13 590 46 q 404 -21 474 -21 m 444 176 q 568 238 522 176 q 614 403 614 299 q 568 567 614 507 q 444 628 522 628 q 319 567 365 628 q 274 403 274 507 q 319 238 274 299 q 444 176 365 176 m 540 1125 q 467 1143 496 1125 q 419 1179 439 1161 q 379 1197 400 1197 q 362 1191 369 1197 q 354 1161 354 1185 l 354 1131 l 208 1131 l 208 1183 q 251 1301 208 1267 q 358 1335 294 1335 q 433 1317 406 1335 q 478 1282 460 1300 q 517 1264 497 1264 q 535 1272 528 1264 q 542 1299 542 1279 l 542 1325 l 689 1325 l 689 1276 q 646 1161 689 1197 q 540 1125 603 1125 m 449 861 q 274 919 339 861 q 208 1065 208 978 l 376 1065 q 396 1008 376 1029 q 449 986 415 986 q 503 1008 483 986 q 524 1065 524 1029 l 689 1065 q 624 919 689 978 q 449 861 560 861 z "},"ấ":{"ha":910,"x_min":44,"x_max":975,"o":"m 404 -21 q 217 33 299 -21 q 90 183 136 88 q 44 403 44 279 q 89 616 44 524 q 211 760 133 708 q 390 813 289 813 q 528 783 468 813 q 626 700 589 753 l 639 792 l 825 792 l 825 0 l 639 0 l 626 104 q 532 13 590 46 q 404 -21 474 -21 m 444 176 q 568 238 522 176 q 614 403 614 299 q 568 567 614 507 q 444 628 522 628 q 319 567 365 628 q 274 403 274 507 q 319 238 274 299 q 444 176 365 176 m 675 982 l 771 1182 l 975 1182 l 829 982 l 675 982 m 189 875 l 250 947 q 303 1009 279 982 q 359 1051 326 1036 q 447 1067 392 1067 q 535 1051 503 1067 q 592 1010 568 1036 q 646 949 617 983 l 708 875 l 535 875 l 449 960 l 361 875 l 189 875 z "},"ậ":{"ha":910,"x_min":44,"x_max":825,"o":"m 404 -21 q 217 33 299 -21 q 90 183 136 88 q 44 403 44 279 q 89 616 44 524 q 211 760 133 708 q 390 813 289 813 q 528 783 468 813 q 626 700 589 753 l 639 792 l 825 792 l 825 0 l 639 0 l 626 104 q 532 13 590 46 q 404 -21 474 -21 m 444 176 q 568 238 522 176 q 614 403 614 299 q 568 567 614 507 q 444 628 522 628 q 319 567 365 628 q 274 403 274 507 q 319 238 274 299 q 444 176 365 176 m 189 875 l 250 956 q 303 1024 279 994 q 359 1071 326 1054 q 447 1088 392 1088 q 535 1071 503 1088 q 592 1025 568 1054 q 646 957 617 996 l 708 875 l 535 875 l 449 969 l 361 875 l 189 875 m 449 -300 q 362 -267 396 -300 q 328 -183 328 -235 q 362 -101 328 -133 q 449 -69 396 -69 q 535 -101 501 -69 q 568 -183 568 -133 q 535 -267 568 -235 q 449 -300 501 -300 z "},"ầ":{"ha":910,"x_min":44,"x_max":856,"o":"m 404 -21 q 217 33 299 -21 q 90 183 136 88 q 44 403 44 279 q 89 616 44 524 q 211 760 133 708 q 390 813 289 813 q 528 783 468 813 q 626 700 589 753 l 639 792 l 825 792 l 825 0 l 639 0 l 626 104 q 532 13 590 46 q 404 -21 474 -21 m 444 176 q 568 238 522 176 q 614 403 614 299 q 568 567 614 507 q 444 628 522 628 q 319 567 365 628 q 274 403 274 507 q 319 238 274 299 q 444 176 365 176 m 856 982 l 701 982 l 556 1182 l 760 1182 l 856 982 m 189 875 l 250 947 q 303 1009 279 982 q 359 1051 326 1036 q 447 1067 392 1067 q 535 1051 503 1067 q 592 1010 568 1036 q 646 949 617 983 l 708 875 l 535 875 l 449 960 l 361 875 l 189 875 z "},"ẩ":{"ha":910,"x_min":44,"x_max":843,"o":"m 404 -21 q 217 33 299 -21 q 90 183 136 88 q 44 403 44 279 q 89 616 44 524 q 211 760 133 708 q 390 813 289 813 q 528 783 468 813 q 626 700 589 753 l 639 792 l 825 792 l 825 0 l 639 0 l 626 104 q 532 13 590 46 q 404 -21 474 -21 m 444 176 q 568 238 522 176 q 614 403 614 299 q 568 567 614 507 q 444 628 522 628 q 319 567 365 628 q 274 403 274 507 q 319 238 274 299 q 444 176 365 176 m 610 1032 q 625 1069 610 1056 q 658 1094 640 1083 q 687 1115 674 1106 q 700 1138 700 1125 q 688 1160 700 1151 q 654 1169 676 1169 q 596 1122 603 1169 l 458 1122 q 515 1238 458 1193 q 654 1282 571 1282 q 788 1247 732 1282 q 843 1150 843 1211 q 834 1112 843 1128 q 813 1085 825 1096 q 780 1059 799 1071 q 757 1032 761 1047 l 610 1032 m 189 875 l 250 947 q 303 1009 279 982 q 359 1051 326 1036 q 447 1067 392 1067 q 535 1051 503 1067 q 592 1010 568 1036 q 646 949 617 983 l 708 875 l 535 875 l 449 960 l 361 875 l 189 875 z "},"ẫ":{"ha":910,"x_min":44,"x_max":825,"o":"m 404 -21 q 217 33 299 -21 q 90 183 136 88 q 44 403 44 279 q 89 616 44 524 q 211 760 133 708 q 390 813 289 813 q 528 783 468 813 q 626 700 589 753 l 639 792 l 825 792 l 825 0 l 639 0 l 626 104 q 532 13 590 46 q 404 -21 474 -21 m 444 176 q 568 238 522 176 q 614 403 614 299 q 568 567 614 507 q 444 628 522 628 q 319 567 365 628 q 274 403 274 507 q 319 238 274 299 q 444 176 365 176 m 540 1110 q 467 1128 496 1110 q 419 1164 439 1146 q 379 1182 400 1182 q 362 1176 369 1182 q 354 1146 354 1169 l 354 1115 l 208 1115 l 208 1168 q 251 1285 208 1251 q 358 1319 294 1319 q 433 1302 406 1319 q 478 1267 460 1285 q 517 1249 497 1249 q 535 1256 528 1249 q 542 1283 542 1264 l 542 1310 l 689 1310 l 689 1261 q 646 1146 689 1182 q 540 1110 603 1110 m 189 875 l 250 947 q 303 1009 279 982 q 359 1051 326 1036 q 447 1067 392 1067 q 535 1051 503 1067 q 592 1010 568 1036 q 646 949 617 983 l 708 875 l 535 875 l 449 960 l 361 875 l 189 875 z "},"ä":{"ha":910,"x_min":44,"x_max":825,"o":"m 404 -21 q 217 33 299 -21 q 90 183 136 88 q 44 403 44 279 q 89 616 44 524 q 211 760 133 708 q 390 813 289 813 q 528 783 468 813 q 626 700 589 753 l 639 792 l 825 792 l 825 0 l 639 0 l 626 104 q 532 13 590 46 q 404 -21 474 -21 m 444 176 q 568 238 522 176 q 614 403 614 299 q 568 567 614 507 q 444 628 522 628 q 319 567 365 628 q 274 403 274 507 q 319 238 274 299 q 444 176 365 176 m 300 875 q 209 907 246 875 q 172 990 172 939 q 209 1072 172 1040 q 300 1104 246 1104 q 390 1072 353 1104 q 426 990 426 1040 q 390 907 426 939 q 300 875 353 875 m 603 875 q 512 907 549 875 q 475 990 475 939 q 512 1072 475 1040 q 603 1104 549 1104 q 692 1072 656 1104 q 729 990 729 1040 q 692 907 729 939 q 603 875 656 875 z "},"ạ":{"ha":910,"x_min":44,"x_max":825,"o":"m 404 -21 q 217 33 299 -21 q 90 183 136 88 q 44 403 44 279 q 89 616 44 524 q 211 760 133 708 q 390 813 289 813 q 528 783 468 813 q 626 700 589 753 l 639 792 l 825 792 l 825 0 l 639 0 l 626 104 q 532 13 590 46 q 404 -21 474 -21 m 444 176 q 568 238 522 176 q 614 403 614 299 q 568 567 614 507 q 444 628 522 628 q 319 567 365 628 q 274 403 274 507 q 319 238 274 299 q 444 176 365 176 m 449 -300 q 362 -267 396 -300 q 328 -183 328 -235 q 362 -101 328 -133 q 449 -69 396 -69 q 535 -101 501 -69 q 568 -183 568 -133 q 535 -267 568 -235 q 449 -300 501 -300 z "},"ả":{"ha":910,"x_min":44,"x_max":825,"o":"m 404 -21 q 217 33 299 -21 q 90 183 136 88 q 44 403 44 279 q 89 616 44 524 q 211 760 133 708 q 390 813 289 813 q 528 783 468 813 q 626 700 589 753 l 639 792 l 825 792 l 825 0 l 639 0 l 626 104 q 532 13 590 46 q 404 -21 474 -21 m 444 176 q 568 238 522 176 q 614 403 614 299 q 568 567 614 507 q 444 628 522 628 q 319 567 365 628 q 274 403 274 507 q 319 238 274 299 q 444 176 365 176 m 374 875 q 388 915 374 897 q 421 943 401 932 q 465 970 446 958 q 483 996 483 982 q 474 1015 483 1007 q 449 1024 465 1024 q 418 1010 431 1024 q 403 978 406 997 l 268 978 q 320 1097 268 1051 q 449 1142 372 1142 q 572 1106 519 1142 q 624 1006 624 1071 q 608 951 624 975 q 550 900 592 928 q 535 889 540 894 q 526 875 529 883 l 374 875 z "},"ā":{"ha":910,"x_min":44,"x_max":825,"o":"m 404 -21 q 217 33 299 -21 q 90 183 136 88 q 44 403 44 279 q 89 616 44 524 q 211 760 133 708 q 390 813 289 813 q 528 783 468 813 q 626 700 589 753 l 639 792 l 825 792 l 825 0 l 639 0 l 626 104 q 532 13 590 46 q 404 -21 474 -21 m 444 176 q 568 238 522 176 q 614 403 614 299 q 568 567 614 507 q 444 628 522 628 q 319 567 365 628 q 274 403 274 507 q 319 238 274 299 q 444 176 365 176 m 232 903 l 232 1088 l 665 1088 l 665 903 l 232 903 z "},"ą":{"ha":910,"x_min":44,"x_max":825,"o":"m 404 -21 q 217 33 299 -21 q 90 183 136 88 q 44 403 44 279 q 89 616 44 524 q 211 760 133 708 q 390 813 289 813 q 528 783 468 813 q 626 700 589 753 l 639 792 l 825 792 l 825 0 l 639 0 l 626 104 q 532 13 590 46 q 404 -21 474 -21 m 444 176 q 568 238 522 176 q 614 403 614 299 q 568 567 614 507 q 444 628 522 628 q 319 567 365 628 q 274 403 274 507 q 319 238 274 299 q 444 176 365 176 m 732 -365 q 601 -339 658 -365 q 513 -267 544 -312 q 481 -164 481 -221 q 519 -53 481 -110 q 639 44 558 4 l 825 0 q 746 -54 774 -28 q 718 -111 718 -81 q 815 -179 718 -179 l 815 -361 q 774 -364 797 -362 q 732 -365 751 -365 z "},"å":{"ha":910,"x_min":44,"x_max":825,"o":"m 404 -21 q 217 33 299 -21 q 90 183 136 88 q 44 403 44 279 q 89 616 44 524 q 211 760 133 708 q 390 813 289 813 q 528 783 468 813 q 626 700 589 753 l 639 792 l 825 792 l 825 0 l 639 0 l 626 104 q 532 13 590 46 q 404 -21 474 -21 m 444 176 q 568 238 522 176 q 614 403 614 299 q 568 567 614 507 q 444 628 522 628 q 319 567 365 628 q 274 403 274 507 q 319 238 274 299 q 444 176 365 176 m 449 864 q 338 906 385 864 q 292 1014 292 949 q 338 1123 292 1081 q 449 1165 385 1165 q 560 1123 514 1165 q 606 1014 606 1081 q 560 906 606 949 q 449 864 514 864 m 449 965 q 482 980 468 965 q 496 1014 496 994 q 482 1048 496 1035 q 449 1061 468 1061 q 415 1048 429 1061 q 401 1014 401 1035 q 415 980 401 994 q 449 965 429 965 z "},"æ":{"ha":1313,"x_min":44,"x_max":1281,"o":"m 353 -17 q 193 20 263 -17 q 84 121 124 57 q 44 268 44 185 q 80 408 44 347 q 179 504 115 469 q 325 539 243 539 q 415 528 369 539 q 488 497 460 517 q 426 594 476 571 q 299 618 375 618 q 223 615 257 618 q 151 607 189 611 l 151 800 q 264 810 208 808 q 344 813 319 813 q 626 715 532 813 q 745 788 676 763 q 896 813 814 813 q 1106 757 1019 813 q 1237 596 1193 701 q 1274 342 1281 490 l 729 342 q 788 203 740 253 q 910 153 835 153 q 1010 183 971 153 q 1058 256 1049 213 l 1268 256 q 1203 108 1254 169 q 1075 13 1153 46 q 900 -21 997 -21 q 738 8 810 -21 q 613 89 665 36 q 505 13 576 43 q 353 -17 433 -17 m 897 640 q 785 597 829 640 q 729 479 740 553 l 1051 479 q 1000 603 1046 567 q 897 640 954 640 m 385 169 q 474 199 439 169 q 508 272 508 228 q 474 345 508 317 q 385 374 439 374 q 294 345 329 374 q 260 272 260 317 q 294 199 260 228 q 385 169 329 169 z "},"ć":{"ha":808,"x_min":44,"x_max":786,"o":"m 426 -21 q 225 32 311 -21 q 92 178 139 85 q 44 393 44 272 q 92 610 44 515 q 226 758 139 704 q 436 813 314 813 q 615 774 539 813 q 733 663 690 735 q 775 490 775 590 l 560 490 q 525 583 560 547 q 433 618 490 618 q 317 558 361 618 q 274 394 274 497 q 317 233 274 293 q 433 174 360 174 q 531 209 492 174 q 571 296 571 244 l 786 296 q 763 185 786 242 q 693 83 739 129 q 580 8 647 36 q 426 -21 513 -21 m 346 875 l 458 1088 l 701 1088 l 529 875 l 346 875 z "},"č":{"ha":808,"x_min":44,"x_max":786,"o":"m 426 -21 q 225 32 311 -21 q 92 178 139 85 q 44 393 44 272 q 92 610 44 515 q 226 758 139 704 q 436 813 314 813 q 615 774 539 813 q 733 663 690 735 q 775 490 775 590 l 560 490 q 525 583 560 547 q 433 618 490 618 q 317 558 361 618 q 274 394 274 497 q 317 233 274 293 q 433 174 360 174 q 531 209 492 174 q 571 296 571 244 l 786 296 q 763 185 786 242 q 693 83 739 129 q 580 8 647 36 q 426 -21 513 -21 m 431 875 q 342 892 375 875 q 286 938 310 908 q 233 1007 263 968 l 172 1088 l 344 1088 l 432 993 l 518 1088 l 692 1088 l 629 1006 q 576 938 600 968 q 519 892 551 908 q 431 875 486 875 z "},"ç":{"ha":808,"x_min":44,"x_max":786,"o":"m 426 -21 q 225 32 311 -21 q 92 178 139 85 q 44 393 44 272 q 92 610 44 515 q 226 758 139 704 q 436 813 314 813 q 615 774 539 813 q 733 663 690 735 q 775 490 775 590 l 560 490 q 525 583 560 547 q 433 618 490 618 q 317 558 361 618 q 274 394 274 497 q 317 233 274 293 q 433 174 360 174 q 531 209 492 174 q 571 296 571 244 l 786 296 q 763 185 786 242 q 693 83 739 129 q 580 8 647 36 q 426 -21 513 -21 m 278 -404 l 278 -257 l 374 -257 q 399 -249 389 -257 q 410 -226 410 -240 q 374 -199 410 -199 l 367 -199 q 312 -179 335 -199 q 289 -129 289 -160 q 304 -72 289 -106 l 340 0 l 503 0 l 463 -86 q 549 -131 513 -96 q 585 -233 585 -167 q 532 -361 585 -318 q 393 -404 479 -404 l 278 -404 z "},"ċ":{"ha":808,"x_min":44,"x_max":786,"o":"m 426 -21 q 225 32 311 -21 q 92 178 139 85 q 44 393 44 272 q 92 610 44 515 q 226 758 139 704 q 436 813 314 813 q 615 774 539 813 q 733 663 690 735 q 775 490 775 590 l 560 490 q 525 583 560 547 q 433 618 490 618 q 317 558 361 618 q 274 394 274 497 q 317 233 274 293 q 433 174 360 174 q 531 209 492 174 q 571 296 571 244 l 786 296 q 763 185 786 242 q 693 83 739 129 q 580 8 647 36 q 426 -21 513 -21 m 432 875 q 341 907 378 875 q 304 990 304 939 q 341 1072 304 1040 q 432 1104 378 1104 q 522 1072 485 1104 q 558 990 558 1040 q 522 907 558 939 q 432 875 485 875 z "},"ď":{"ha":931,"x_min":44,"x_max":1151,"o":"m 954 1067 l 1151 1042 l 1097 719 l 913 744 l 954 1067 m 418 -21 q 224 33 308 -21 q 92 181 140 86 q 44 400 44 276 q 89 614 44 521 q 213 760 133 707 q 393 813 292 813 q 523 788 464 813 q 621 713 582 763 l 621 1042 l 846 1042 l 846 0 l 656 0 l 639 108 q 418 -21 567 -21 m 451 176 q 575 238 529 176 q 621 403 621 299 q 575 567 621 507 q 451 628 529 628 q 322 567 369 628 q 274 403 274 507 q 322 238 274 299 q 451 176 369 176 z "},"ð":{"ha":833,"x_min":44,"x_max":856,"o":"m 450 -21 q 240 27 332 -21 q 97 159 149 75 q 44 351 44 243 q 96 548 44 463 q 238 681 147 633 q 443 729 328 729 l 379 792 l 111 732 l 78 881 l 243 917 q 196 960 221 938 q 143 1006 171 982 l 428 1006 l 474 968 l 711 1021 l 746 872 l 614 843 q 789 626 722 736 q 856 379 856 515 q 803 167 856 257 q 660 28 751 76 q 450 -21 569 -21 m 450 174 q 577 223 528 174 q 626 351 626 272 q 577 484 626 433 q 450 535 528 535 q 323 484 372 535 q 274 351 274 433 q 323 223 274 272 q 450 174 372 174 z "},"ě":{"ha":854,"x_min":44,"x_max":822,"o":"m 442 -21 q 232 30 321 -21 q 94 174 143 81 q 44 396 44 268 q 93 617 44 524 q 230 761 142 710 q 438 813 318 813 q 648 757 561 813 q 778 596 735 701 q 815 342 822 490 l 271 342 q 329 203 282 253 q 451 153 376 153 q 551 183 513 153 q 600 256 590 213 l 810 256 q 745 108 796 169 q 617 13 694 46 q 442 -21 539 -21 m 439 640 q 326 597 371 640 q 271 479 282 553 l 593 479 q 542 603 588 567 q 439 640 496 640 m 436 875 q 348 892 381 875 q 292 938 315 908 q 239 1007 268 968 l 178 1088 l 350 1088 l 438 993 l 524 1088 l 697 1088 l 635 1006 q 581 938 606 968 q 524 892 557 908 q 436 875 492 875 z "},"ế":{"ha":854,"x_min":44,"x_max":964,"o":"m 442 -21 q 232 30 321 -21 q 94 174 143 81 q 44 396 44 268 q 93 617 44 524 q 230 761 142 710 q 438 813 318 813 q 648 757 561 813 q 778 596 735 701 q 815 342 822 490 l 271 342 q 329 203 282 253 q 451 153 376 153 q 551 183 513 153 q 600 256 590 213 l 810 256 q 745 108 796 169 q 617 13 694 46 q 442 -21 539 -21 m 439 640 q 326 597 371 640 q 271 479 282 553 l 593 479 q 542 603 588 567 q 439 640 496 640 m 664 982 l 760 1182 l 964 1182 l 818 982 l 664 982 m 178 875 l 239 947 q 292 1009 268 982 q 348 1051 315 1036 q 436 1067 381 1067 q 524 1051 492 1067 q 581 1010 557 1036 q 635 949 606 983 l 697 875 l 524 875 l 438 960 l 350 875 l 178 875 z "},"ệ":{"ha":854,"x_min":44,"x_max":822,"o":"m 442 -21 q 232 30 321 -21 q 94 174 143 81 q 44 396 44 268 q 93 617 44 524 q 230 761 142 710 q 438 813 318 813 q 648 757 561 813 q 778 596 735 701 q 815 342 822 490 l 271 342 q 329 203 282 253 q 451 153 376 153 q 551 183 513 153 q 600 256 590 213 l 810 256 q 745 108 796 169 q 617 13 694 46 q 442 -21 539 -21 m 439 640 q 326 597 371 640 q 271 479 282 553 l 593 479 q 542 603 588 567 q 439 640 496 640 m 178 875 l 239 956 q 292 1024 268 994 q 348 1071 315 1054 q 436 1088 381 1088 q 524 1071 492 1088 q 581 1025 557 1054 q 635 957 606 996 l 697 875 l 524 875 l 438 969 l 350 875 l 178 875 m 438 -300 q 351 -267 385 -300 q 317 -183 317 -235 q 351 -101 317 -133 q 438 -69 385 -69 q 524 -101 490 -69 q 557 -183 557 -133 q 524 -267 557 -235 q 438 -300 490 -300 z "},"ề":{"ha":854,"x_min":44,"x_max":844,"o":"m 442 -21 q 232 30 321 -21 q 94 174 143 81 q 44 396 44 268 q 93 617 44 524 q 230 761 142 710 q 438 813 318 813 q 648 757 561 813 q 778 596 735 701 q 815 342 822 490 l 271 342 q 329 203 282 253 q 451 153 376 153 q 551 183 513 153 q 600 256 590 213 l 810 256 q 745 108 796 169 q 617 13 694 46 q 442 -21 539 -21 m 439 640 q 326 597 371 640 q 271 479 282 553 l 593 479 q 542 603 588 567 q 439 640 496 640 m 844 982 l 690 982 l 544 1182 l 749 1182 l 844 982 m 178 875 l 239 947 q 292 1009 268 982 q 348 1051 315 1036 q 436 1067 381 1067 q 524 1051 492 1067 q 581 1010 557 1036 q 635 949 606 983 l 697 875 l 524 875 l 438 960 l 350 875 l 178 875 z "},"ể":{"ha":854,"x_min":44,"x_max":832,"o":"m 442 -21 q 232 30 321 -21 q 94 174 143 81 q 44 396 44 268 q 93 617 44 524 q 230 761 142 710 q 438 813 318 813 q 648 757 561 813 q 778 596 735 701 q 815 342 822 490 l 271 342 q 329 203 282 253 q 451 153 376 153 q 551 183 513 153 q 600 256 590 213 l 810 256 q 745 108 796 169 q 617 13 694 46 q 442 -21 539 -21 m 439 640 q 326 597 371 640 q 271 479 282 553 l 593 479 q 542 603 588 567 q 439 640 496 640 m 599 1032 q 614 1069 599 1056 q 647 1094 629 1083 q 676 1115 663 1106 q 689 1138 689 1125 q 677 1160 689 1151 q 643 1169 665 1169 q 585 1122 592 1169 l 447 1122 q 503 1238 447 1193 q 643 1282 560 1282 q 776 1247 721 1282 q 832 1150 832 1211 q 823 1112 832 1128 q 801 1085 814 1096 q 769 1059 788 1071 q 746 1032 750 1047 l 599 1032 m 178 875 l 239 947 q 292 1009 268 982 q 348 1051 315 1036 q 436 1067 381 1067 q 524 1051 492 1067 q 581 1010 557 1036 q 635 949 606 983 l 697 875 l 524 875 l 438 960 l 350 875 l 178 875 z "},"ễ":{"ha":854,"x_min":44,"x_max":822,"o":"m 442 -21 q 232 30 321 -21 q 94 174 143 81 q 44 396 44 268 q 93 617 44 524 q 230 761 142 710 q 438 813 318 813 q 648 757 561 813 q 778 596 735 701 q 815 342 822 490 l 271 342 q 329 203 282 253 q 451 153 376 153 q 551 183 513 153 q 600 256 590 213 l 810 256 q 745 108 796 169 q 617 13 694 46 q 442 -21 539 -21 m 439 640 q 326 597 371 640 q 271 479 282 553 l 593 479 q 542 603 588 567 q 439 640 496 640 m 529 1110 q 456 1128 485 1110 q 408 1164 428 1146 q 368 1182 389 1182 q 351 1176 358 1182 q 343 1146 343 1169 l 343 1115 l 197 1115 l 197 1168 q 240 1285 197 1251 q 347 1319 283 1319 q 422 1302 394 1319 q 467 1267 449 1285 q 506 1249 486 1249 q 524 1256 517 1249 q 531 1283 531 1264 l 531 1310 l 678 1310 l 678 1261 q 635 1146 678 1182 q 529 1110 592 1110 m 178 875 l 239 947 q 292 1009 268 982 q 348 1051 315 1036 q 436 1067 381 1067 q 524 1051 492 1067 q 581 1010 557 1036 q 635 949 606 983 l 697 875 l 524 875 l 438 960 l 350 875 l 178 875 z "},"ë":{"ha":854,"x_min":44,"x_max":822,"o":"m 442 -21 q 232 30 321 -21 q 94 174 143 81 q 44 396 44 268 q 93 617 44 524 q 230 761 142 710 q 438 813 318 813 q 648 757 561 813 q 778 596 735 701 q 815 342 822 490 l 271 342 q 329 203 282 253 q 451 153 376 153 q 551 183 513 153 q 600 256 590 213 l 810 256 q 745 108 796 169 q 617 13 694 46 q 442 -21 539 -21 m 439 640 q 326 597 371 640 q 271 479 282 553 l 593 479 q 542 603 588 567 q 439 640 496 640 m 289 875 q 198 907 235 875 q 161 990 161 939 q 198 1072 161 1040 q 289 1104 235 1104 q 378 1072 342 1104 q 415 990 415 1040 q 378 907 415 939 q 289 875 342 875 m 592 875 q 501 907 538 875 q 464 990 464 939 q 501 1072 464 1040 q 592 1104 538 1104 q 681 1072 644 1104 q 718 990 718 1040 q 681 907 718 939 q 592 875 644 875 z "},"ė":{"ha":854,"x_min":44,"x_max":822,"o":"m 442 -21 q 232 30 321 -21 q 94 174 143 81 q 44 396 44 268 q 93 617 44 524 q 230 761 142 710 q 438 813 318 813 q 648 757 561 813 q 778 596 735 701 q 815 342 822 490 l 271 342 q 329 203 282 253 q 451 153 376 153 q 551 183 513 153 q 600 256 590 213 l 810 256 q 745 108 796 169 q 617 13 694 46 q 442 -21 539 -21 m 439 640 q 326 597 371 640 q 271 479 282 553 l 593 479 q 542 603 588 567 q 439 640 496 640 m 438 875 q 347 907 383 875 q 310 990 310 939 q 347 1072 310 1040 q 438 1104 383 1104 q 527 1072 490 1104 q 564 990 564 1040 q 527 907 564 939 q 438 875 490 875 z "},"ẹ":{"ha":854,"x_min":44,"x_max":822,"o":"m 442 -21 q 232 30 321 -21 q 94 174 143 81 q 44 396 44 268 q 93 617 44 524 q 230 761 142 710 q 438 813 318 813 q 648 757 561 813 q 778 596 735 701 q 815 342 822 490 l 271 342 q 329 203 282 253 q 451 153 376 153 q 551 183 513 153 q 600 256 590 213 l 810 256 q 745 108 796 169 q 617 13 694 46 q 442 -21 539 -21 m 439 640 q 326 597 371 640 q 271 479 282 553 l 593 479 q 542 603 588 567 q 439 640 496 640 m 438 -300 q 351 -267 385 -300 q 317 -183 317 -235 q 351 -101 317 -133 q 438 -69 385 -69 q 524 -101 490 -69 q 557 -183 557 -133 q 524 -267 557 -235 q 438 -300 490 -300 z "},"ẻ":{"ha":854,"x_min":44,"x_max":822,"o":"m 442 -21 q 232 30 321 -21 q 94 174 143 81 q 44 396 44 268 q 93 617 44 524 q 230 761 142 710 q 438 813 318 813 q 648 757 561 813 q 778 596 735 701 q 815 342 822 490 l 271 342 q 329 203 282 253 q 451 153 376 153 q 551 183 513 153 q 600 256 590 213 l 810 256 q 745 108 796 169 q 617 13 694 46 q 442 -21 539 -21 m 439 640 q 326 597 371 640 q 271 479 282 553 l 593 479 q 542 603 588 567 q 439 640 496 640 m 363 875 q 376 915 363 897 q 410 943 390 932 q 453 970 435 958 q 472 996 472 982 q 463 1015 472 1007 q 438 1024 454 1024 q 407 1010 419 1024 q 392 978 394 997 l 257 978 q 309 1097 257 1051 q 438 1142 361 1142 q 560 1106 508 1142 q 613 1006 613 1071 q 597 951 613 975 q 539 900 581 928 q 524 889 529 894 q 515 875 518 883 l 363 875 z "},"ē":{"ha":854,"x_min":44,"x_max":822,"o":"m 442 -21 q 232 30 321 -21 q 94 174 143 81 q 44 396 44 268 q 93 617 44 524 q 230 761 142 710 q 438 813 318 813 q 648 757 561 813 q 778 596 735 701 q 815 342 822 490 l 271 342 q 329 203 282 253 q 451 153 376 153 q 551 183 513 153 q 600 256 590 213 l 810 256 q 745 108 796 169 q 617 13 694 46 q 442 -21 539 -21 m 439 640 q 326 597 371 640 q 271 479 282 553 l 593 479 q 542 603 588 567 q 439 640 496 640 m 221 903 l 221 1088 l 654 1088 l 654 903 l 221 903 z "},"ę":{"ha":854,"x_min":44,"x_max":822,"o":"m 442 -21 q 232 30 321 -21 q 94 174 143 81 q 44 396 44 268 q 93 617 44 524 q 230 761 142 710 q 438 813 318 813 q 648 757 561 813 q 778 596 735 701 q 815 342 822 490 l 271 342 q 329 203 282 253 q 451 153 376 153 q 551 183 513 153 q 600 256 590 213 l 810 256 q 745 108 796 169 q 617 13 694 46 q 442 -21 539 -21 m 439 640 q 326 597 371 640 q 271 479 282 553 l 593 479 q 542 603 588 567 q 439 640 496 640 m 578 -324 q 447 -297 504 -324 q 358 -225 390 -271 q 326 -122 326 -179 q 365 -11 326 -68 q 485 86 404 46 l 671 42 q 592 -12 619 14 q 564 -69 564 -39 q 661 -137 564 -137 l 661 -319 q 620 -322 643 -321 q 578 -324 597 -324 z "},"ẽ":{"ha":854,"x_min":44,"x_max":822,"o":"m 442 -21 q 232 30 321 -21 q 94 174 143 81 q 44 396 44 268 q 93 617 44 524 q 230 761 142 710 q 438 813 318 813 q 648 757 561 813 q 778 596 735 701 q 815 342 822 490 l 271 342 q 329 203 282 253 q 451 153 376 153 q 551 183 513 153 q 600 256 590 213 l 810 256 q 745 108 796 169 q 617 13 694 46 q 442 -21 539 -21 m 439 640 q 326 597 371 640 q 271 479 282 553 l 593 479 q 542 603 588 567 q 439 640 496 640 m 529 868 q 456 888 485 868 q 408 926 428 907 q 368 946 389 946 q 351 939 358 946 q 343 907 343 932 l 343 875 l 197 875 l 197 931 q 240 1056 197 1019 q 347 1092 283 1092 q 422 1073 394 1092 q 467 1035 449 1054 q 506 1017 486 1017 q 524 1024 517 1017 q 531 1053 531 1032 l 531 1081 l 678 1081 l 678 1029 q 635 907 678 946 q 529 868 592 868 z "},"ğ":{"ha":889,"x_min":46,"x_max":804,"o":"m 368 65 q 205 111 278 65 q 89 241 132 157 q 46 439 46 325 q 90 634 46 550 q 211 765 135 718 q 382 813 288 813 q 505 785 451 813 q 596 708 558 757 l 606 792 l 804 792 l 804 72 q 756 -106 804 -28 q 620 -227 707 -183 q 415 -271 533 -271 q 247 -235 325 -271 q 122 -133 169 -199 q 71 18 74 -68 l 267 18 q 319 -65 283 -39 q 415 -90 356 -90 q 535 -48 489 -90 q 581 72 581 -6 l 581 169 q 499 94 550 124 q 368 65 447 65 m 424 242 q 539 292 497 242 q 581 426 581 343 q 539 564 581 508 q 424 619 497 619 q 313 565 351 619 q 275 426 275 511 q 313 292 275 343 q 424 242 350 242 m 444 861 q 269 922 335 861 q 204 1088 204 983 l 372 1088 q 393 1015 372 1043 q 444 986 414 986 q 499 1015 478 986 q 519 1088 519 1043 l 685 1088 q 620 922 685 983 q 444 861 556 861 z "},"ģ":{"ha":889,"x_min":46,"x_max":804,"o":"m 368 65 q 205 111 278 65 q 89 241 132 157 q 46 439 46 325 q 90 634 46 550 q 211 765 135 718 q 382 813 288 813 q 505 785 451 813 q 596 708 558 757 l 606 792 l 804 792 l 804 72 q 756 -106 804 -28 q 620 -227 707 -183 q 415 -271 533 -271 q 247 -235 325 -271 q 122 -133 169 -199 q 71 18 74 -68 l 267 18 q 319 -65 283 -39 q 415 -90 356 -90 q 535 -48 489 -90 q 581 72 581 -6 l 581 169 q 499 94 550 124 q 368 65 447 65 m 424 242 q 539 292 497 242 q 581 426 581 343 q 539 564 581 508 q 424 619 497 619 q 313 565 351 619 q 275 426 275 511 q 313 292 275 343 q 424 242 350 242 m 315 -769 q 376 -676 350 -722 q 421 -586 403 -631 q 303 -456 303 -565 q 342 -357 303 -394 q 443 -319 381 -319 q 547 -361 508 -319 q 586 -475 586 -403 q 552 -606 586 -526 q 460 -769 518 -685 l 315 -769 z "},"ġ":{"ha":889,"x_min":46,"x_max":804,"o":"m 368 65 q 205 111 278 65 q 89 241 132 157 q 46 439 46 325 q 90 634 46 550 q 211 765 135 718 q 382 813 288 813 q 505 785 451 813 q 596 708 558 757 l 606 792 l 804 792 l 804 72 q 756 -106 804 -28 q 620 -227 707 -183 q 415 -271 533 -271 q 247 -235 325 -271 q 122 -133 169 -199 q 71 18 74 -68 l 267 18 q 319 -65 283 -39 q 415 -90 356 -90 q 535 -48 489 -90 q 581 72 581 -6 l 581 169 q 499 94 550 124 q 368 65 447 65 m 424 242 q 539 292 497 242 q 581 426 581 343 q 539 564 581 508 q 424 619 497 619 q 313 565 351 619 q 275 426 275 511 q 313 292 275 343 q 424 242 350 242 m 444 875 q 353 907 390 875 q 317 990 317 939 q 353 1072 317 1040 q 444 1104 390 1104 q 534 1072 497 1104 q 571 990 571 1040 q 534 907 571 939 q 444 875 497 875 z "},"ħ":{"ha":893,"x_min":-17,"x_max":813,"o":"m 85 0 l 85 831 l -17 831 l -17 979 l 85 979 l 85 1042 l 310 1042 l 310 979 l 438 979 l 438 831 l 310 831 l 310 700 q 401 783 347 754 q 522 813 456 813 q 676 775 611 813 q 777 671 742 738 q 813 517 813 604 l 813 0 l 588 0 l 588 471 q 551 579 588 539 q 450 619 514 619 q 347 573 385 619 q 310 450 310 526 l 310 0 l 85 0 z "},"ı":{"ha":383,"x_min":85,"x_max":310,"o":"m 85 0 l 85 792 l 310 792 l 310 0 l 85 0 z "},"î":{"ha":383,"x_min":-68,"x_max":451,"o":"m 85 0 l 85 792 l 310 792 l 310 0 l 85 0 m -68 875 l -7 956 q 46 1024 22 994 q 102 1071 69 1054 q 190 1088 135 1088 q 278 1071 246 1088 q 335 1025 311 1054 q 389 957 360 996 l 451 875 l 278 875 l 192 969 l 104 875 l -68 875 z "},"ï":{"ha":383,"x_min":-85,"x_max":472,"o":"m 85 0 l 85 792 l 310 792 l 310 0 l 85 0 m 43 875 q -48 907 -11 875 q -85 990 -85 939 q -48 1072 -85 1040 q 43 1104 -11 1104 q 133 1072 96 1104 q 169 990 169 1040 q 133 907 169 939 q 43 875 96 875 m 346 875 q 255 907 292 875 q 218 990 218 939 q 255 1072 218 1040 q 346 1104 292 1104 q 435 1072 399 1104 q 472 990 472 1040 q 435 907 472 939 q 346 875 399 875 z "},"ị":{"ha":383,"x_min":64,"x_max":318,"o":"m 192 878 q 101 910 138 878 q 64 993 64 942 q 101 1075 64 1043 q 192 1107 138 1107 q 281 1075 244 1107 q 318 993 318 1043 q 281 910 318 942 q 192 878 244 878 m 79 0 l 79 792 l 304 792 l 304 0 l 79 0 m 192 -300 q 105 -267 139 -300 q 71 -183 71 -235 q 105 -101 71 -133 q 192 -69 139 -69 q 278 -101 244 -69 q 311 -183 311 -133 q 278 -267 311 -235 q 192 -300 244 -300 z "},"ỉ":{"ha":383,"x_min":11,"x_max":367,"o":"m 85 0 l 85 792 l 310 792 l 310 0 l 85 0 m 117 875 q 131 915 117 897 q 164 943 144 932 q 208 970 189 958 q 226 996 226 982 q 217 1015 226 1007 q 192 1024 208 1024 q 161 1010 174 1024 q 146 978 149 997 l 11 978 q 63 1097 11 1051 q 192 1142 115 1142 q 315 1106 263 1142 q 367 1006 367 1071 q 351 951 367 975 q 293 900 335 928 q 278 889 283 894 q 269 875 272 883 l 117 875 z "},"ī":{"ha":383,"x_min":-25,"x_max":408,"o":"m 85 0 l 85 792 l 310 792 l 310 0 l 85 0 m -25 903 l -25 1088 l 408 1088 l 408 903 l -25 903 z "},"į":{"ha":383,"x_min":-40,"x_max":318,"o":"m 192 878 q 101 910 138 878 q 64 993 64 942 q 101 1075 64 1043 q 192 1107 138 1107 q 281 1075 244 1107 q 318 993 318 1043 q 281 910 318 942 q 192 878 244 878 m 79 0 l 79 792 l 304 792 l 304 0 l 79 0 m 211 -365 q 81 -339 138 -365 q -8 -267 24 -312 q -40 -164 -40 -221 q -1 -53 -40 -110 q 118 44 38 4 l 304 0 q 225 -54 253 -28 q 197 -111 197 -81 q 294 -179 197 -179 l 294 -361 q 253 -364 276 -362 q 211 -365 231 -365 z "},"ȷ":{"ha":471,"x_min":64,"x_max":406,"o":"m 64 -250 l 64 -56 l 126 -56 q 168 -40 156 -56 q 181 0 181 -24 l 181 792 l 406 792 l 406 0 q 339 -190 406 -129 q 126 -250 272 -250 l 64 -250 z "},"ķ":{"ha":840,"x_min":85,"x_max":832,"o":"m 85 0 l 85 1042 l 310 1042 l 310 501 l 540 792 l 814 792 l 564 494 l 832 0 l 576 0 l 418 319 l 310 192 l 310 0 l 85 0 m 292 -519 q 353 -426 326 -472 q 397 -336 379 -381 q 279 -206 279 -315 q 318 -107 279 -144 q 419 -69 357 -69 q 524 -111 485 -69 q 563 -225 563 -153 q 528 -356 563 -276 q 436 -519 494 -435 l 292 -519 z "},"ĺ":{"ha":496,"x_min":85,"x_max":463,"o":"m 300 0 q 144 59 203 0 q 85 215 85 118 l 85 1042 l 310 1042 l 310 254 q 326 211 310 228 q 368 194 343 194 l 411 194 l 411 0 l 300 0 m 107 1125 l 219 1338 l 463 1338 l 290 1125 l 107 1125 z "},"ľ":{"ha":496,"x_min":85,"x_max":614,"o":"m 417 1067 l 614 1042 l 560 719 l 375 744 l 417 1067 m 300 0 q 144 59 203 0 q 85 215 85 118 l 85 1042 l 310 1042 l 310 254 q 326 211 310 228 q 368 194 343 194 l 411 194 l 411 0 l 300 0 z "},"ļ":{"ha":496,"x_min":85,"x_max":411,"o":"m 300 0 q 144 59 203 0 q 85 215 85 118 l 85 1042 l 310 1042 l 310 254 q 326 211 310 228 q 368 194 343 194 l 411 194 l 411 0 l 300 0 m 119 -519 q 181 -426 154 -472 q 225 -336 207 -381 q 107 -206 107 -315 q 146 -107 107 -144 q 247 -69 185 -69 q 351 -111 313 -69 q 390 -225 390 -153 q 356 -356 390 -276 q 264 -519 322 -435 l 119 -519 z "},"ł":{"ha":496,"x_min":-61,"x_max":475,"o":"m 300 0 q 144 59 203 0 q 85 215 85 118 l 85 439 l -11 413 l -61 603 l 85 642 l 85 1042 l 310 1042 l 310 703 l 425 733 l 475 543 l 310 499 l 310 254 q 326 211 310 228 q 368 194 343 194 l 411 194 l 411 0 l 300 0 z "},"ń":{"ha":869,"x_min":76,"x_max":793,"o":"m 76 0 l 76 465 q 120 650 76 572 q 244 770 164 728 q 435 813 325 813 q 625 770 544 813 q 749 650 706 728 q 793 465 793 572 l 793 0 l 568 0 l 568 463 q 531 578 568 538 q 435 618 494 618 q 339 578 376 618 q 301 463 301 538 l 301 0 l 76 0 m 349 875 l 461 1088 l 704 1088 l 532 875 l 349 875 z "},"ň":{"ha":869,"x_min":76,"x_max":793,"o":"m 76 0 l 76 465 q 120 650 76 572 q 244 770 164 728 q 435 813 325 813 q 625 770 544 813 q 749 650 706 728 q 793 465 793 572 l 793 0 l 568 0 l 568 463 q 531 578 568 538 q 435 618 494 618 q 339 578 376 618 q 301 463 301 538 l 301 0 l 76 0 m 433 875 q 345 892 378 875 q 289 938 313 908 q 236 1007 265 968 l 175 1088 l 347 1088 l 435 993 l 521 1088 l 694 1088 l 632 1006 q 578 938 603 968 q 522 892 554 908 q 433 875 489 875 z "},"ņ":{"ha":869,"x_min":76,"x_max":793,"o":"m 76 0 l 76 465 q 120 650 76 572 q 244 770 164 728 q 435 813 325 813 q 625 770 544 813 q 749 650 706 728 q 793 465 793 572 l 793 0 l 568 0 l 568 463 q 531 578 568 538 q 435 618 494 618 q 339 578 376 618 q 301 463 301 538 l 301 0 l 76 0 m 306 -519 q 367 -426 340 -472 q 411 -336 393 -381 q 293 -206 293 -315 q 332 -107 293 -144 q 433 -69 371 -69 q 538 -111 499 -69 q 576 -225 576 -153 q 542 -356 576 -276 q 450 -519 508 -435 l 306 -519 z "},"ñ":{"ha":869,"x_min":76,"x_max":793,"o":"m 76 0 l 76 465 q 120 650 76 572 q 244 770 164 728 q 435 813 325 813 q 625 770 544 813 q 749 650 706 728 q 793 465 793 572 l 793 0 l 568 0 l 568 463 q 531 578 568 538 q 435 618 494 618 q 339 578 376 618 q 301 463 301 538 l 301 0 l 76 0 m 526 868 q 453 888 482 868 q 406 926 425 907 q 365 946 386 946 q 348 939 356 946 q 340 907 340 932 l 340 875 l 194 875 l 194 931 q 238 1056 194 1019 q 344 1092 281 1092 q 419 1073 392 1092 q 465 1035 446 1054 q 503 1017 483 1017 q 521 1024 514 1017 q 528 1053 528 1032 l 528 1081 l 675 1081 l 675 1029 q 632 907 675 946 q 526 868 589 868 z "},"ố":{"ha":900,"x_min":44,"x_max":976,"o":"m 450 -21 q 240 32 332 -21 q 97 178 149 85 q 44 393 44 272 q 97 611 44 517 q 240 759 149 706 q 450 813 332 813 q 660 759 569 813 q 803 611 751 706 q 856 393 856 517 q 803 178 856 272 q 660 32 751 85 q 450 -21 569 -21 m 450 174 q 577 235 528 174 q 626 393 626 296 q 577 556 626 493 q 450 618 528 618 q 323 556 372 618 q 274 393 274 493 q 323 235 274 296 q 450 174 372 174 m 676 982 l 772 1182 l 976 1182 l 831 982 l 676 982 m 190 875 l 251 947 q 304 1009 281 982 q 360 1051 328 1036 q 449 1067 393 1067 q 537 1051 504 1067 q 594 1010 569 1036 q 647 949 618 983 l 710 875 l 536 875 l 450 960 l 363 875 l 190 875 z "},"ộ":{"ha":900,"x_min":44,"x_max":856,"o":"m 450 -21 q 240 32 332 -21 q 97 178 149 85 q 44 393 44 272 q 97 611 44 517 q 240 759 149 706 q 450 813 332 813 q 660 759 569 813 q 803 611 751 706 q 856 393 856 517 q 803 178 856 272 q 660 32 751 85 q 450 -21 569 -21 m 450 174 q 577 235 528 174 q 626 393 626 296 q 577 556 626 493 q 450 618 528 618 q 323 556 372 618 q 274 393 274 493 q 323 235 274 296 q 450 174 372 174 m 190 875 l 251 956 q 304 1024 281 994 q 360 1071 328 1054 q 449 1088 393 1088 q 537 1071 504 1088 q 594 1025 569 1054 q 647 957 618 996 l 710 875 l 536 875 l 450 969 l 363 875 l 190 875 m 450 -300 q 363 -267 397 -300 q 329 -183 329 -235 q 363 -101 329 -133 q 450 -69 397 -69 q 536 -101 503 -69 q 569 -183 569 -133 q 536 -267 569 -235 q 450 -300 503 -300 z "},"ồ":{"ha":900,"x_min":44,"x_max":857,"o":"m 450 -21 q 240 32 332 -21 q 97 178 149 85 q 44 393 44 272 q 97 611 44 517 q 240 759 149 706 q 450 813 332 813 q 660 759 569 813 q 803 611 751 706 q 856 393 856 517 q 803 178 856 272 q 660 32 751 85 q 450 -21 569 -21 m 450 174 q 577 235 528 174 q 626 393 626 296 q 577 556 626 493 q 450 618 528 618 q 323 556 372 618 q 274 393 274 493 q 323 235 274 296 q 450 174 372 174 m 857 982 l 703 982 l 557 1182 l 761 1182 l 857 982 m 190 875 l 251 947 q 304 1009 281 982 q 360 1051 328 1036 q 449 1067 393 1067 q 537 1051 504 1067 q 594 1010 569 1036 q 647 949 618 983 l 710 875 l 536 875 l 450 960 l 363 875 l 190 875 z "},"ổ":{"ha":900,"x_min":44,"x_max":856,"o":"m 450 -21 q 240 32 332 -21 q 97 178 149 85 q 44 393 44 272 q 97 611 44 517 q 240 759 149 706 q 450 813 332 813 q 660 759 569 813 q 803 611 751 706 q 856 393 856 517 q 803 178 856 272 q 660 32 751 85 q 450 -21 569 -21 m 450 174 q 577 235 528 174 q 626 393 626 296 q 577 556 626 493 q 450 618 528 618 q 323 556 372 618 q 274 393 274 493 q 323 235 274 296 q 450 174 372 174 m 611 1032 q 626 1069 611 1056 q 660 1094 642 1083 q 688 1115 675 1106 q 701 1138 701 1125 q 690 1160 701 1151 q 656 1169 678 1169 q 597 1122 604 1169 l 460 1122 q 516 1238 460 1193 q 656 1282 572 1282 q 789 1247 733 1282 q 844 1150 844 1211 q 835 1112 844 1128 q 814 1085 826 1096 q 781 1059 800 1071 q 758 1032 763 1047 l 611 1032 m 190 875 l 251 947 q 304 1009 281 982 q 360 1051 328 1036 q 449 1067 393 1067 q 537 1051 504 1067 q 594 1010 569 1036 q 647 949 618 983 l 710 875 l 536 875 l 450 960 l 363 875 l 190 875 z "},"ỗ":{"ha":900,"x_min":44,"x_max":856,"o":"m 450 -21 q 240 32 332 -21 q 97 178 149 85 q 44 393 44 272 q 97 611 44 517 q 240 759 149 706 q 450 813 332 813 q 660 759 569 813 q 803 611 751 706 q 856 393 856 517 q 803 178 856 272 q 660 32 751 85 q 450 -21 569 -21 m 450 174 q 577 235 528 174 q 626 393 626 296 q 577 556 626 493 q 450 618 528 618 q 323 556 372 618 q 274 393 274 493 q 323 235 274 296 q 450 174 372 174 m 542 1110 q 469 1128 497 1110 q 421 1164 440 1146 q 381 1182 401 1182 q 363 1176 371 1182 q 356 1146 356 1169 l 356 1115 l 210 1115 l 210 1168 q 253 1285 210 1251 q 360 1319 296 1319 q 434 1302 407 1319 q 480 1267 461 1285 q 518 1249 499 1249 q 536 1256 529 1249 q 543 1283 543 1264 l 543 1310 l 690 1310 l 690 1261 q 647 1146 690 1182 q 542 1110 604 1110 m 190 875 l 251 947 q 304 1009 281 982 q 360 1051 328 1036 q 449 1067 393 1067 q 537 1051 504 1067 q 594 1010 569 1036 q 647 949 618 983 l 710 875 l 536 875 l 450 960 l 363 875 l 190 875 z "},"ö":{"ha":900,"x_min":44,"x_max":856,"o":"m 450 -21 q 240 32 332 -21 q 97 178 149 85 q 44 393 44 272 q 97 611 44 517 q 240 759 149 706 q 450 813 332 813 q 660 759 569 813 q 803 611 751 706 q 856 393 856 517 q 803 178 856 272 q 660 32 751 85 q 450 -21 569 -21 m 450 174 q 577 235 528 174 q 626 393 626 296 q 577 556 626 493 q 450 618 528 618 q 323 556 372 618 q 274 393 274 493 q 323 235 274 296 q 450 174 372 174 m 301 875 q 210 907 247 875 q 174 990 174 939 q 210 1072 174 1040 q 301 1104 247 1104 q 391 1072 354 1104 q 428 990 428 1040 q 391 907 428 939 q 301 875 354 875 m 604 875 q 513 907 550 875 q 476 990 476 939 q 513 1072 476 1040 q 604 1104 550 1104 q 694 1072 657 1104 q 731 990 731 1040 q 694 907 731 939 q 604 875 657 875 z "},"ọ":{"ha":900,"x_min":44,"x_max":856,"o":"m 450 -21 q 240 32 332 -21 q 97 178 149 85 q 44 393 44 272 q 97 611 44 517 q 240 759 149 706 q 450 813 332 813 q 660 759 569 813 q 803 611 751 706 q 856 393 856 517 q 803 178 856 272 q 660 32 751 85 q 450 -21 569 -21 m 450 174 q 577 235 528 174 q 626 393 626 296 q 577 556 626 493 q 450 618 528 618 q 323 556 372 618 q 274 393 274 493 q 323 235 274 296 q 450 174 372 174 m 450 -300 q 363 -267 397 -300 q 329 -183 329 -235 q 363 -101 329 -133 q 450 -69 397 -69 q 536 -101 503 -69 q 569 -183 569 -133 q 536 -267 569 -235 q 450 -300 503 -300 z "},"ỏ":{"ha":900,"x_min":44,"x_max":856,"o":"m 450 -21 q 240 32 332 -21 q 97 178 149 85 q 44 393 44 272 q 97 611 44 517 q 240 759 149 706 q 450 813 332 813 q 660 759 569 813 q 803 611 751 706 q 856 393 856 517 q 803 178 856 272 q 660 32 751 85 q 450 -21 569 -21 m 450 174 q 577 235 528 174 q 626 393 626 296 q 577 556 626 493 q 450 618 528 618 q 323 556 372 618 q 274 393 274 493 q 323 235 274 296 q 450 174 372 174 m 375 875 q 389 915 375 897 q 422 943 403 932 q 466 970 447 958 q 485 996 485 982 q 476 1015 485 1007 q 450 1024 467 1024 q 419 1010 432 1024 q 404 978 407 997 l 269 978 q 322 1097 269 1051 q 450 1142 374 1142 q 573 1106 521 1142 q 625 1006 625 1071 q 609 951 625 975 q 551 900 593 928 q 536 889 542 894 q 528 875 531 883 l 375 875 z "},"ớ":{"ha":904,"x_min":44,"x_max":907,"o":"m 450 -21 q 240 32 332 -21 q 97 178 149 85 q 44 393 44 272 q 97 611 44 517 q 240 759 149 706 q 450 813 332 813 q 528 807 499 813 q 583 795 557 801 q 643 783 608 789 q 722 907 738 769 l 897 907 q 870 756 907 818 q 761 674 833 694 q 831 548 806 619 q 856 393 856 476 q 803 178 856 272 q 660 32 751 85 q 450 -21 569 -21 m 450 174 q 577 235 528 174 q 626 393 626 296 q 577 556 626 493 q 450 618 528 618 q 323 556 372 618 q 274 393 274 493 q 323 235 274 296 q 450 174 372 174 m 364 875 l 476 1088 l 719 1088 l 547 875 l 364 875 z "},"ợ":{"ha":904,"x_min":44,"x_max":907,"o":"m 450 -21 q 240 32 332 -21 q 97 178 149 85 q 44 393 44 272 q 97 611 44 517 q 240 759 149 706 q 450 813 332 813 q 528 807 499 813 q 583 795 557 801 q 643 783 608 789 q 722 907 738 769 l 897 907 q 870 756 907 818 q 761 674 833 694 q 831 548 806 619 q 856 393 856 476 q 803 178 856 272 q 660 32 751 85 q 450 -21 569 -21 m 450 174 q 577 235 528 174 q 626 393 626 296 q 577 556 626 493 q 450 618 528 618 q 323 556 372 618 q 274 393 274 493 q 323 235 274 296 q 450 174 372 174 m 450 -300 q 363 -267 397 -300 q 329 -183 329 -235 q 363 -101 329 -133 q 450 -69 397 -69 q 536 -101 503 -69 q 569 -183 569 -133 q 536 -267 569 -235 q 450 -300 503 -300 z "},"ờ":{"ha":904,"x_min":44,"x_max":907,"o":"m 450 -21 q 240 32 332 -21 q 97 178 149 85 q 44 393 44 272 q 97 611 44 517 q 240 759 149 706 q 450 813 332 813 q 528 807 499 813 q 583 795 557 801 q 643 783 608 789 q 722 907 738 769 l 897 907 q 870 756 907 818 q 761 674 833 694 q 831 548 806 619 q 856 393 856 476 q 803 178 856 272 q 660 32 751 85 q 450 -21 569 -21 m 450 174 q 577 235 528 174 q 626 393 626 296 q 577 556 626 493 q 450 618 528 618 q 323 556 372 618 q 274 393 274 493 q 323 235 274 296 q 450 174 372 174 m 536 875 l 353 875 l 181 1088 l 424 1088 l 536 875 z "},"ở":{"ha":904,"x_min":44,"x_max":907,"o":"m 450 -21 q 240 32 332 -21 q 97 178 149 85 q 44 393 44 272 q 97 611 44 517 q 240 759 149 706 q 450 813 332 813 q 528 807 499 813 q 583 795 557 801 q 643 783 608 789 q 722 907 738 769 l 897 907 q 870 756 907 818 q 761 674 833 694 q 831 548 806 619 q 856 393 856 476 q 803 178 856 272 q 660 32 751 85 q 450 -21 569 -21 m 450 174 q 577 235 528 174 q 626 393 626 296 q 577 556 626 493 q 450 618 528 618 q 323 556 372 618 q 274 393 274 493 q 323 235 274 296 q 450 174 372 174 m 375 875 q 389 915 375 897 q 422 943 403 932 q 466 970 447 958 q 485 996 485 982 q 476 1015 485 1007 q 450 1024 467 1024 q 419 1010 432 1024 q 404 978 407 997 l 269 978 q 322 1097 269 1051 q 450 1142 374 1142 q 573 1106 521 1142 q 625 1006 625 1071 q 609 951 625 975 q 551 900 593 928 q 536 889 542 894 q 528 875 531 883 l 375 875 z "},"ỡ":{"ha":904,"x_min":44,"x_max":907,"o":"m 450 -21 q 240 32 332 -21 q 97 178 149 85 q 44 393 44 272 q 97 611 44 517 q 240 759 149 706 q 450 813 332 813 q 528 807 499 813 q 583 795 557 801 q 643 783 608 789 q 722 907 738 769 l 897 907 q 870 756 907 818 q 761 674 833 694 q 831 548 806 619 q 856 393 856 476 q 803 178 856 272 q 660 32 751 85 q 450 -21 569 -21 m 450 174 q 577 235 528 174 q 626 393 626 296 q 577 556 626 493 q 450 618 528 618 q 323 556 372 618 q 274 393 274 493 q 323 235 274 296 q 450 174 372 174 m 542 868 q 469 888 497 868 q 421 926 440 907 q 381 946 401 946 q 363 939 371 946 q 356 907 356 932 l 356 875 l 210 875 l 210 931 q 253 1056 210 1019 q 360 1092 296 1092 q 434 1073 407 1092 q 480 1035 461 1054 q 518 1017 499 1017 q 536 1024 529 1017 q 543 1053 543 1032 l 543 1081 l 690 1081 l 690 1029 q 647 907 690 946 q 542 868 604 868 z "},"ő":{"ha":900,"x_min":44,"x_max":863,"o":"m 450 -21 q 240 32 332 -21 q 97 178 149 85 q 44 393 44 272 q 97 611 44 517 q 240 759 149 706 q 450 813 332 813 q 660 759 569 813 q 803 611 751 706 q 856 393 856 517 q 803 178 856 272 q 660 32 751 85 q 450 -21 569 -21 m 450 174 q 577 235 528 174 q 626 393 626 296 q 577 556 626 493 q 450 618 528 618 q 323 556 372 618 q 274 393 274 493 q 323 235 274 296 q 450 174 372 174 m 201 875 l 314 1088 l 557 1088 l 385 875 l 201 875 m 507 875 l 619 1088 l 863 1088 l 690 875 l 507 875 z "},"ø":{"ha":907,"x_min":44,"x_max":863,"o":"m 192 -99 l 44 10 l 133 128 q 71 248 93 181 q 49 393 49 315 q 101 611 49 517 q 244 759 153 706 q 454 813 336 813 q 626 778 547 813 l 714 893 l 863 786 l 771 665 q 837 543 814 613 q 860 393 860 474 q 808 178 860 272 q 665 32 756 85 q 454 -21 574 -21 q 278 15 358 -21 l 192 -99 m 278 393 q 285 326 278 358 l 500 611 q 454 618 478 618 q 327 556 376 618 q 278 393 278 493 m 454 174 q 581 235 532 174 q 631 393 631 296 q 622 469 631 433 l 404 181 q 454 174 428 174 z "},"œ":{"ha":1436,"x_min":44,"x_max":1404,"o":"m 450 -21 q 240 32 332 -21 q 97 178 149 85 q 44 393 44 272 q 97 611 44 517 q 240 759 149 706 q 450 813 332 813 q 609 783 536 813 q 735 701 682 754 q 858 784 786 756 q 1019 813 931 813 q 1230 757 1143 813 q 1360 596 1317 701 q 1397 342 1404 490 l 853 342 q 911 203 864 253 q 1033 153 958 153 q 1133 183 1094 153 q 1182 256 1172 213 l 1392 256 q 1327 108 1378 169 q 1199 13 1276 46 q 1024 -21 1121 -21 q 860 8 933 -21 q 736 89 788 36 q 610 8 683 38 q 450 -21 538 -21 m 1021 640 q 908 597 953 640 q 853 479 864 553 l 1175 479 q 1124 603 1169 567 q 1021 640 1078 640 m 450 174 q 577 235 528 174 q 626 393 626 296 q 577 556 626 493 q 450 618 528 618 q 323 556 372 618 q 274 393 274 493 q 323 235 274 296 q 450 174 372 174 z "},"þ":{"ha":940,"x_min":85,"x_max":896,"o":"m 85 -125 l 85 917 l 344 917 l 344 789 q 490 813 413 813 q 701 759 610 813 q 844 611 792 706 q 896 393 896 517 q 844 178 896 272 q 701 32 792 85 q 490 -21 610 -21 q 344 3 413 -21 l 344 -125 l 85 -125 m 490 174 q 617 235 568 174 q 667 393 667 296 q 617 556 667 493 q 490 618 568 618 q 392 586 432 618 q 333 504 353 554 q 314 399 314 454 q 333 291 314 343 q 391 206 351 239 q 490 174 431 174 z "},"ŕ":{"ha":603,"x_min":85,"x_max":599,"o":"m 85 0 l 85 458 q 177 721 85 629 q 442 813 269 813 q 499 810 460 813 q 576 800 538 808 l 576 607 q 526 615 550 611 q 474 618 503 618 q 393 606 431 618 q 333 558 356 593 q 310 457 310 524 l 310 0 l 85 0 m 243 875 l 356 1088 l 599 1088 l 426 875 l 243 875 z "},"ř":{"ha":603,"x_min":69,"x_max":589,"o":"m 85 0 l 85 458 q 177 721 85 629 q 442 813 269 813 q 499 810 460 813 q 576 800 538 808 l 576 607 q 526 615 550 611 q 474 618 503 618 q 393 606 431 618 q 333 558 356 593 q 310 457 310 524 l 310 0 l 85 0 m 328 875 q 240 892 272 875 q 183 938 207 908 q 131 1007 160 968 l 69 1088 l 242 1088 l 329 993 l 415 1088 l 589 1088 l 526 1006 q 473 938 497 968 q 416 892 449 908 q 328 875 383 875 z "},"ś":{"ha":729,"x_min":22,"x_max":689,"o":"m 365 -21 q 114 53 206 -21 q 22 257 22 128 l 221 257 q 269 169 232 197 q 363 142 307 142 q 443 161 411 142 q 475 217 475 181 q 451 258 475 244 q 360 289 426 272 q 277 309 313 300 q 201 332 242 318 q 115 372 154 349 q 51 437 75 396 q 26 544 26 478 q 56 671 26 619 q 133 753 85 722 q 240 799 182 785 q 353 813 297 813 q 518 780 446 813 q 632 690 590 747 q 674 556 674 632 l 463 556 q 426 625 463 597 q 339 653 389 653 q 269 636 304 653 q 235 582 235 619 q 257 540 235 557 q 343 504 279 522 q 399 490 367 499 q 464 474 432 482 q 517 460 496 467 q 648 379 607 433 q 689 243 689 325 q 603 49 689 118 q 365 -21 518 -21 m 265 875 l 378 1088 l 621 1088 l 449 875 l 265 875 z "},"š":{"ha":729,"x_min":22,"x_max":689,"o":"m 365 -21 q 114 53 206 -21 q 22 257 22 128 l 221 257 q 269 169 232 197 q 363 142 307 142 q 443 161 411 142 q 475 217 475 181 q 451 258 475 244 q 360 289 426 272 q 277 309 313 300 q 201 332 242 318 q 115 372 154 349 q 51 437 75 396 q 26 544 26 478 q 56 671 26 619 q 133 753 85 722 q 240 799 182 785 q 353 813 297 813 q 518 780 446 813 q 632 690 590 747 q 674 556 674 632 l 463 556 q 426 625 463 597 q 339 653 389 653 q 269 636 304 653 q 235 582 235 619 q 257 540 235 557 q 343 504 279 522 q 399 490 367 499 q 464 474 432 482 q 517 460 496 467 q 648 379 607 433 q 689 243 689 325 q 603 49 689 118 q 365 -21 518 -21 m 350 875 q 262 892 294 875 q 206 938 229 908 q 153 1007 182 968 l 92 1088 l 264 1088 l 351 993 l 438 1088 l 611 1088 l 549 1006 q 495 938 519 968 q 438 892 471 908 q 350 875 406 875 z "},"ş":{"ha":729,"x_min":22,"x_max":689,"o":"m 365 -21 q 114 53 206 -21 q 22 257 22 128 l 221 257 q 269 169 232 197 q 363 142 307 142 q 443 161 411 142 q 475 217 475 181 q 451 258 475 244 q 360 289 426 272 q 277 309 313 300 q 201 332 242 318 q 115 372 154 349 q 51 437 75 396 q 26 544 26 478 q 56 671 26 619 q 133 753 85 722 q 240 799 182 785 q 353 813 297 813 q 518 780 446 813 q 632 690 590 747 q 674 556 674 632 l 463 556 q 426 625 463 597 q 339 653 389 653 q 269 636 304 653 q 235 582 235 619 q 257 540 235 557 q 343 504 279 522 q 399 490 367 499 q 464 474 432 482 q 517 460 496 467 q 648 379 607 433 q 689 243 689 325 q 603 49 689 118 q 365 -21 518 -21 m 211 -404 l 211 -257 l 307 -257 q 333 -249 322 -257 q 343 -226 343 -240 q 307 -199 343 -199 l 300 -199 q 245 -179 268 -199 q 222 -129 222 -160 q 238 -72 222 -106 l 274 0 l 436 0 l 396 -86 q 482 -131 446 -96 q 518 -233 518 -167 q 465 -361 518 -318 q 326 -404 413 -404 l 211 -404 z "},"ș":{"ha":729,"x_min":22,"x_max":689,"o":"m 365 -21 q 114 53 206 -21 q 22 257 22 128 l 221 257 q 269 169 232 197 q 363 142 307 142 q 443 161 411 142 q 475 217 475 181 q 451 258 475 244 q 360 289 426 272 q 277 309 313 300 q 201 332 242 318 q 115 372 154 349 q 51 437 75 396 q 26 544 26 478 q 56 671 26 619 q 133 753 85 722 q 240 799 182 785 q 353 813 297 813 q 518 780 446 813 q 632 690 590 747 q 674 556 674 632 l 463 556 q 426 625 463 597 q 339 653 389 653 q 269 636 304 653 q 235 582 235 619 q 257 540 235 557 q 343 504 279 522 q 399 490 367 499 q 464 474 432 482 q 517 460 496 467 q 648 379 607 433 q 689 243 689 325 q 603 49 689 118 q 365 -21 518 -21 m 236 -519 q 297 -426 271 -472 q 342 -336 324 -381 q 224 -206 224 -315 q 263 -107 224 -144 q 364 -69 301 -69 q 468 -111 429 -69 q 507 -225 507 -153 q 473 -356 507 -276 q 381 -519 439 -435 l 236 -519 z "},"ß":{"ha":988,"x_min":103,"x_max":924,"o":"m 103 0 l 103 735 q 153 902 103 833 q 292 1006 203 971 q 499 1042 382 1042 q 800 967 699 1042 q 901 765 901 893 q 860 631 901 690 q 746 543 818 572 q 878 463 833 518 q 924 317 924 408 q 876 151 924 222 q 743 40 829 79 q 539 0 657 0 l 467 0 l 519 193 l 540 193 q 650 231 611 193 q 689 325 689 269 q 649 415 689 382 q 536 447 608 447 l 454 447 l 454 631 l 536 631 q 627 658 592 631 q 663 735 663 686 q 622 817 663 785 q 499 849 581 849 q 383 819 424 849 q 343 735 343 790 l 343 0 l 103 0 z "},"ť":{"ha":603,"x_min":46,"x_max":711,"o":"m 514 1206 l 711 1181 l 657 858 l 472 883 l 514 1206 m 392 0 q 235 59 294 0 q 176 215 176 118 l 176 611 l 46 611 l 46 792 l 176 792 l 176 1000 l 401 1000 l 401 792 l 563 792 l 563 611 l 401 611 l 401 254 q 418 211 401 228 q 460 194 435 194 l 586 194 l 586 0 l 392 0 z "},"ț":{"ha":603,"x_min":46,"x_max":586,"o":"m 392 0 q 235 59 294 0 q 176 215 176 118 l 176 611 l 46 611 l 46 792 l 176 792 l 176 1000 l 401 1000 l 401 792 l 563 792 l 563 611 l 401 611 l 401 254 q 418 211 401 228 q 460 194 435 194 l 586 194 l 586 0 l 392 0 m 228 -519 q 289 -426 263 -472 q 333 -336 315 -381 q 215 -206 215 -315 q 254 -107 215 -144 q 356 -69 293 -69 q 460 -111 421 -69 q 499 -225 499 -153 q 465 -356 499 -276 q 372 -519 431 -435 l 228 -519 z "},"û":{"ha":869,"x_min":76,"x_max":793,"o":"m 435 -21 q 249 24 331 -21 q 122 147 168 68 q 76 326 76 225 l 76 792 l 301 792 l 301 318 q 339 214 301 254 q 435 174 376 174 q 531 214 493 174 q 568 318 568 254 l 568 792 l 793 792 l 793 326 q 747 147 793 225 q 621 24 701 68 q 435 -21 540 -21 m 179 875 l 240 956 q 293 1024 269 994 q 349 1071 317 1054 q 438 1088 382 1088 q 526 1071 493 1088 q 583 1025 558 1054 q 636 957 607 996 l 699 875 l 525 875 l 439 969 l 351 875 l 179 875 z "},"ü":{"ha":869,"x_min":76,"x_max":793,"o":"m 435 -21 q 249 24 331 -21 q 122 147 168 68 q 76 326 76 225 l 76 792 l 301 792 l 301 318 q 339 214 301 254 q 435 174 376 174 q 531 214 493 174 q 568 318 568 254 l 568 792 l 793 792 l 793 326 q 747 147 793 225 q 621 24 701 68 q 435 -21 540 -21 m 290 875 q 199 907 236 875 q 163 990 163 939 q 199 1072 163 1040 q 290 1104 236 1104 q 380 1072 343 1104 q 417 990 417 1040 q 380 907 417 939 q 290 875 343 875 m 593 875 q 502 907 539 875 q 465 990 465 939 q 502 1072 465 1040 q 593 1104 539 1104 q 683 1072 646 1104 q 719 990 719 1040 q 683 907 719 939 q 593 875 646 875 z "},"ụ":{"ha":869,"x_min":76,"x_max":793,"o":"m 435 -21 q 249 24 331 -21 q 122 147 168 68 q 76 326 76 225 l 76 792 l 301 792 l 301 318 q 339 214 301 254 q 435 174 376 174 q 531 214 493 174 q 568 318 568 254 l 568 792 l 793 792 l 793 326 q 747 147 793 225 q 621 24 701 68 q 435 -21 540 -21 m 439 -300 q 352 -267 386 -300 q 318 -183 318 -235 q 352 -101 318 -133 q 439 -69 386 -69 q 525 -101 492 -69 q 558 -183 558 -133 q 525 -267 558 -235 q 439 -300 492 -300 z "},"ủ":{"ha":869,"x_min":76,"x_max":793,"o":"m 435 -21 q 249 24 331 -21 q 122 147 168 68 q 76 326 76 225 l 76 792 l 301 792 l 301 318 q 339 214 301 254 q 435 174 376 174 q 531 214 493 174 q 568 318 568 254 l 568 792 l 793 792 l 793 326 q 747 147 793 225 q 621 24 701 68 q 435 -21 540 -21 m 364 875 q 378 915 364 897 q 411 943 392 932 q 455 970 436 958 q 474 996 474 982 q 465 1015 474 1007 q 439 1024 456 1024 q 408 1010 421 1024 q 393 978 396 997 l 258 978 q 310 1097 258 1051 q 439 1142 363 1142 q 562 1106 510 1142 q 614 1006 614 1071 q 598 951 614 975 q 540 900 582 928 q 525 889 531 894 q 517 875 519 883 l 364 875 z "},"ứ":{"ha":869,"x_min":76,"x_max":943,"o":"m 435 -21 q 249 24 331 -21 q 122 147 168 68 q 76 326 76 225 l 76 792 l 301 792 l 301 318 q 339 214 301 254 q 435 174 376 174 q 531 214 493 174 q 568 318 568 254 l 568 792 l 644 792 q 738 824 711 792 q 758 942 764 857 l 936 942 q 906 788 943 853 q 793 692 868 722 l 793 326 q 747 147 793 225 q 621 24 701 68 q 435 -21 540 -21 m 353 869 l 465 1082 l 708 1082 l 536 869 l 353 869 z "},"ự":{"ha":869,"x_min":76,"x_max":943,"o":"m 435 -21 q 249 24 331 -21 q 122 147 168 68 q 76 326 76 225 l 76 792 l 301 792 l 301 318 q 339 214 301 254 q 435 174 376 174 q 531 214 493 174 q 568 318 568 254 l 568 792 l 644 792 q 738 824 711 792 q 758 942 764 857 l 936 942 q 906 788 943 853 q 793 692 868 722 l 793 326 q 747 147 793 225 q 621 24 701 68 q 435 -21 540 -21 m 439 -300 q 352 -267 386 -300 q 318 -183 318 -235 q 352 -101 318 -133 q 439 -69 386 -69 q 525 -101 492 -69 q 558 -183 558 -133 q 525 -267 558 -235 q 439 -300 492 -300 z "},"ừ":{"ha":869,"x_min":76,"x_max":943,"o":"m 435 -21 q 249 24 331 -21 q 122 147 168 68 q 76 326 76 225 l 76 792 l 301 792 l 301 318 q 339 214 301 254 q 435 174 376 174 q 531 214 493 174 q 568 318 568 254 l 568 792 l 644 792 q 738 824 711 792 q 758 942 764 857 l 936 942 q 906 788 943 853 q 793 692 868 722 l 793 326 q 747 147 793 225 q 621 24 701 68 q 435 -21 540 -21 m 525 869 l 342 869 l 169 1082 l 413 1082 l 525 869 z "},"ử":{"ha":869,"x_min":76,"x_max":943,"o":"m 435 -21 q 249 24 331 -21 q 122 147 168 68 q 76 326 76 225 l 76 792 l 301 792 l 301 318 q 339 214 301 254 q 435 174 376 174 q 531 214 493 174 q 568 318 568 254 l 568 792 l 644 792 q 738 824 711 792 q 758 942 764 857 l 936 942 q 906 788 943 853 q 793 692 868 722 l 793 326 q 747 147 793 225 q 621 24 701 68 q 435 -21 540 -21 m 364 869 q 378 909 364 892 q 411 938 392 926 q 455 965 436 953 q 474 990 474 976 q 465 1010 474 1001 q 439 1018 456 1018 q 408 1005 421 1018 q 393 972 396 992 l 258 972 q 310 1091 258 1046 q 439 1136 363 1136 q 562 1101 510 1136 q 614 1000 614 1065 q 598 946 614 969 q 540 894 582 922 q 525 883 531 889 q 517 869 519 878 l 364 869 z "},"ữ":{"ha":869,"x_min":76,"x_max":943,"o":"m 435 -21 q 249 24 331 -21 q 122 147 168 68 q 76 326 76 225 l 76 792 l 301 792 l 301 318 q 339 214 301 254 q 435 174 376 174 q 531 214 493 174 q 568 318 568 254 l 568 792 l 644 792 q 738 824 711 792 q 758 942 764 857 l 936 942 q 906 788 943 853 q 793 692 868 722 l 793 326 q 747 147 793 225 q 621 24 701 68 q 435 -21 540 -21 m 531 863 q 458 882 486 863 q 410 921 429 901 q 369 940 390 940 q 352 933 360 940 q 344 901 344 926 l 344 869 l 199 869 l 199 925 q 242 1050 199 1014 q 349 1086 285 1086 q 423 1067 396 1086 q 469 1030 450 1049 q 507 1011 488 1011 q 525 1019 518 1011 q 532 1047 532 1026 l 532 1075 l 679 1075 l 679 1024 q 636 901 679 940 q 531 863 593 863 z "},"ű":{"ha":869,"x_min":76,"x_max":851,"o":"m 435 -21 q 249 24 331 -21 q 122 147 168 68 q 76 326 76 225 l 76 792 l 301 792 l 301 318 q 339 214 301 254 q 435 174 376 174 q 531 214 493 174 q 568 318 568 254 l 568 792 l 793 792 l 793 326 q 747 147 793 225 q 621 24 701 68 q 435 -21 540 -21 m 190 875 l 303 1088 l 546 1088 l 374 875 l 190 875 m 496 875 l 608 1088 l 851 1088 l 679 875 l 496 875 z "},"ū":{"ha":869,"x_min":76,"x_max":793,"o":"m 435 -21 q 249 24 331 -21 q 122 147 168 68 q 76 326 76 225 l 76 792 l 301 792 l 301 318 q 339 214 301 254 q 435 174 376 174 q 531 214 493 174 q 568 318 568 254 l 568 792 l 793 792 l 793 326 q 747 147 793 225 q 621 24 701 68 q 435 -21 540 -21 m 222 903 l 222 1088 l 656 1088 l 656 903 l 222 903 z "},"ų":{"ha":869,"x_min":76,"x_max":793,"o":"m 435 -21 q 249 24 331 -21 q 122 147 168 68 q 76 326 76 225 l 76 792 l 301 792 l 301 318 q 339 214 301 254 q 435 174 376 174 q 531 214 493 174 q 568 318 568 254 l 568 792 l 793 792 l 793 326 q 747 147 793 225 q 621 24 701 68 q 435 -21 540 -21 m 557 -324 q 426 -297 483 -324 q 338 -225 369 -271 q 306 -122 306 -179 q 344 -11 306 -68 q 464 86 383 46 l 650 42 q 571 -12 599 14 q 543 -69 543 -39 q 640 -137 543 -137 l 640 -319 q 599 -322 622 -321 q 557 -324 576 -324 z "},"ů":{"ha":869,"x_min":76,"x_max":793,"o":"m 435 -21 q 249 24 331 -21 q 122 147 168 68 q 76 326 76 225 l 76 792 l 301 792 l 301 318 q 339 214 301 254 q 435 174 376 174 q 531 214 493 174 q 568 318 568 254 l 568 792 l 793 792 l 793 326 q 747 147 793 225 q 621 24 701 68 q 435 -21 540 -21 m 439 864 q 328 906 375 864 q 282 1014 282 949 q 328 1123 282 1081 q 439 1165 375 1165 q 550 1123 504 1165 q 596 1014 596 1081 q 550 906 596 949 q 439 864 504 864 m 439 965 q 472 980 458 965 q 486 1014 486 994 q 472 1048 486 1035 q 439 1061 458 1061 q 406 1048 419 1061 q 392 1014 392 1035 q 406 980 392 994 q 439 965 419 965 z "},"ẃ":{"ha":1200,"x_min":6,"x_max":1194,"o":"m 356 -21 q 261 15 296 -21 q 199 142 226 50 l 6 792 l 236 792 l 364 276 l 465 671 q 516 781 485 749 q 601 813 547 813 q 685 781 654 813 q 736 671 717 749 l 840 272 l 972 792 l 1194 792 l 1004 142 q 944 15 978 50 q 849 -21 910 -21 q 751 15 785 -21 q 690 140 717 50 l 600 457 l 510 140 q 450 15 483 50 q 356 -21 417 -21 m 514 875 l 626 1088 l 869 1088 l 697 875 l 514 875 z "},"ŵ":{"ha":1200,"x_min":6,"x_max":1194,"o":"m 356 -21 q 261 15 296 -21 q 199 142 226 50 l 6 792 l 236 792 l 364 276 l 465 671 q 516 781 485 749 q 601 813 547 813 q 685 781 654 813 q 736 671 717 749 l 840 272 l 972 792 l 1194 792 l 1004 142 q 944 15 978 50 q 849 -21 910 -21 q 751 15 785 -21 q 690 140 717 50 l 600 457 l 510 140 q 450 15 483 50 q 356 -21 417 -21 m 340 875 l 401 956 q 454 1024 431 994 q 510 1071 478 1054 q 599 1088 543 1088 q 687 1071 654 1088 q 744 1025 719 1054 q 797 957 768 996 l 860 875 l 686 875 l 600 969 l 513 875 l 340 875 z "},"ẅ":{"ha":1200,"x_min":6,"x_max":1194,"o":"m 356 -21 q 261 15 296 -21 q 199 142 226 50 l 6 792 l 236 792 l 364 276 l 465 671 q 516 781 485 749 q 601 813 547 813 q 685 781 654 813 q 736 671 717 749 l 840 272 l 972 792 l 1194 792 l 1004 142 q 944 15 978 50 q 849 -21 910 -21 q 751 15 785 -21 q 690 140 717 50 l 600 457 l 510 140 q 450 15 483 50 q 356 -21 417 -21 m 451 875 q 360 907 397 875 q 324 990 324 939 q 360 1072 324 1040 q 451 1104 397 1104 q 541 1072 504 1104 q 578 990 578 1040 q 541 907 578 939 q 451 875 504 875 m 754 875 q 663 907 700 875 q 626 990 626 939 q 663 1072 626 1040 q 754 1104 700 1104 q 844 1072 807 1104 q 881 990 881 1040 q 844 907 881 939 q 754 875 807 875 z "},"ẁ":{"ha":1200,"x_min":6,"x_max":1194,"o":"m 356 -21 q 261 15 296 -21 q 199 142 226 50 l 6 792 l 236 792 l 364 276 l 465 671 q 516 781 485 749 q 601 813 547 813 q 685 781 654 813 q 736 671 717 749 l 840 272 l 972 792 l 1194 792 l 1004 142 q 944 15 978 50 q 849 -21 910 -21 q 751 15 785 -21 q 690 140 717 50 l 600 457 l 510 140 q 450 15 483 50 q 356 -21 417 -21 m 686 875 l 503 875 l 331 1088 l 574 1088 l 686 875 z "},"ŷ":{"ha":828,"x_min":4,"x_max":824,"o":"m 176 -250 l 297 57 l 4 792 l 240 792 l 415 353 l 589 792 l 824 792 l 411 -250 l 176 -250 m 151 875 l 213 956 q 265 1024 242 994 q 322 1071 289 1054 q 410 1088 354 1088 q 498 1071 465 1088 q 555 1025 531 1054 q 608 957 579 996 l 671 875 l 497 875 l 411 969 l 324 875 l 151 875 z "},"ÿ":{"ha":828,"x_min":4,"x_max":824,"o":"m 176 -250 l 297 57 l 4 792 l 240 792 l 415 353 l 589 792 l 824 792 l 411 -250 l 176 -250 m 263 875 q 172 907 208 875 q 135 990 135 939 q 172 1072 135 1040 q 263 1104 208 1104 q 352 1072 315 1104 q 389 990 389 1040 q 352 907 389 939 q 263 875 315 875 m 565 875 q 474 907 511 875 q 438 990 438 939 q 474 1072 438 1040 q 565 1104 511 1104 q 655 1072 618 1104 q 692 990 692 1040 q 655 907 692 939 q 565 875 618 875 z "},"ỵ":{"ha":828,"x_min":4,"x_max":824,"o":"m 176 -250 l 297 57 l 4 792 l 240 792 l 415 353 l 589 792 l 824 792 l 411 -250 l 176 -250 m 678 -300 q 591 -267 625 -300 q 557 -183 557 -235 q 591 -101 557 -133 q 678 -69 625 -69 q 764 -101 731 -69 q 797 -183 797 -133 q 764 -267 797 -235 q 678 -300 731 -300 z "},"ỷ":{"ha":828,"x_min":4,"x_max":824,"o":"m 176 -250 l 297 57 l 4 792 l 240 792 l 415 353 l 589 792 l 824 792 l 411 -250 l 176 -250 m 336 875 q 350 915 336 897 q 383 943 364 932 q 427 970 408 958 q 446 996 446 982 q 437 1015 446 1007 q 411 1024 428 1024 q 381 1010 393 1024 q 365 978 368 997 l 231 978 q 283 1097 231 1051 q 411 1142 335 1142 q 534 1106 482 1142 q 586 1006 586 1071 q 570 951 586 975 q 513 900 554 928 q 497 889 503 894 q 489 875 492 883 l 336 875 z "},"ỹ":{"ha":828,"x_min":4,"x_max":824,"o":"m 176 -250 l 297 57 l 4 792 l 240 792 l 415 353 l 589 792 l 824 792 l 411 -250 l 176 -250 m 503 868 q 430 888 458 868 q 382 926 401 907 q 342 946 363 946 q 324 939 332 946 q 317 907 317 932 l 317 875 l 171 875 l 171 931 q 214 1056 171 1019 q 321 1092 257 1092 q 395 1073 368 1092 q 441 1035 422 1054 q 479 1017 460 1017 q 497 1024 490 1017 q 504 1053 504 1032 l 504 1081 l 651 1081 l 651 1029 q 608 907 651 946 q 503 868 565 868 z "},"ź":{"ha":713,"x_min":18,"x_max":686,"o":"m 161 0 q 57 33 90 0 q 24 115 24 67 q 43 199 24 154 q 101 282 63 243 l 411 606 l 18 606 l 18 792 l 539 792 q 651 758 617 792 q 686 679 686 725 q 626 542 686 608 l 297 186 l 678 186 l 678 0 l 161 0 m 271 875 l 383 1088 l 626 1088 l 454 875 l 271 875 z "},"ž":{"ha":713,"x_min":18,"x_max":686,"o":"m 161 0 q 57 33 90 0 q 24 115 24 67 q 43 199 24 154 q 101 282 63 243 l 411 606 l 18 606 l 18 792 l 539 792 q 651 758 617 792 q 686 679 686 725 q 626 542 686 608 l 297 186 l 678 186 l 678 0 l 161 0 m 356 875 q 267 892 300 875 q 211 938 235 908 q 158 1007 188 968 l 97 1088 l 269 1088 l 357 993 l 443 1088 l 617 1088 l 554 1006 q 501 938 525 968 q 444 892 476 908 q 356 875 411 875 z "},"ż":{"ha":713,"x_min":18,"x_max":686,"o":"m 161 0 q 57 33 90 0 q 24 115 24 67 q 43 199 24 154 q 101 282 63 243 l 411 606 l 18 606 l 18 792 l 539 792 q 651 758 617 792 q 686 679 686 725 q 626 542 686 608 l 297 186 l 678 186 l 678 0 l 161 0 m 357 875 q 266 907 303 875 q 229 990 229 939 q 266 1072 229 1040 q 357 1104 303 1104 q 447 1072 410 1104 q 483 990 483 1040 q 447 907 483 939 q 357 875 410 875 z "},"ª":{"ha":608,"x_min":44,"x_max":524,"o":"m 261 535 q 149 567 199 535 q 72 658 100 600 q 44 789 44 715 q 71 917 44 861 q 144 1003 97 972 q 253 1035 192 1035 q 335 1017 299 1035 q 394 967 372 999 l 401 1022 l 524 1022 l 524 547 l 401 547 l 393 610 q 338 555 372 575 q 261 535 303 535 m 285 669 q 350 701 326 669 q 374 789 374 733 q 350 876 374 844 q 285 907 326 907 q 219 876 243 907 q 194 789 194 844 q 219 701 194 733 q 285 669 243 669 z "},"º":{"ha":575,"x_min":44,"x_max":531,"o":"m 288 535 q 162 567 217 535 q 76 655 107 599 q 44 783 44 711 q 76 914 44 857 q 162 1003 107 971 q 288 1035 217 1035 q 414 1003 360 1035 q 499 914 468 971 q 531 783 531 857 q 499 655 531 711 q 414 567 468 599 q 288 535 360 535 m 288 668 q 355 700 329 668 q 381 783 381 732 q 355 869 381 836 q 288 901 329 901 q 220 869 246 901 q 194 783 194 836 q 220 700 194 732 q 288 668 246 668 z "},"⓿":{"ha":1389,"x_min":56,"x_max":1333,"o":"m 692 -131 q 440 -83 556 -131 q 238 49 324 -36 q 103 249 151 135 q 56 497 56 363 q 103 749 56 633 q 238 951 151 865 q 440 1085 324 1038 q 692 1132 556 1132 q 946 1085 829 1132 q 1149 951 1063 1038 q 1285 749 1236 865 q 1333 497 1333 633 q 1285 248 1333 363 q 1149 49 1236 133 q 946 -83 1063 -36 q 692 -131 829 -131 m 692 153 q 846 197 781 153 q 947 322 911 240 q 983 513 983 403 q 948 706 983 625 q 848 832 913 788 q 696 876 783 876 q 485 779 563 876 q 407 515 407 682 q 484 251 407 349 q 692 153 561 153 m 582 515 q 694 731 582 731 q 807 515 807 731 q 694 299 807 299 q 582 515 582 299 z "},"❶":{"ha":1389,"x_min":56,"x_max":1333,"o":"m 692 -131 q 440 -83 556 -131 q 238 49 324 -36 q 103 249 151 135 q 56 497 56 363 q 103 749 56 633 q 238 951 151 865 q 440 1085 324 1038 q 692 1132 556 1132 q 946 1085 829 1132 q 1149 951 1063 1038 q 1285 749 1236 865 q 1333 497 1333 633 q 1285 248 1333 363 q 1149 49 1236 133 q 946 -83 1063 -36 q 692 -131 829 -131 m 658 164 l 829 164 l 829 865 l 667 865 q 628 773 651 800 q 569 741 606 746 q 478 736 533 736 l 478 586 q 597 591 560 586 q 658 611 635 596 l 658 164 z "},"❷":{"ha":1389,"x_min":56,"x_max":1333,"o":"m 692 -131 q 440 -83 556 -131 q 238 49 324 -36 q 103 249 151 135 q 56 497 56 363 q 103 749 56 633 q 238 951 151 865 q 440 1085 324 1038 q 692 1132 556 1132 q 946 1085 829 1132 q 1149 951 1063 1038 q 1285 749 1236 865 q 1333 497 1333 633 q 1285 248 1333 363 q 1149 49 1236 133 q 946 -83 1063 -36 q 692 -131 829 -131 m 450 157 l 953 157 l 953 304 l 642 304 q 681 349 649 328 q 753 393 714 371 q 864 462 815 426 q 940 544 913 497 q 968 656 968 590 q 899 816 968 757 q 713 875 831 875 q 515 798 582 875 q 453 601 447 721 l 615 601 q 644 696 615 663 q 713 729 672 729 q 774 708 750 729 q 797 656 797 688 q 776 599 797 622 q 724 558 756 575 q 660 525 693 540 q 497 403 544 469 q 450 242 450 338 l 450 157 z "},"❸":{"ha":1389,"x_min":56,"x_max":1333,"o":"m 692 -131 q 440 -83 556 -131 q 238 49 324 -36 q 103 249 151 135 q 56 497 56 363 q 103 749 56 633 q 238 951 151 865 q 440 1085 324 1038 q 692 1132 556 1132 q 946 1085 829 1132 q 1149 951 1063 1038 q 1285 749 1236 865 q 1333 497 1333 633 q 1285 248 1333 363 q 1149 49 1236 133 q 946 -83 1063 -36 q 692 -131 829 -131 m 707 150 q 897 212 826 150 q 968 375 968 274 q 858 532 968 494 q 928 594 903 554 q 953 685 953 633 q 884 826 953 771 q 704 881 815 881 q 514 812 578 881 q 454 638 450 743 l 608 638 q 628 705 604 674 q 700 736 651 736 q 760 716 738 736 q 783 664 783 696 q 762 613 783 632 q 706 594 740 594 l 644 594 l 644 458 l 706 458 q 776 438 750 458 q 801 381 801 417 q 777 319 801 344 q 708 294 753 294 q 633 324 661 294 q 603 404 606 353 l 449 404 q 513 222 449 294 q 707 150 576 150 z "},"❹":{"ha":1389,"x_min":56,"x_max":1333,"o":"m 692 -131 q 440 -83 556 -131 q 238 49 324 -36 q 103 249 151 135 q 56 497 56 363 q 103 749 56 633 q 238 951 151 865 q 440 1085 324 1038 q 692 1132 556 1132 q 946 1085 829 1132 q 1149 951 1063 1038 q 1285 749 1236 865 q 1333 497 1333 633 q 1285 248 1333 363 q 1149 49 1236 133 q 946 -83 1063 -36 q 692 -131 829 -131 m 729 164 l 888 164 l 888 294 l 971 294 l 971 438 l 888 438 l 888 604 l 729 604 l 729 438 l 607 438 l 821 865 l 642 865 l 474 539 q 435 463 453 497 q 418 397 418 429 q 447 323 418 351 q 525 294 476 294 l 729 294 l 729 164 z "},"❺":{"ha":1389,"x_min":56,"x_max":1333,"o":"m 692 -131 q 440 -83 556 -131 q 238 49 324 -36 q 103 249 151 135 q 56 497 56 363 q 103 749 56 633 q 238 951 151 865 q 440 1085 324 1038 q 692 1132 556 1132 q 946 1085 829 1132 q 1149 951 1063 1038 q 1285 749 1236 865 q 1333 497 1333 633 q 1285 248 1333 363 q 1149 49 1236 133 q 946 -83 1063 -36 q 692 -131 829 -131 m 703 158 q 899 229 831 158 q 968 410 968 300 q 907 590 968 525 q 739 654 846 654 q 675 644 701 654 q 633 622 649 633 l 647 728 l 944 728 l 944 874 l 500 874 l 453 457 l 615 457 q 646 497 625 482 q 701 511 667 511 q 797 410 797 511 q 703 308 797 308 q 640 331 664 308 q 613 394 615 353 l 450 394 q 481 273 450 326 q 569 189 511 219 q 703 158 626 158 z "},"❻":{"ha":1389,"x_min":56,"x_max":1333,"o":"m 692 -131 q 440 -83 556 -131 q 238 49 324 -36 q 103 249 151 135 q 56 497 56 363 q 103 749 56 633 q 238 951 151 865 q 440 1085 324 1038 q 692 1132 556 1132 q 946 1085 829 1132 q 1149 951 1063 1038 q 1285 749 1236 865 q 1333 497 1333 633 q 1285 248 1333 363 q 1149 49 1236 133 q 946 -83 1063 -36 q 692 -131 829 -131 m 704 150 q 847 183 789 150 q 934 272 904 217 q 964 393 964 328 q 935 511 964 461 q 858 590 907 561 q 750 618 810 618 q 662 603 707 618 q 592 556 617 588 l 592 561 q 624 684 592 638 q 717 731 657 731 q 774 712 753 731 q 801 664 796 693 l 958 664 q 924 778 957 729 q 835 855 890 828 q 710 882 779 882 q 492 778 564 882 q 425 496 419 675 q 499 242 429 333 q 704 150 569 150 m 610 392 q 637 459 610 433 q 707 485 664 485 q 776 459 750 485 q 803 392 803 433 q 776 324 803 350 q 707 297 750 297 q 637 324 664 297 q 610 392 610 350 z "},"❼":{"ha":1389,"x_min":56,"x_max":1333,"o":"m 692 -131 q 440 -83 556 -131 q 238 49 324 -36 q 103 249 151 135 q 56 497 56 363 q 103 749 56 633 q 238 951 151 865 q 440 1085 324 1038 q 692 1132 556 1132 q 946 1085 829 1132 q 1149 951 1063 1038 q 1285 749 1236 865 q 1333 497 1333 633 q 1285 248 1333 363 q 1149 49 1236 133 q 946 -83 1063 -36 q 692 -131 829 -131 m 558 164 l 740 164 l 929 663 q 943 706 938 685 q 949 754 949 728 q 915 838 949 807 q 811 868 882 868 l 469 868 l 469 717 l 781 717 l 558 164 z "},"❽":{"ha":1389,"x_min":56,"x_max":1333,"o":"m 692 -131 q 440 -83 556 -131 q 238 49 324 -36 q 103 249 151 135 q 56 497 56 363 q 103 749 56 633 q 238 951 151 865 q 440 1085 324 1038 q 692 1132 556 1132 q 946 1085 829 1132 q 1149 951 1063 1038 q 1285 749 1236 865 q 1333 497 1333 633 q 1285 248 1333 363 q 1149 49 1236 133 q 946 -83 1063 -36 q 692 -131 829 -131 m 696 149 q 892 206 819 149 q 965 358 965 263 q 937 453 965 408 q 858 519 908 497 q 929 583 903 542 q 956 676 956 625 q 885 826 956 771 q 694 882 815 882 q 505 826 575 882 q 435 675 435 769 q 460 585 435 626 q 531 519 485 543 q 453 454 482 497 q 425 358 425 411 q 498 206 425 263 q 696 149 571 149 m 599 661 q 624 717 599 697 q 694 736 650 736 q 766 717 740 736 q 792 661 792 697 q 765 608 792 629 q 694 588 739 588 q 625 608 651 588 q 599 661 599 629 m 593 376 q 622 435 593 413 q 694 457 650 457 q 769 435 740 457 q 797 376 797 413 q 770 315 797 338 q 694 293 743 293 q 620 315 647 293 q 593 376 593 338 z "},"❾":{"ha":1389,"x_min":56,"x_max":1333,"o":"m 692 -131 q 440 -83 556 -131 q 238 49 324 -36 q 103 249 151 135 q 56 497 56 363 q 103 749 56 633 q 238 951 151 865 q 440 1085 324 1038 q 692 1132 556 1132 q 946 1085 829 1132 q 1149 951 1063 1038 q 1285 749 1236 865 q 1333 497 1333 633 q 1285 248 1333 363 q 1149 49 1236 133 q 946 -83 1063 -36 q 692 -131 829 -131 m 706 882 q 564 849 622 882 q 476 760 506 815 q 446 639 446 706 q 474 522 446 572 q 551 442 503 471 q 660 414 600 414 q 748 430 703 414 q 818 476 793 446 l 818 471 q 785 348 818 394 q 693 301 753 301 q 636 320 657 301 q 608 368 615 339 l 451 368 q 487 253 454 303 q 575 177 519 204 q 700 150 631 150 q 918 253 846 150 q 985 536 990 357 q 910 790 981 699 q 706 882 840 882 m 800 640 q 773 573 800 599 q 703 547 746 547 q 633 573 660 547 q 607 640 607 599 q 633 708 607 682 q 703 735 660 735 q 773 708 746 735 q 800 640 800 682 z "},"⓪":{"ha":1389,"x_min":56,"x_max":1333,"o":"m 692 -131 q 440 -83 556 -131 q 238 49 324 -36 q 103 249 151 135 q 56 497 56 363 q 103 749 56 633 q 238 951 151 865 q 440 1085 324 1038 q 692 1132 556 1132 q 946 1085 829 1132 q 1149 951 1063 1038 q 1285 749 1236 865 q 1333 497 1333 633 q 1285 248 1333 363 q 1149 49 1236 133 q 946 -83 1063 -36 q 692 -131 829 -131 m 692 -44 q 912 -3 811 -44 q 1088 110 1013 38 q 1203 282 1163 183 q 1244 497 1244 381 q 1203 715 1244 615 q 1088 890 1163 815 q 912 1005 1013 964 q 692 1046 811 1046 q 475 1005 575 1046 q 300 890 375 964 q 184 715 225 815 q 143 497 143 615 q 184 283 143 382 q 300 111 225 185 q 475 -3 375 38 q 692 -44 575 -44 m 692 153 q 484 251 561 153 q 407 515 407 349 q 485 779 407 682 q 696 876 563 876 q 848 832 783 876 q 948 706 913 788 q 983 513 983 625 q 947 322 983 403 q 846 197 911 240 q 692 153 781 153 m 694 299 q 807 515 807 299 q 694 731 807 731 q 582 515 582 731 q 694 299 582 299 z "},"①":{"ha":1389,"x_min":56,"x_max":1333,"o":"m 692 -131 q 440 -83 556 -131 q 238 49 324 -36 q 103 249 151 135 q 56 497 56 363 q 103 749 56 633 q 238 951 151 865 q 440 1085 324 1038 q 692 1132 556 1132 q 946 1085 829 1132 q 1149 951 1063 1038 q 1285 749 1236 865 q 1333 497 1333 633 q 1285 248 1333 363 q 1149 49 1236 133 q 946 -83 1063 -36 q 692 -131 829 -131 m 692 -44 q 912 -3 811 -44 q 1088 110 1013 38 q 1203 282 1163 183 q 1244 497 1244 381 q 1203 715 1244 615 q 1088 890 1163 815 q 912 1005 1013 964 q 692 1046 811 1046 q 475 1005 575 1046 q 300 890 375 964 q 184 715 225 815 q 143 497 143 615 q 184 283 143 382 q 300 111 225 185 q 475 -3 375 38 q 692 -44 575 -44 m 660 164 l 660 611 q 599 591 636 596 q 479 586 561 586 l 479 736 q 572 741 536 736 q 630 773 607 746 q 668 865 653 800 l 831 865 l 831 164 l 660 164 z "},"②":{"ha":1389,"x_min":56,"x_max":1333,"o":"m 692 -131 q 440 -83 556 -131 q 238 49 324 -36 q 103 249 151 135 q 56 497 56 363 q 103 749 56 633 q 238 951 151 865 q 440 1085 324 1038 q 692 1132 556 1132 q 946 1085 829 1132 q 1149 951 1063 1038 q 1285 749 1236 865 q 1333 497 1333 633 q 1285 248 1333 363 q 1149 49 1236 133 q 946 -83 1063 -36 q 692 -131 829 -131 m 692 -44 q 912 -3 811 -44 q 1088 110 1013 38 q 1203 282 1163 183 q 1244 497 1244 381 q 1203 715 1244 615 q 1088 890 1163 815 q 912 1005 1013 964 q 692 1046 811 1046 q 475 1005 575 1046 q 300 890 375 964 q 184 715 225 815 q 143 497 143 615 q 184 283 143 382 q 300 111 225 185 q 475 -3 375 38 q 692 -44 575 -44 m 450 157 l 450 242 q 497 403 450 338 q 660 525 544 469 q 724 558 693 540 q 776 599 756 575 q 797 656 797 622 q 774 708 797 688 q 713 729 750 729 q 644 696 672 729 q 615 601 615 663 l 453 601 q 515 798 447 721 q 713 875 582 875 q 899 816 831 875 q 968 656 968 757 q 940 544 968 590 q 864 462 913 497 q 753 393 815 426 q 682 350 714 372 q 642 304 650 328 l 953 304 l 953 157 l 450 157 z "},"③":{"ha":1389,"x_min":56,"x_max":1333,"o":"m 692 -131 q 440 -83 556 -131 q 238 49 324 -36 q 103 249 151 135 q 56 497 56 363 q 103 749 56 633 q 238 951 151 865 q 440 1085 324 1038 q 692 1132 556 1132 q 946 1085 829 1132 q 1149 951 1063 1038 q 1285 749 1236 865 q 1333 497 1333 633 q 1285 248 1333 363 q 1149 49 1236 133 q 946 -83 1063 -36 q 692 -131 829 -131 m 692 -44 q 912 -3 811 -44 q 1088 110 1013 38 q 1203 282 1163 183 q 1244 497 1244 381 q 1203 715 1244 615 q 1088 890 1163 815 q 912 1005 1013 964 q 692 1046 811 1046 q 475 1005 575 1046 q 300 890 375 964 q 184 715 225 815 q 143 497 143 615 q 184 283 143 382 q 300 111 225 185 q 475 -3 375 38 q 692 -44 575 -44 m 707 150 q 513 222 576 150 q 449 404 449 294 l 603 404 q 633 324 606 353 q 708 294 661 294 q 777 319 753 294 q 801 381 801 344 q 776 438 801 417 q 706 458 750 458 l 644 458 l 644 594 l 706 594 q 762 613 740 594 q 783 664 783 632 q 760 716 783 696 q 700 736 738 736 q 628 705 651 736 q 608 638 604 674 l 454 638 q 514 812 450 743 q 704 881 578 881 q 884 826 815 881 q 953 685 953 771 q 928 593 953 633 q 858 532 903 553 q 940 474 913 513 q 968 375 968 436 q 897 212 968 274 q 707 150 826 150 z "},"④":{"ha":1389,"x_min":56,"x_max":1333,"o":"m 692 -131 q 440 -83 556 -131 q 238 49 324 -36 q 103 249 151 135 q 56 497 56 363 q 103 749 56 633 q 238 951 151 865 q 440 1085 324 1038 q 692 1132 556 1132 q 946 1085 829 1132 q 1149 951 1063 1038 q 1285 749 1236 865 q 1333 497 1333 633 q 1285 248 1333 363 q 1149 49 1236 133 q 946 -83 1063 -36 q 692 -131 829 -131 m 692 -44 q 912 -3 811 -44 q 1088 110 1013 38 q 1203 282 1163 183 q 1244 497 1244 381 q 1203 715 1244 615 q 1088 890 1163 815 q 912 1005 1013 964 q 692 1046 811 1046 q 475 1005 575 1046 q 300 890 375 964 q 184 715 225 815 q 143 497 143 615 q 184 283 143 382 q 300 111 225 185 q 475 -3 375 38 q 692 -44 575 -44 m 525 294 q 447 323 476 294 q 418 397 418 351 q 435 463 418 429 q 474 539 453 497 l 642 865 l 821 865 l 607 438 l 729 438 l 729 604 l 888 604 l 888 438 l 971 438 l 971 294 l 888 294 l 888 164 l 729 164 l 729 294 l 525 294 z "}}}
